<?xml version="1.0" encoding="utf-8"?>
<!-- Generator: Adobe Illustrator 27.2.0, SVG Export Plug-In . SVG Version: 6.00 Build 0)  -->
<svg version="1.1" id="Calque_1" xmlns="http://www.w3.org/2000/svg" xmlns:xlink="http://www.w3.org/1999/xlink" x="0px" y="0px"
	 viewBox="0 0 24 25" style="enable-background:new 0 0 24 25;" xml:space="preserve">
<style type="text/css">
	.st0{fill-rule:evenodd;clip-rule:evenodd;fill:#368ECD;}
</style>
<path class="st0" d="M9,7.2C8.8,7.2,8.6,7.2,8.5,7C8.3,6.9,8.3,6.7,8.3,6.5S8.3,6.1,8.5,6C8.6,5.8,8.8,5.7,9,5.7h9
	c0.2,0,0.4,0.1,0.5,0.2c0.1,0.1,0.2,0.3,0.2,0.5v9c0,0.2-0.1,0.4-0.2,0.5c-0.1,0.1-0.3,0.2-0.5,0.2c-0.2,0-0.4-0.1-0.5-0.2
	c-0.1-0.1-0.2-0.3-0.2-0.5V8.3L6.5,19c-0.1,0.1-0.3,0.2-0.5,0.2c-0.2,0-0.4-0.1-0.5-0.2c-0.1-0.1-0.2-0.3-0.2-0.5
	c0-0.2,0.1-0.4,0.2-0.5L16.2,7.2H9z"/>
</svg>
