<svg xmlns="http://www.w3.org/2000/svg" width="24" height="25" viewBox="0 0 24 25" fill="none">
  <path fill-rule="evenodd" clip-rule="evenodd" d="M9.00003 7.25C8.80112 7.25 8.61035 7.17098 8.4697 7.03033C8.32905 6.88968 8.25003 6.69891 8.25003 6.5C8.25003 6.30109 8.32905 6.11032 8.4697 5.96967C8.61035 5.82902 8.80112 5.75 9.00003 5.75H18C18.1989 5.75 18.3897 5.82902 18.5304 5.96967C18.671 6.11032 18.75 6.30109 18.75 6.5V15.5C18.75 15.6989 18.671 15.8897 18.5304 16.0303C18.3897 16.171 18.1989 16.25 18 16.25C17.8011 16.25 17.6104 16.171 17.4697 16.0303C17.329 15.8897 17.25 15.6989 17.25 15.5V8.31L6.53003 19.03C6.38785 19.1625 6.19981 19.2346 6.00551 19.2312C5.81121 19.2277 5.62582 19.149 5.48841 19.0116C5.35099 18.8742 5.27228 18.6888 5.26885 18.4945C5.26543 18.3002 5.33755 18.1122 5.47003 17.97L16.19 7.25H9.00003Z" fill="#263238"/>
</svg>
