<svg xmlns="http://www.w3.org/2000/svg" width="24" height="25" viewBox="0 0 24 25" fill="none">
  <path fill-rule="evenodd" clip-rule="evenodd"
        d="M9.00009 7.25C8.80118 7.25 8.61041 7.17098 8.46976 7.03033C8.32911 6.88968 8.25009 6.69891 8.25009 6.5C8.25009 6.30109 8.32911 6.11032 8.46976 5.96967C8.61041 5.82902 8.80118 5.75 9.00009 5.75H18.0001C18.199 5.75 18.3898 5.82902 18.5304 5.96967C18.6711 6.11032 18.7501 6.30109 18.7501 6.5V15.5C18.7501 15.6989 18.6711 15.8897 18.5304 16.0303C18.3898 16.171 18.199 16.25 18.0001 16.25C17.8012 16.25 17.6104 16.171 17.4698 16.0303C17.3291 15.8897 17.2501 15.6989 17.2501 15.5V8.31L6.53009 19.03C6.38792 19.1625 6.19987 19.2346 6.00557 19.2312C5.81127 19.2277 5.62588 19.149 5.48847 19.0116C5.35106 18.8742 5.27234 18.6888 5.26892 18.4945C5.26549 18.3002 5.33761 18.1122 5.47009 17.97L16.1901 7.25H9.00009Z"
        fill="white"/>
</svg>
