<svg width="138" height="138" viewBox="0 0 138 138" fill="none" xmlns="http://www.w3.org/2000/svg">
<path d="M26.6011 111.918V113.994H42.1399V111.918H26.6011Z" fill="#E0E0E0"/>
<path d="M28.7205 112.001C28.7729 112.001 28.8171 112.437 28.8171 112.975C28.8171 113.513 28.7729 113.947 28.7205 113.947C28.668 113.947 28.6211 113.511 28.6211 112.975C28.6211 112.44 28.6653 112.001 28.7205 112.001Z" fill="#FAFAFA"/>
<path d="M28.3813 111.959C28.4365 111.959 28.4779 112.396 28.4779 112.931C28.4779 113.466 28.4365 113.905 28.3813 113.905C28.3261 113.905 28.2847 113.469 28.2847 112.931C28.2847 112.393 28.3261 111.959 28.3813 111.959Z" fill="#FAFAFA"/>
<path d="M40.9389 112.001C40.9941 112.001 41.0382 112.437 41.0382 112.975C41.0382 113.513 40.9941 113.947 40.9389 113.947C40.8837 113.947 40.8423 113.511 40.8423 112.975C40.8423 112.44 40.8864 112.001 40.9389 112.001Z" fill="#FAFAFA"/>
<path d="M40.6023 111.959C40.6547 111.959 40.6989 112.396 40.6989 112.931C40.6989 113.466 40.6547 113.905 40.6023 113.905C40.5498 113.905 40.5029 113.469 40.5029 112.931C40.5029 112.393 40.5471 111.959 40.6023 111.959Z" fill="#FAFAFA"/>
<path d="M38.5709 113.017C38.5709 113.072 36.7907 113.113 34.5965 113.113C32.4023 113.113 30.6221 113.072 30.6221 113.017C30.6221 112.961 32.4023 112.92 34.5965 112.92C36.7907 112.92 38.5709 112.961 38.5709 113.017Z" fill="#FAFAFA"/>
<path d="M26.5347 121.264V125.415H42.0735V121.264H26.5347Z" fill="#E0E0E0"/>
<path d="M42.272 124.247C42.272 124.247 42.2471 124.266 42.1892 124.294C42.1312 124.322 42.0456 124.363 41.9297 124.413C41.592 124.556 41.2379 124.657 40.8754 124.714C40.2946 124.819 39.6954 124.734 39.167 124.471C38.8401 124.297 38.5614 124.044 38.3555 123.737C38.1192 123.386 38.0209 122.96 38.0795 122.541C38.1135 122.314 38.2089 122.1 38.3555 121.923C38.434 121.826 38.534 121.749 38.6475 121.697C38.761 121.645 38.885 121.621 39.0096 121.625C39.1379 121.636 39.2627 121.672 39.3762 121.733C39.4897 121.794 39.5894 121.877 39.6693 121.978C39.8392 122.179 39.9442 122.426 39.9701 122.688C39.9913 122.957 39.9544 123.228 39.8621 123.481C39.7697 123.735 39.624 123.966 39.4347 124.159C39.0414 124.575 38.5111 124.834 37.9415 124.89C37.355 124.947 36.7632 124.873 36.2082 124.675C35.6152 124.489 35.0887 124.136 34.693 123.656C34.4889 123.399 34.3659 123.087 34.3397 122.759C34.3232 122.589 34.3443 122.417 34.4015 122.256C34.4588 122.095 34.5507 121.948 34.6709 121.827C34.8024 121.7 34.9746 121.625 35.1567 121.614C35.3366 121.609 35.5137 121.659 35.6645 121.758C35.9558 121.948 36.1608 122.246 36.2358 122.586C36.3008 122.918 36.2785 123.261 36.1711 123.581C36.0637 123.902 35.8749 124.19 35.6231 124.415C35.1298 124.832 34.5172 125.081 33.8733 125.128C33.263 125.198 32.6447 125.137 32.06 124.948C31.486 124.768 30.9961 124.386 30.68 123.875C30.5227 123.632 30.4252 123.355 30.3955 123.067C30.3658 122.779 30.4046 122.488 30.5088 122.219C30.5605 122.083 30.6455 121.963 30.756 121.87C30.8665 121.776 30.9989 121.712 31.1409 121.683C31.2774 121.659 31.4175 121.663 31.5524 121.695C31.6873 121.727 31.8141 121.787 31.9247 121.871C32.1184 122.041 32.2571 122.265 32.3229 122.514C32.3888 122.763 32.3789 123.026 32.2946 123.27C32.1435 123.705 31.8716 124.088 31.5107 124.374C30.913 124.88 30.1628 125.172 29.38 125.202C28.9035 125.219 28.4288 125.136 27.9866 124.957C27.5444 124.779 27.1447 124.51 26.8132 124.167C26.7468 124.099 26.6842 124.027 26.6255 123.952C26.6048 123.927 26.5863 123.9 26.5703 123.872C26.8984 124.234 27.2904 124.532 27.7268 124.752C28.2409 125.005 28.8107 125.122 29.3828 125.094C30.138 125.052 30.8579 124.761 31.4307 124.266C31.7669 123.994 32.0194 123.633 32.1593 123.223C32.2324 123.01 32.2408 122.78 32.1833 122.562C32.1258 122.344 32.0051 122.147 31.8364 121.998C31.7437 121.929 31.6378 121.879 31.5253 121.853C31.4128 121.826 31.2961 121.823 31.1823 121.843C31.0669 121.867 30.9595 121.92 30.8706 121.998C30.7817 122.075 30.7141 122.174 30.6744 122.285C30.5837 122.529 30.5517 122.79 30.5809 123.049C30.6102 123.307 30.6999 123.555 30.8428 123.772C31.1391 124.245 31.5956 124.596 32.129 124.76C32.6884 124.938 33.2793 124.994 33.8622 124.926C34.4648 124.881 35.0382 124.649 35.5017 124.261C35.729 124.056 35.8994 123.796 35.9961 123.506C36.0929 123.216 36.1127 122.905 36.0537 122.605C35.9914 122.313 35.8183 122.057 35.5707 121.89C35.459 121.807 35.3219 121.767 35.1832 121.775C35.0445 121.783 34.913 121.839 34.8117 121.934C34.7113 122.036 34.6346 122.158 34.5869 122.293C34.5392 122.427 34.5217 122.571 34.5357 122.713C34.5589 123.002 34.6674 123.279 34.8476 123.507C35.2195 123.957 35.713 124.289 36.269 124.465C36.7989 124.656 37.3641 124.728 37.925 124.678C38.45 124.627 38.9395 124.39 39.305 124.01C39.4792 123.835 39.6139 123.626 39.7001 123.395C39.7863 123.164 39.8219 122.917 39.8045 122.671C39.7952 122.448 39.7104 122.234 39.564 122.065C39.4177 121.896 39.2183 121.782 38.9986 121.741C38.8963 121.738 38.7946 121.758 38.7013 121.8C38.608 121.842 38.5256 121.905 38.4604 121.984C38.3258 122.141 38.237 122.332 38.2037 122.536C38.1473 122.922 38.2368 123.316 38.4549 123.64C38.6463 123.935 38.9068 124.178 39.2139 124.349C39.7238 124.611 40.304 124.703 40.8699 124.611C41.228 124.562 41.5797 124.475 41.9187 124.349C42.1505 124.291 42.2692 124.239 42.272 124.247Z" fill="#FAFAFA"/>
<path d="M27.9229 114.052V121.255H42.0734V114.052H27.9229Z" fill="#EBEBEB"/>
<path d="M30.2747 114.3C30.3271 114.3 30.3713 115.859 30.3713 117.786C30.3713 119.712 30.3271 121.272 30.2747 121.272C30.2222 121.272 30.1753 119.712 30.1753 117.786C30.1753 115.859 30.2195 114.3 30.2747 114.3Z" fill="#E0E0E0"/>
<path d="M31.3479 114.209C31.4003 114.209 31.4445 115.752 31.4445 117.651C31.4445 119.55 31.4003 121.092 31.3479 121.092C31.2955 121.092 31.2485 119.552 31.2485 117.651C31.2485 115.749 31.2927 114.209 31.3479 114.209Z" fill="#E0E0E0"/>
<path d="M40.4753 113.988C40.5278 113.988 40.5719 115.611 40.5719 117.615C40.5719 119.618 40.5278 121.239 40.4753 121.239C40.4229 121.239 40.376 119.616 40.376 117.615C40.376 115.614 40.4201 113.988 40.4753 113.988Z" fill="#E0E0E0"/>
<path d="M39.2141 114.076C39.2665 114.076 39.3107 115.655 39.3107 117.606C39.3107 119.558 39.2665 121.136 39.2141 121.136C39.1617 121.136 39.1147 119.558 39.1147 117.606C39.1147 115.655 39.1589 114.076 39.2141 114.076Z" fill="#E0E0E0"/>
<path d="M115.387 98.3277C116.856 97.5687 118.581 97.4721 120.212 97.7398C121.087 97.8861 121.997 98.1456 122.594 98.8052C123.19 99.4648 123.3 100.619 122.618 101.182C122.21 101.518 121.644 101.571 121.114 101.562C119.839 101.549 118.426 101.325 117.408 102.092C116.825 102.528 116.439 103.257 115.752 103.472C115.064 103.688 114.305 103.282 113.947 102.669C113.615 102.03 113.542 101.288 113.742 100.596C113.824 100.117 114.014 99.6633 114.3 99.2698C114.585 98.8763 114.957 98.5539 115.387 98.3277Z" fill="#EBEBEB"/>
<path d="M112.026 91.8391C112.923 93.1197 114.667 92.6946 115.476 91.9136C116.284 91.1325 116.626 89.9981 116.936 88.9162C117.648 86.4488 118.363 83.8571 117.835 81.3428C117.709 80.5801 117.374 79.8674 116.867 79.2838C116.61 78.9961 116.283 78.7805 115.917 78.6585C115.552 78.5365 115.161 78.5123 114.783 78.5883C113.905 78.8229 113.359 79.6923 112.964 80.501C111.801 82.9198 111.191 85.5672 111.178 88.2511C111.178 89.4986 111.322 90.8068 112.026 91.8391Z" fill="#EBEBEB"/>
<path d="M109.572 93.6774C110.546 92.5209 110.731 90.8346 110.298 89.3883C109.865 87.9421 108.885 86.7056 107.756 85.701C106.428 84.5186 104.882 83.6064 103.205 83.0155C102.556 82.7542 101.858 82.6356 101.16 82.6677C100.81 82.688 100.471 82.7934 100.172 82.9747C99.8727 83.1561 99.6223 83.4079 99.4428 83.7083C98.9625 84.6218 99.4235 85.7286 99.9203 86.6339C100.796 88.2254 101.794 89.7462 102.907 91.1823C103.804 92.3388 104.839 93.4787 106.194 94.0003C107.549 94.5219 108.979 94.4585 109.702 93.5118" fill="#EBEBEB"/>
<path d="M111.965 111.165C112.012 110.974 112.04 110.779 112.047 110.582C112.089 110.16 112.139 109.627 112.202 108.995C112.281 108.212 112.4 107.434 112.558 106.663C112.766 105.722 113.049 104.799 113.405 103.903C113.755 103.013 114.228 102.177 114.81 101.419C115.285 100.801 115.891 100.297 116.585 99.9424C117.057 99.7107 117.561 99.5534 118.081 99.4759C118.276 99.4699 118.471 99.4421 118.66 99.3931C118.464 99.3716 118.266 99.3716 118.07 99.3931C117.53 99.4342 117.002 99.5716 116.51 99.7989C115.78 100.144 115.14 100.653 114.639 101.287C114.03 102.056 113.539 102.912 113.182 103.826C112.825 104.732 112.548 105.667 112.354 106.622C112.203 107.401 112.099 108.189 112.042 108.981C111.992 109.655 111.973 110.201 111.965 110.579C111.944 110.774 111.944 110.97 111.965 111.165Z" fill="#E0E0E0"/>
<path d="M112.076 109.942C112.092 109.851 112.098 109.758 112.092 109.666C112.092 109.464 112.092 109.208 112.092 108.893C112.092 108.225 112.092 107.254 112.125 106.056C112.186 103.66 112.401 101.088 112.79 97.4447C113.168 94.0278 113.674 90.0479 114.209 87.4617C114.322 86.8739 114.438 86.3439 114.548 85.8803C114.659 85.4166 114.739 85.0164 114.824 84.6935C114.91 84.3705 114.957 84.1415 115.004 83.9427C115.029 83.8524 115.045 83.7601 115.054 83.6667C115.011 83.747 114.98 83.8323 114.96 83.9207C114.899 84.1139 114.824 84.3595 114.733 84.6603C114.642 84.9612 114.532 85.3779 114.416 85.8416C114.3 86.3053 114.168 86.8325 114.043 87.4203C113.38 90.4789 112.882 93.5709 112.55 96.6829C112.153 100.326 111.973 103.644 111.957 106.045C111.943 107.245 111.957 108.217 111.998 108.888C112.018 109.202 112.034 109.459 112.045 109.66C112.044 109.755 112.054 109.85 112.076 109.942Z" fill="#E0E0E0"/>
<path d="M112.092 103.544C112.113 103.276 112.113 103.007 112.092 102.738C112.062 102.22 111.99 101.469 111.844 100.552C111.668 99.4782 111.431 98.4149 111.134 97.3675C110.786 96.0787 110.34 94.8184 109.801 93.5973C108.878 91.3465 107.552 89.2824 105.89 87.506C105.6 87.2025 105.293 86.9168 104.968 86.6504C104.828 86.5317 104.692 86.413 104.576 86.3192L104.22 86.0735C104.006 85.9096 103.778 85.7637 103.539 85.6375C103.5 85.6899 104.502 86.2778 105.766 87.6247C107.374 89.4167 108.664 91.4702 109.58 93.6967C110.108 94.9093 110.553 96.1559 110.913 97.4282C111.264 98.5984 111.496 99.6748 111.672 100.58C111.849 101.485 111.935 102.236 111.993 102.747C112.004 103.015 112.037 103.282 112.092 103.544Z" fill="#E0E0E0"/>
<path d="M105.479 113.858L106.122 122.641H117.402L118.045 113.858H105.479Z" fill="#EBEBEB"/>
<path d="M119.389 110.397H104.389V113.859H119.389V110.397Z" fill="#EBEBEB"/>
<path d="M104.389 122.304V123.264H105.095H119.144V122.304H104.389Z" fill="#E0E0E0"/>
<path d="M105.785 124.846L105.095 123.16H118.605L117.799 124.846H105.785Z" fill="#E0E0E0"/>
<path d="M117.836 116.729C117.822 116.758 117.804 116.785 117.783 116.809C117.736 116.87 117.681 116.941 117.615 117.032L116.955 117.874L116.927 117.913L116.9 117.872C116.486 117.3 115.934 116.538 115.285 115.639H115.368L113.778 117.891L113.729 117.96L113.673 117.894L111.797 115.644H111.904L111.802 115.774L110.124 117.894L110.066 117.965L110.016 117.891C109.442 117.082 108.912 116.323 108.424 115.641H108.518L106.558 117.874L106.525 117.913L106.497 117.869L105.885 116.839C105.818 116.726 105.769 116.635 105.727 116.563C105.707 116.533 105.69 116.501 105.678 116.467C105.703 116.492 105.725 116.521 105.744 116.552L105.918 116.828L106.561 117.841H106.5L108.432 115.581L108.479 115.526L108.523 115.586L110.13 117.827H110.019L111.703 115.71L111.805 115.578L111.86 115.512L111.915 115.578L113.795 117.825H113.69L115.296 115.583L115.343 115.517L115.387 115.583L116.969 117.841H116.911C117.201 117.493 117.427 117.22 117.595 117.013L117.778 116.801C117.811 116.748 117.833 116.726 117.836 116.729Z" fill="#F5F5F5"/>
<path d="M118.203 113.8C118.203 113.839 115.374 113.869 111.888 113.869C108.402 113.869 105.573 113.839 105.573 113.8C105.573 113.762 108.399 113.731 111.888 113.731C115.376 113.731 118.203 113.762 118.203 113.8Z" fill="#F5F5F5"/>
<path d="M53.8781 22.3119C53.8781 22.3119 53.8532 22.3119 53.8118 22.2926L53.6297 22.2208L52.9341 21.931L50.3811 20.827L41.9907 17.1728L41.6982 17.0431H41.7589L33.5369 20.5731L31.0529 21.6164L30.3739 21.8924C30.2965 21.9279 30.2162 21.9565 30.1338 21.9779C30.2071 21.9342 30.2837 21.8964 30.3629 21.8648L31.0308 21.5612L33.5148 20.471L41.7175 16.9133H41.7479H41.7782L42.0708 17.0403L50.4446 20.7387L52.9755 21.8731L53.66 22.1905L53.8367 22.276C53.8518 22.2863 53.8657 22.2984 53.8781 22.3119Z" fill="#E0E0E0"/>
<path d="M66.966 21.1086H13.0659V61.4681H66.966V21.1086Z" fill="#E0E0E0"/>
<path d="M65.2848 22.9854H14.9507V59.8093H65.2848V22.9854Z" fill="#FAFAFA"/>
<path d="M26.0684 39.0732C26.0684 39.0732 26.1208 45.2529 26.4354 47.1407L34.1883 46.7736C34.1883 46.7736 33.5093 40.7016 33.7715 39.0732H26.0684Z" fill="#E0E0E0"/>
<path d="M29.8879 39.9454H30.001C30.109 39.9415 30.217 39.947 30.324 39.962C30.4938 39.9872 30.6592 40.0365 30.8152 40.1083C31.0217 40.2106 31.2042 40.3554 31.3507 40.5333C31.5307 40.7497 31.6582 41.0047 31.7233 41.2785C31.7839 41.5991 31.7562 41.9302 31.6432 42.2362C31.5855 42.4027 31.5125 42.5634 31.4252 42.7165C31.3326 42.8722 31.2496 43.0335 31.1768 43.1995C31.0222 43.5515 30.9164 43.9229 30.8622 44.3035V44.3283H30.8373H30.0728H29.2696H29.2393V44.3007C29.2049 43.922 29.0768 43.5578 28.8667 43.2409C28.7728 43.0808 28.6707 42.9345 28.5907 42.7827C28.4905 42.6398 28.3983 42.4915 28.3147 42.3384C28.1731 42.0452 28.1305 41.7139 28.1932 41.3944C28.2383 41.1186 28.3408 40.8553 28.4941 40.6216C28.625 40.4338 28.7967 40.2782 28.9964 40.1662C29.2429 40.0355 29.5133 39.9557 29.7913 39.9316H29.9017C29.9017 39.9316 29.9017 39.9316 29.8741 39.9316H29.7913C29.6859 39.9441 29.5817 39.9644 29.4794 39.9924C29.3162 40.035 29.1593 40.099 29.013 40.1828C28.8177 40.2932 28.6505 40.4471 28.5244 40.6327C28.3819 40.8643 28.288 41.1226 28.2484 41.3917C28.1882 41.7013 28.2309 42.0221 28.3699 42.3052C28.4544 42.4561 28.5465 42.6026 28.6459 42.7441C28.7425 42.8904 28.8446 43.0422 28.9384 43.2022C29.1563 43.5264 29.2883 43.9006 29.3221 44.2897L29.2917 44.2593H30.0949H30.8622L30.8318 44.2869C30.887 43.9015 30.9947 43.5254 31.152 43.1691C31.2277 43.0018 31.3125 42.8387 31.4059 42.6806C31.4916 42.531 31.5636 42.374 31.6212 42.2114C31.7329 41.9147 31.7624 41.5934 31.7067 41.2813C31.6438 41.0141 31.5222 40.7642 31.3507 40.5499C31.2083 40.3741 31.0306 40.2303 30.829 40.1276C30.6763 40.0537 30.5136 40.0026 30.346 39.9758C30.2409 39.9597 30.1349 39.9505 30.0286 39.9482H29.9431C29.8989 39.9482 29.8879 39.9482 29.8879 39.9454Z" fill="white"/>
<path d="M30.2851 44.254C30.2845 44.2457 30.2845 44.2374 30.2851 44.2291V44.1574C30.2851 44.0939 30.2602 44.0001 30.2437 43.8814C30.2078 43.6385 30.1553 43.2907 30.1222 42.8574C30.1222 42.7498 30.1057 42.6366 30.1029 42.5179C30.096 42.3938 30.096 42.2694 30.1029 42.1453C30.1059 42.0122 30.135 41.8809 30.1885 41.7589C30.2481 41.6272 30.3542 41.522 30.4865 41.4636C30.557 41.434 30.6346 41.4258 30.7097 41.4401C30.7848 41.4543 30.8541 41.4903 30.9088 41.5437C30.938 41.5706 30.961 41.6036 30.9762 41.6403C30.9914 41.677 30.9986 41.7165 30.9971 41.7562C30.9956 41.8361 30.9685 41.9135 30.9199 41.977C30.87 42.0415 30.8057 42.0935 30.7322 42.1288C30.6592 42.1631 30.5823 42.1881 30.5031 42.2033C30.1798 42.2694 29.8476 42.2806 29.5205 42.2364C29.4396 42.2254 29.3607 42.2031 29.2859 42.1702C29.2131 42.1374 29.1474 42.0905 29.0927 42.0322C29.0367 41.9738 28.9976 41.9013 28.9796 41.8224C28.9622 41.7452 28.972 41.6643 29.0072 41.5933C29.0392 41.5219 29.0975 41.4655 29.17 41.436C29.2045 41.4212 29.2416 41.4136 29.279 41.4136C29.3165 41.4136 29.3536 41.4212 29.3881 41.436C29.4547 41.4662 29.5119 41.5139 29.5537 41.574C29.5925 41.633 29.6206 41.6984 29.6365 41.7672C29.6599 41.8985 29.6728 42.0314 29.6751 42.1647L29.7137 42.874C29.7331 43.3073 29.7524 43.6578 29.7634 43.9035C29.7634 44.0221 29.7634 44.116 29.7634 44.1795V44.2761C29.764 44.2678 29.764 44.2595 29.7634 44.2512C29.7634 44.2347 29.7634 44.2098 29.7634 44.1795C29.7634 44.1491 29.7634 44.0194 29.7469 43.9035C29.7469 43.6578 29.711 43.3073 29.6861 42.874C29.6861 42.6587 29.6613 42.4213 29.6475 42.1647C29.6457 42.033 29.6319 41.9018 29.6061 41.7727C29.5926 41.7067 29.5664 41.6438 29.5288 41.5878C29.4879 41.5316 29.4339 41.4861 29.3715 41.4553C29.3397 41.4417 29.3054 41.4347 29.2708 41.4347C29.2361 41.4347 29.2019 41.4417 29.17 41.4553C29.1029 41.4833 29.0487 41.5355 29.0182 41.6016C28.9865 41.6687 28.9777 41.7444 28.9934 41.8169C29.012 41.8903 29.049 41.9578 29.101 42.0129C29.2131 42.1233 29.3588 42.1933 29.515 42.2116C29.6769 42.2328 29.8404 42.2402 30.0035 42.2337C30.1668 42.2294 30.3293 42.2109 30.4893 42.1785C30.5668 42.1637 30.642 42.1386 30.7129 42.1039C30.7828 42.0703 30.8441 42.0213 30.8923 41.9604C30.9378 41.9007 30.9639 41.8285 30.9668 41.7534C30.9666 41.7169 30.9592 41.6808 30.945 41.6471C30.9308 41.6135 30.9101 41.583 30.884 41.5575C30.8321 41.5079 30.767 41.4743 30.6966 41.4606C30.6261 41.4469 30.5533 41.4537 30.4865 41.4802C30.364 41.5355 30.2659 41.6336 30.2105 41.7562C30.1581 41.8765 30.129 42.0058 30.125 42.1371C30.125 42.264 30.125 42.3855 30.125 42.5041C30.125 42.6228 30.125 42.736 30.1443 42.8464C30.1774 43.2797 30.2271 43.6275 30.2575 43.8676C30.274 43.989 30.2878 44.0801 30.2961 44.1436V44.2153C30.294 44.2286 30.2903 44.2416 30.2851 44.254Z" fill="white"/>
<path d="M29.2559 44.2953C29.2684 44.3804 29.2758 44.4661 29.2779 44.552C29.2779 44.736 29.289 44.9596 29.3111 45.2227V45.2061L29.8355 45.8161H29.8079L30.4123 45.783H30.3875L30.6855 45.4187L30.8373 45.2337V45.2586C30.8373 44.9025 30.8208 44.5686 30.8153 44.265L30.8484 44.2953H29.7195H29.2559C29.2916 44.2902 29.3278 44.2902 29.3635 44.2953L29.6809 44.2788L30.8291 44.2346H30.8622V44.2677C30.8622 44.5741 30.8815 44.9081 30.8925 45.2613V45.2641C30.8429 45.3248 30.7932 45.3883 30.7407 45.449L30.4399 45.8161H30.4233L29.8189 45.8465H29.8079L29.2945 45.2365C29.2945 44.9605 29.2945 44.7397 29.2945 44.5465C29.2767 44.4636 29.2638 44.3797 29.2559 44.2953Z" fill="white"/>
<path d="M30.8236 45.1673C30.8236 45.1673 30.8016 45.1673 30.7657 45.1425C30.7143 45.1195 30.6618 45.0992 30.6084 45.0817C30.4312 45.0199 30.2439 44.9918 30.0564 44.9989C29.8668 45.0031 29.6796 45.0424 29.5044 45.1149L29.3526 45.1866L29.2974 45.2142C29.3116 45.1993 29.3284 45.1872 29.347 45.1783C29.396 45.1486 29.4467 45.1219 29.4988 45.0983C29.6729 45.021 29.8605 44.9788 30.0508 44.9741C30.2391 44.9671 30.4268 44.9981 30.6028 45.0652C30.6561 45.0842 30.7077 45.1073 30.7574 45.1342L30.8236 45.1673Z" fill="white"/>
<path d="M30.8209 44.9273L30.7657 44.9025L30.6084 44.839C30.4308 44.7788 30.2438 44.7507 30.0564 44.7562C29.8671 44.763 29.6804 44.8022 29.5044 44.8721C29.4381 44.8997 29.3884 44.9245 29.3526 44.9439L29.2974 44.9715L29.347 44.9356C29.3955 44.9058 29.4463 44.88 29.4988 44.8583C29.6727 44.78 29.8603 44.7369 30.0508 44.7313C30.2389 44.7271 30.4261 44.758 30.6028 44.8224C30.6691 44.85 30.7215 44.8749 30.7574 44.8942C30.7933 44.9135 30.8236 44.9245 30.8209 44.9273Z" fill="white"/>
<path d="M30.8072 44.6955L30.752 44.6734C30.7134 44.6569 30.6609 44.632 30.5947 44.6099C30.4171 44.5498 30.2301 44.5218 30.0427 44.5271C29.8531 44.5309 29.6658 44.5702 29.4907 44.6431C29.4245 44.6707 29.3748 44.6955 29.3389 44.7148L29.2837 44.7424L29.3334 44.7065C29.382 44.6762 29.4327 44.6495 29.4852 44.6265C29.6597 44.5506 29.847 44.5085 30.0372 44.5023C30.2252 44.4983 30.4124 44.5292 30.5892 44.5934C30.6423 44.6137 30.6939 44.6377 30.7437 44.6651C30.7667 44.671 30.7883 44.6813 30.8072 44.6955Z" fill="white"/>
<path d="M17.4346 28.9802C17.4346 28.9802 17.487 35.1626 17.8017 37.0477L25.5545 36.6806C25.5545 36.6806 24.8728 30.6086 25.135 28.9802H17.4346Z" fill="#EBEBEB"/>
<path d="M23.9681 31.5633C23.1075 31.6907 22.2404 31.7681 21.3709 31.7952C20.5039 31.8751 19.6329 31.9018 18.7627 31.8752C19.6234 31.7494 20.4905 31.672 21.3599 31.6434C22.227 31.5667 23.0978 31.54 23.9681 31.5633Z" fill="white"/>
<path d="M23.9677 32.8717C23.1074 33.0012 22.2402 33.0796 21.3706 33.1063C20.5044 33.1829 19.6344 33.2096 18.7651 33.1863C19.6256 33.0587 20.4928 32.9813 21.3623 32.9545C22.2284 32.8762 23.0984 32.8486 23.9677 32.8717Z" fill="white"/>
<path d="M22.6513 34.1578C22.165 34.2627 21.6693 34.3182 21.1719 34.3234C20.6782 34.3737 20.1807 34.3737 19.687 34.3234C20.1724 34.2187 20.6671 34.1632 21.1636 34.1578C21.6582 34.1075 22.1566 34.1075 22.6513 34.1578Z" fill="white"/>
<path d="M17.0679 47.1548C17.0679 47.1548 17.1203 53.3344 17.435 55.2223L25.1878 54.8552C25.1878 54.8552 24.5061 48.7832 24.7683 47.1548H17.0679Z" fill="#EBEBEB"/>
<path d="M23.6005 49.7491C22.7402 49.8783 21.873 49.9566 21.0034 49.9837C20.1372 50.0603 19.2672 50.087 18.3979 50.0637C19.2575 49.9361 20.1238 49.8587 20.9923 49.8319C21.8594 49.7536 22.7303 49.726 23.6005 49.7491Z" fill="white"/>
<path d="M23.6005 51.0599C22.7401 51.1876 21.8729 51.265 21.0034 51.2917C20.1372 51.3683 19.2672 51.3951 18.3979 51.3718C19.2584 51.2442 20.1256 51.1668 20.9951 51.1399C21.8613 51.0633 22.7313 51.0366 23.6005 51.0599Z" fill="white"/>
<path d="M22.2846 52.3463C21.7992 52.4509 21.3044 52.5055 20.808 52.5091C20.3138 52.564 19.8154 52.5686 19.3203 52.5229C19.8057 52.4182 20.3004 52.3627 20.7969 52.3573C21.2911 52.3025 21.7896 52.2988 22.2846 52.3463Z" fill="white"/>
<path d="M38.2563 30.6057L39.0236 48.4353L61.2803 48.703L60.2811 30.8403L38.2563 30.6057Z" fill="#EBEBEB"/>
<path d="M60.1074 30.4788H37.9971V47.174H60.1074V30.4788Z" fill="#F5F5F5"/>
<path d="M60.1074 47.1739C60.1074 47.1739 60.1074 47.0663 60.1074 46.862C60.1074 46.6578 60.1074 46.3597 60.1074 45.9733C60.1074 45.1895 60.1074 44.0413 60.0908 42.5951C60.0908 39.6833 60.0715 35.5184 60.0577 30.4787L60.1212 30.5394H38.0136L38.0909 30.4649C38.0909 36.4679 38.0909 42.1535 38.0909 47.1601L38.0219 47.0911L53.9691 47.1242L58.5066 47.1435H59.7127H60.0246H60.1322H59.7265L58.5121 47.196L53.994 47.2153L37.986 47.2484H37.917V47.1822C37.917 42.1755 37.917 36.4899 37.917 30.4869V30.4097H37.9943H60.1019H60.1681V30.4731C60.1681 35.5267 60.1433 39.7081 60.135 42.6171C60.135 44.0661 60.135 45.2005 60.1184 45.9816C60.1184 46.3625 60.1184 46.655 60.1184 46.8593C60.1129 47.0745 60.1074 47.1739 60.1074 47.1739Z" fill="#E0E0E0"/>
<path d="M49.6272 34.0144H40.6655V45.2945H49.6272V34.0144Z" fill="#F5F5F5"/>
<path d="M49.6274 45.2944C49.6244 45.2752 49.6244 45.2556 49.6274 45.2364V45.0764C49.6274 44.9273 49.6274 44.7231 49.6274 44.4609C49.6274 43.9089 49.6274 43.1333 49.6109 42.1452C49.6109 40.1608 49.5888 37.3511 49.575 34.0143L49.644 34.0833H40.6823C40.6629 34.0833 40.8258 33.9398 40.7568 34.0088V37.0751C40.7568 38.077 40.7568 39.054 40.7568 40.0007C40.7568 41.8968 40.7568 43.6715 40.7568 45.2834L40.6961 45.2199L47.1848 45.253L49.0037 45.2696H49.4867H49.6578C49.6054 45.2734 49.5528 45.2734 49.5005 45.2696H49.0313L47.2235 45.2861L40.6961 45.3192H40.6326V45.2558C40.6326 43.6439 40.6326 41.8692 40.6326 39.9731C40.6326 39.0264 40.6326 38.0411 40.6326 37.0475V34.0198C40.5636 34.086 40.7237 33.9232 40.7099 33.9425H49.6716H49.7406V34.0115C49.7268 37.3649 49.713 40.1912 49.7047 42.1866L49.6881 44.4857C49.6881 44.7433 49.6881 44.9448 49.6881 45.0902C49.6881 45.1509 49.6881 45.2006 49.6881 45.242C49.67 45.2618 49.6497 45.2794 49.6274 45.2944Z" fill="#E0E0E0"/>
<path d="M58.1838 31.4336H41.0083V33.0592H58.1838V31.4336Z" fill="#F5F5F5"/>
<path d="M58.1835 33.0592C58.1835 33.0592 58.1835 33.0178 58.1835 32.9488C58.1835 32.8798 58.1835 32.7638 58.1835 32.6314C58.1835 32.3554 58.1835 31.9496 58.1641 31.4335L58.1945 31.4639C55.2993 31.4915 48.6973 31.5108 41.019 31.5108C41.1708 31.3562 41.0604 31.4666 41.0963 31.4335V33.0536L41.0218 32.9764L53.1961 33.0095L56.8504 33.0316H57.844H58.1062C58.1365 33.0293 58.1669 33.0293 58.1973 33.0316H58.1172H57.8661H56.889L53.2513 33.0564L41.0218 33.0868H40.9473V33.0122C40.9473 32.7528 40.9473 32.4851 40.9473 32.2146V31.3866L41.0245 31.3093C48.7029 31.3093 55.3048 31.3286 58.2 31.3562H58.2331V31.3866C58.2331 31.9082 58.2331 32.3167 58.2166 32.6038C58.2166 32.7335 58.2166 32.8328 58.2166 32.9101C58.2143 32.9614 58.2031 33.0118 58.1835 33.0592Z" fill="#E0E0E0"/>
<path d="M58.1834 34.0144H50.7231V40.8123H58.1834V34.0144Z" fill="#F5F5F5"/>
<path d="M58.1837 40.8122C58.1837 40.8122 58.1837 40.7652 58.1837 40.6824V40.3126C58.1837 39.9814 58.1837 39.515 58.1672 38.9326C58.1672 37.7348 58.1479 36.0484 58.1341 34.0198L58.1975 34.086H50.7455L50.8201 34.0115V35.8359C50.8201 36.432 50.8201 37.0172 50.8201 37.5885C50.8201 38.7284 50.8201 39.7965 50.8201 40.8066L50.7511 40.7404L56.1331 40.7735L57.6593 40.7928H58.0678C58.1156 40.7888 58.1636 40.7888 58.2113 40.7928C58.1682 40.7968 58.1248 40.7968 58.0816 40.7928H57.6869L56.1772 40.8094L50.7511 40.8425H50.6848V40.7735C50.6848 39.7772 50.6848 38.6952 50.6848 37.5554C50.6848 36.984 50.6848 36.3989 50.6848 35.8028V33.9784C50.6158 34.0446 50.7759 33.8846 50.7621 33.9011H58.2141H58.2803V33.9646C58.2665 36.0098 58.2555 37.7127 58.2472 38.9326C58.2472 39.5122 58.2334 39.9731 58.2307 40.3126C58.2307 40.458 58.2307 40.5766 58.2307 40.6686C58.2217 40.7184 58.2059 40.7667 58.1837 40.8122Z" fill="#E0E0E0"/>
<path d="M58.1834 41.8774H50.7231V45.2943H58.1834V41.8774Z" fill="#F5F5F5"/>
<path d="M58.1834 45.2945C58.1834 45.2945 58.1834 45.2062 58.1834 45.0461L58.1696 44.3616C58.1696 43.7572 58.153 42.9154 58.1392 41.8776L58.1944 41.9328L50.7424 41.9549C50.6734 42.0239 50.8335 41.861 50.8169 41.8804V43.6385C50.8169 44.2098 50.8169 44.7646 50.8169 45.2945L50.7424 45.2227L56.0775 45.2558L57.6341 45.2779H58.0536H58.2027C58.1586 45.282 58.1143 45.282 58.0702 45.2779H57.6645L56.1272 45.3L50.7424 45.3331H50.6706V45.2614C50.6706 44.7314 50.6706 44.1767 50.6706 43.6054V41.8472C50.6541 41.8472 50.8142 41.701 50.7479 41.77L58.1999 41.7893H58.2358V41.8445C58.2358 42.896 58.2137 43.7516 58.2082 44.3616C58.2082 44.6376 58.2082 44.8667 58.2082 45.035C58.2083 45.1221 58.2 45.209 58.1834 45.2945Z" fill="#E0E0E0"/>
<path d="M49.404 34.0337C46.6274 37.8673 43.4369 41.4609 40.6631 45.2945L49.404 34.0337Z" fill="white"/>
<path d="M40.6655 45.2944C40.6655 45.2944 40.6849 45.2475 40.7373 45.1674L40.9719 44.8252C41.1761 44.5271 41.4825 44.1048 41.8689 43.5887C42.6389 42.5509 43.7402 41.1489 44.9767 39.6171C46.2131 38.0853 47.3254 36.6942 48.1148 35.6758L49.0504 34.4697L49.3071 34.1412C49.3678 34.0695 49.4009 34.0308 49.4064 34.0336C49.3864 34.0786 49.3614 34.1212 49.3319 34.1605L49.0973 34.5028C48.8931 34.8009 48.5867 35.2231 48.2003 35.742C47.4303 36.777 46.329 38.1791 45.0926 39.7109C43.8561 41.2427 42.7466 42.6337 41.9544 43.6522L41.0188 44.8611L40.7621 45.1867C40.7342 45.2263 40.7018 45.2624 40.6655 45.2944Z" fill="#E0E0E0"/>
<path d="M49.6277 45.2943C49.5945 45.3191 47.5604 42.8103 45.0875 39.7025C42.6145 36.5947 40.6328 34.0417 40.6715 34.0141C40.7101 33.9865 42.7359 36.4981 45.2117 39.6087C47.6874 42.7192 49.6608 45.2639 49.6277 45.2943Z" fill="#E0E0E0"/>
<path d="M39.0239 34.0393C39.0239 34.3166 38.9417 34.5877 38.7876 34.8182C38.6335 35.0488 38.4146 35.2285 38.1584 35.3346C37.9022 35.4408 37.6203 35.4685 37.3483 35.4144C37.0763 35.3603 36.8265 35.2268 36.6304 35.0307C36.4343 34.8346 36.3008 34.5848 36.2467 34.3128C36.1926 34.0408 36.2203 33.7589 36.3265 33.5027C36.4326 33.2465 36.6123 33.0276 36.8429 32.8735C37.0734 32.7194 37.3445 32.6372 37.6218 32.6372C37.9934 32.6379 38.3496 32.7859 38.6124 33.0487C38.8752 33.3115 39.0232 33.6677 39.0239 34.0393Z" fill="#E0E0E0"/>
<path d="M61.9565 30.6362C61.9565 30.9135 61.8743 31.1846 61.7202 31.4152C61.5661 31.6457 61.3472 31.8254 61.091 31.9316C60.8348 32.0377 60.5529 32.0655 60.2809 32.0114C60.0089 31.9573 59.7591 31.8237 59.563 31.6276C59.3669 31.4315 59.2334 31.1817 59.1793 30.9097C59.1252 30.6378 59.153 30.3559 59.2591 30.0997C59.3652 29.8435 59.5449 29.6245 59.7755 29.4704C60.006 29.3164 60.2771 29.2341 60.5544 29.2341C60.9261 29.2349 61.2823 29.3828 61.545 29.6456C61.8078 29.9084 61.9558 30.2646 61.9565 30.6362Z" fill="#E0E0E0"/>
<path d="M116.803 40.4009H100.646V63.8222H116.803V40.4009Z" fill="#E0E0E0"/>
<path d="M115.994 40.4009H99.8374V63.8222H115.994V40.4009Z" fill="#F5F5F5"/>
<path d="M113.988 42.9375H101.844V61.286H113.988V42.9375Z" fill="white"/>
<path d="M113.988 61.2859C113.988 61.2859 113.988 61.2528 113.988 61.1949C113.988 61.1369 113.988 61.0486 113.988 60.9354C113.988 60.7036 113.988 60.3669 113.988 59.928C113.988 59.0503 113.988 57.7669 113.988 56.1496C113.988 52.9149 113.988 48.3333 113.969 42.9375L114.01 42.9789H101.844L101.888 42.9347C101.888 49.8568 101.888 56.2379 101.888 61.2832L101.852 61.2473L110.684 61.2666H113.127H113.767H113.991H113.776H113.141H110.707L101.847 61.2832H101.811V61.2501C101.811 56.2048 101.811 49.8237 101.811 42.9016V42.8574H101.844H113.988H114.027V42.8961C114.027 48.3029 114.013 52.8928 114.007 56.1441C114.007 57.7587 114.007 59.0365 114.007 59.9142C114.007 60.3475 114.007 60.6815 114.007 60.9106C114.007 61.0237 114.007 61.1065 114.007 61.1673L113.988 61.2859Z" fill="#E0E0E0"/>
<path d="M116.039 40.4009C115.961 40.5495 115.868 40.69 115.763 40.8204C115.575 41.0716 115.307 41.411 115.004 41.7809C114.7 42.1507 114.416 42.4764 114.206 42.711C114.099 42.8424 113.98 42.9634 113.85 43.0726C113.942 42.9302 114.046 42.7954 114.159 42.6696L114.938 41.7257L115.713 40.7818C115.812 40.647 115.921 40.5197 116.039 40.4009Z" fill="#E0E0E0"/>
<path d="M114.049 61.2251C114.652 62.1857 115.362 63.0747 116.166 63.8747L114.049 61.2251Z" fill="white"/>
<path d="M116.166 63.8747C116.031 63.7763 115.908 63.6634 115.799 63.538C115.516 63.2521 115.249 62.9518 114.998 62.6382C114.747 62.3246 114.512 61.9985 114.294 61.6612C114.197 61.525 114.115 61.3788 114.049 61.2251C114.157 61.3514 114.257 61.4851 114.347 61.6253C114.524 61.8765 114.775 62.2159 115.067 62.583C115.36 62.9501 115.639 63.2675 115.843 63.4966C115.96 63.614 116.068 63.7404 116.166 63.8747Z" fill="#E0E0E0"/>
<path d="M99.835 63.8029L101.952 61.1919L99.835 63.8029Z" fill="white"/>
<path d="M101.952 61.1919C101.968 61.1919 101.51 61.8046 100.928 62.525C100.583 62.9701 100.214 63.3967 99.8237 63.8029C100.483 62.896 101.19 62.0245 101.941 61.1919H101.952Z" fill="#E0E0E0"/>
<path d="M99.8374 40.4009C100.2 40.7928 100.543 41.2027 100.864 41.6291C101.207 42.0389 101.527 42.4673 101.822 42.9125C101.458 42.5187 101.115 42.106 100.795 41.676C100.452 41.2697 100.132 40.844 99.8374 40.4009Z" fill="#E0E0E0"/>
<path d="M110.204 46.6636H106.139V58.2087H110.204V46.6636Z" fill="#E0E0E0"/>
<path d="M113.079 15.5146L110.767 15.5271L110.829 27.0361L113.142 27.0236L113.079 15.5146Z" fill="#E0E0E0"/>
<path d="M96.7186 15.5452L90.7295 15.5776L90.7639 21.9311L96.753 21.8987L96.7186 15.5452Z" fill="#EBEBEB"/>
<path d="M102.678 15.5157L96.6885 15.5481L96.7229 21.9015L102.712 21.8691L102.678 15.5157Z" fill="#F5F5F5"/>
<path d="M90.7378 17.3385C94.7177 17.3717 98.7087 17.3385 102.689 17.2833C102.705 17.2833 102.722 17.2767 102.734 17.2648C102.745 17.2528 102.752 17.2367 102.752 17.2199C102.752 17.203 102.745 17.1869 102.734 17.175C102.722 17.1631 102.705 17.1564 102.689 17.1564C98.705 17.1343 94.7214 17.1582 90.7378 17.2281C90.7232 17.2281 90.7091 17.234 90.6988 17.2443C90.6884 17.2547 90.6826 17.2687 90.6826 17.2833C90.6826 17.298 90.6884 17.312 90.6988 17.3224C90.7091 17.3327 90.7232 17.3385 90.7378 17.3385Z" fill="#E0E0E0"/>
<path d="M97.8757 21.7956L86.9932 21.8545L87.0212 27.0322L97.9037 26.9733L97.8757 21.7956Z" fill="#EBEBEB"/>
<path d="M108.709 21.7373L97.8262 21.7961L97.8542 26.9738L108.737 26.9149L108.709 21.7373Z" fill="#F5F5F5"/>
<path d="M87.0005 23.2973C94.2317 23.3801 101.485 23.2973 108.713 23.1897C108.73 23.1897 108.746 23.183 108.758 23.1711C108.77 23.1592 108.777 23.143 108.777 23.1262C108.777 23.1094 108.77 23.0932 108.758 23.0813C108.746 23.0694 108.73 23.0627 108.713 23.0627C101.482 23.0241 94.229 23.0296 87.0005 23.1869C86.9859 23.1869 86.9718 23.1927 86.9615 23.2031C86.9511 23.2135 86.9453 23.2275 86.9453 23.2421C86.9453 23.2568 86.9511 23.2708 86.9615 23.2812C86.9718 23.2915 86.9859 23.2973 87.0005 23.2973Z" fill="#E0E0E0"/>
<path d="M125.094 27.0342H82.9321V28.8889H125.094V27.0342Z" fill="#E0E0E0"/>
<path d="M91.5462 27.9258H89.835V34.2545H91.5462V27.9258Z" fill="#E0E0E0"/>
<path d="M117.096 27.9258H115.385V34.2545H117.096V27.9258Z" fill="#E0E0E0"/>
<path d="M115.336 11.2243L113.023 11.2368L113.109 27.0652L115.421 27.0527L115.336 11.2243Z" fill="#EBEBEB"/>
<path d="M118.951 14.1717L115.357 14.1912L115.427 27.0195L119.02 27L118.951 14.1717Z" fill="#F5F5F5"/>
<path d="M118.925 16.6457C117.731 16.7301 116.532 16.7301 115.337 16.6457C116.532 16.565 117.731 16.565 118.925 16.6457Z" fill="#E0E0E0"/>
<path d="M118.925 16.1074C117.731 16.1918 116.532 16.1918 115.337 16.1074C116.532 16.0267 117.731 16.0267 118.925 16.1074Z" fill="#E0E0E0"/>
<path d="M118.925 25.072C117.731 25.1564 116.532 25.1564 115.337 25.072C116.532 24.9913 117.731 24.9913 118.925 25.072Z" fill="#E0E0E0"/>
<path d="M118.925 24.5337C117.731 24.6181 116.532 24.6181 115.337 24.5337C116.532 24.453 117.731 24.453 118.925 24.5337Z" fill="#E0E0E0"/>
<path d="M117.187 23.3581C117.151 23.3581 117.123 22.0636 117.123 20.4683C117.123 18.8731 117.151 17.5786 117.187 17.5786C117.222 17.5786 117.247 18.8731 117.247 20.4683C117.247 22.0636 117.22 23.3581 117.187 23.3581Z" fill="#E0E0E0"/>
<path d="M122.875 17.3247H118.964V27.0068H122.875V17.3247Z" fill="#EBEBEB"/>
<path d="M121.031 24.498C120.915 24.5047 120.798 24.4869 120.689 24.4455C120.58 24.4041 120.481 24.3401 120.399 24.2578C120.316 24.1754 120.252 24.0766 120.21 23.9677C120.168 23.8588 120.15 23.7423 120.157 23.6258C120.15 23.4989 120.176 23.3724 120.231 23.2581C120.287 23.1438 120.37 23.0453 120.474 22.9717L120.562 23.0959C120.479 23.1564 120.413 23.2364 120.368 23.3288C120.323 23.4212 120.302 23.5232 120.306 23.6258C120.306 23.8183 120.382 24.0029 120.518 24.1391C120.654 24.2752 120.839 24.3517 121.031 24.3517C121.224 24.3517 121.409 24.2752 121.545 24.1391C121.681 24.0029 121.757 23.8183 121.757 23.6258C121.761 23.5229 121.74 23.4206 121.695 23.3281C121.649 23.2356 121.582 23.1558 121.498 23.0959L121.589 22.9717C121.691 23.0463 121.774 23.145 121.829 23.2592C121.883 23.3733 121.909 23.4993 121.904 23.6258C121.91 23.742 121.892 23.8583 121.85 23.967C121.809 24.0757 121.745 24.1744 121.662 24.2567C121.58 24.339 121.481 24.403 121.373 24.4446C121.264 24.4862 121.148 24.5043 121.031 24.498Z" fill="#FAFAFA"/>
<path d="M121.683 22.7315L121.553 22.657C121.689 22.4785 121.761 22.2602 121.76 22.036C121.76 21.6744 121.63 21.5281 121.437 21.5281C120.935 21.5281 121.305 22.6708 120.628 22.6708C120.369 22.6708 120.156 22.4527 120.156 22.0167C120.153 21.8075 120.212 21.602 120.325 21.426L120.457 21.5033C120.353 21.6551 120.299 21.8355 120.303 22.0194C120.303 22.3561 120.441 22.5052 120.626 22.5052C121.142 22.5052 120.777 21.3625 121.434 21.3625C121.71 21.3625 121.903 21.6054 121.903 22.0443C121.912 22.292 121.834 22.535 121.683 22.7315Z" fill="#FAFAFA"/>
<path d="M121.683 21.1556L121.553 21.0811C121.689 20.9026 121.761 20.6842 121.76 20.4601C121.76 20.0985 121.63 19.9522 121.437 19.9522C120.935 19.9522 121.305 21.0921 120.628 21.0921C120.369 21.0921 120.156 20.8768 120.156 20.4407C120.153 20.2316 120.212 20.026 120.325 19.8501L120.457 19.9246C120.353 20.0775 120.3 20.2587 120.303 20.4435C120.303 20.7802 120.441 20.9293 120.626 20.9293C121.142 20.9293 120.777 19.7866 121.434 19.7866C121.71 19.7866 121.903 20.0267 121.903 20.4656C121.912 20.7142 121.834 20.9582 121.683 21.1556Z" fill="#FAFAFA"/>
<path d="M114.145 14.5977C114.512 14.5977 114.81 14.2999 114.81 13.9325C114.81 13.5651 114.512 13.2673 114.145 13.2673C113.778 13.2673 113.48 13.5651 113.48 13.9325C113.48 14.2999 113.778 14.5977 114.145 14.5977Z" fill="#E0E0E0"/>
<path d="M114.35 15.7595H113.938V25.1766H114.35V15.7595Z" fill="#E0E0E0"/>
<path d="M129.944 125.304C129.944 125.343 103.285 125.376 70.4077 125.376C37.5306 125.376 10.8662 125.348 10.8662 125.304C10.8662 125.26 37.5195 125.232 70.4077 125.232C103.296 125.232 129.944 125.271 129.944 125.304Z" fill="#263238"/>
<path d="M43.106 30.4261C38.6762 37.3923 38.966 47.0523 43.807 53.7398C47.0334 58.2 51.8717 61.1918 55.7136 65.1276C59.5556 69.0633 62.4756 74.8731 60.447 79.9902C58.3826 85.1983 52.3354 87.3152 47.809 90.6162C42.8149 94.2536 39.4246 99.6846 38.35 105.769C37.2754 111.853 38.6002 118.117 42.0461 123.245H89.082C89.082 123.245 97.3455 107.499 86.7222 95.4959C76.099 83.4926 70.3941 83.2994 70.786 75.4279C71.1779 67.5564 76.6869 65.0034 79.836 62.0502C82.9852 59.097 98.328 52.2163 89.278 30.4233L43.106 30.4261Z" fill="#FAFAFA"/>
<path d="M43.1058 30.4262H43.9145H46.2991H55.4789L89.2778 30.4014H89.3137V30.4345C90.0065 32.0846 90.5965 33.776 91.0801 35.4991C91.588 37.3031 91.9226 39.1515 92.0792 41.0191C92.242 42.9713 92.1418 44.9365 91.7812 46.862C91.385 48.858 90.6673 50.7763 89.656 52.5421C89.1319 53.4427 88.5396 54.3017 87.884 55.1116C87.2149 55.9324 86.4911 56.707 85.7174 57.43C84.9339 58.1663 84.1131 58.8618 83.2583 59.5138C82.4027 60.1762 81.5084 60.8 80.6363 61.4624C80.2002 61.7908 79.8083 62.1607 79.3832 62.5305C78.9582 62.9004 78.5359 63.2454 78.0998 63.5931C77.2304 64.2886 76.3528 64.9731 75.5248 65.7432C73.7966 67.2411 72.4686 69.1457 71.6608 71.2852C71.2726 72.3826 71.0276 73.5255 70.9321 74.6856C70.9073 74.9616 70.8686 75.2652 70.8576 75.5577C70.8466 75.8503 70.8355 76.1428 70.8576 76.4354C70.8639 77.0228 70.923 77.6084 71.0342 78.1852C71.2531 79.354 71.7302 80.4592 72.4308 81.42C73.1517 82.3806 73.9683 83.2655 74.8679 84.0613C76.6536 85.6924 78.5497 87.2519 80.363 88.9355C82.1764 90.619 83.951 92.3744 85.6622 94.2319C86.5353 95.1513 87.352 96.1228 88.1076 97.1409C88.8678 98.1718 89.5286 99.2725 90.081 100.428C91.198 102.77 91.8842 105.295 92.1068 107.88C92.3319 110.501 92.1776 113.141 91.6487 115.718C91.3916 117.021 91.0542 118.305 90.6385 119.566C90.2299 120.837 89.7319 122.077 89.1481 123.278L89.1288 123.317H42.0073L41.988 123.286C39.7823 119.965 38.4295 116.152 38.0495 112.183C37.6672 108.371 38.2263 104.523 39.6779 100.977C41.0575 97.5881 43.1817 94.5527 45.8934 92.0956C47.2093 90.934 48.6304 89.8973 50.1383 88.9989C51.6066 88.0881 53.0887 87.2436 54.488 86.3217C55.8887 85.4462 57.1755 84.4005 58.3189 83.2085C59.4109 82.0378 60.2209 80.6331 60.687 79.1016C61.0955 77.6073 61.1597 76.0398 60.8747 74.5172C60.6024 73.0478 60.1121 71.6273 59.4202 70.3027C58.7583 69.0272 57.9646 67.8247 57.0521 66.7147C56.1713 65.6498 55.2137 64.6508 54.1872 63.7256C52.1972 61.893 50.1576 60.2894 48.325 58.6417C47.4059 57.8137 46.5365 56.9857 45.7333 56.1384C44.9549 55.3088 44.2373 54.4243 43.586 53.4915C42.4088 51.7809 41.5012 49.8997 40.895 47.9136C40.3641 46.1984 40.0561 44.422 39.9787 42.6282C39.9401 42.2197 39.9566 41.8167 39.9566 41.422C39.9566 41.0274 39.9566 40.6437 39.9925 40.2711C40.0284 39.8985 40.0477 39.5342 40.0753 39.1671C40.1029 38.8 40.1774 38.4716 40.2244 38.1376C40.5293 36.1046 41.1514 34.1321 42.068 32.292C42.1922 32.0073 42.3341 31.7308 42.4931 31.464L42.8326 30.8871C43.012 30.5808 43.1086 30.4262 43.1086 30.4262L42.8326 30.8954L42.5041 31.464C42.349 31.7319 42.2089 32.0084 42.0846 32.292C41.1763 34.1365 40.5617 36.1117 40.263 38.1459C40.2161 38.4771 40.1609 38.8194 40.1195 39.1699C40.0781 39.5204 40.0643 39.8875 40.0367 40.2601C40.0091 40.6327 40.0091 41.0163 40.0063 41.4082C40.0036 41.8002 39.9925 42.2031 40.0312 42.6116C40.111 44.3995 40.4218 46.1695 40.9558 47.8777C41.5612 49.8567 42.4679 51.7307 43.644 53.4336C44.2936 54.3624 45.0103 55.2425 45.7885 56.0666C46.5889 56.9167 47.4583 57.7447 48.3774 58.5506C50.21 60.2066 52.2414 61.7936 54.2452 63.629C55.2797 64.5609 56.2446 65.5673 57.1321 66.6402C58.0497 67.7582 58.848 68.9691 59.514 70.253C60.2126 71.5858 60.7075 73.0157 60.9823 74.4951C61.2714 76.0341 61.2072 77.6186 60.7946 79.1292C60.3264 80.6785 59.5087 82.0996 58.4045 83.283C57.2554 84.4819 55.9632 85.5349 54.557 86.4183C53.1522 87.3429 51.6701 88.1875 50.2045 89.0983C48.703 89.9943 47.2875 91.0273 45.9762 92.184C43.2812 94.6283 41.1694 97.6465 39.7966 101.016C38.3538 104.544 37.7993 108.372 38.182 112.164C38.562 116.11 39.908 119.901 42.1012 123.204L42.046 123.173H89.0819L89.0184 123.212C89.6012 122.014 90.0974 120.776 90.5033 119.508C90.9168 118.253 91.2523 116.974 91.5079 115.677C92.0345 113.113 92.1879 110.486 91.9633 107.877C91.745 105.306 91.0634 102.795 89.9513 100.467C89.4027 99.3195 88.7476 98.2263 87.9944 97.2016C87.2405 96.1887 86.4277 95.2211 85.5601 94.3036C83.8581 92.4508 82.0945 90.688 80.2692 89.0155C78.4586 87.3346 76.568 85.778 74.7768 84.1386C73.8701 83.3362 73.0462 82.4449 72.3176 81.4779C71.6034 80.5055 71.1141 79.3865 70.8852 78.2018C70.7747 77.6165 70.7147 77.0227 70.7058 76.4271C70.692 76.1318 70.7058 75.8365 70.7058 75.5412C70.7058 75.2458 70.7555 74.9533 70.7776 74.6607C70.8789 73.4937 71.1293 72.3445 71.5228 71.2411C72.3376 69.0827 73.678 67.1617 75.4226 65.6521C76.2506 64.8848 77.1366 64.1893 78.006 63.4965C78.4421 63.1488 78.8699 62.7982 79.2866 62.4394C79.7034 62.0806 80.1146 61.6942 80.5452 61.363C81.4229 60.7006 82.3144 60.0769 83.1672 59.4172C84.0195 58.7681 84.8384 58.0763 85.6208 57.3445C86.3894 56.6247 87.1095 55.8548 87.7764 55.0399C88.4267 54.2328 89.0162 53.3785 89.54 52.4841C90.5457 50.7306 91.2597 48.8253 91.6542 46.8427C92.0132 44.9328 92.1143 42.9834 91.955 41.0467C91.8008 39.1794 91.469 37.331 90.9642 35.5267C90.4873 33.7989 89.9047 32.102 89.2199 30.4455L89.2668 30.4759L55.4872 30.451H46.3019H43.9117L43.1058 30.4262Z" fill="#263238"/>
<path d="M87.401 43.2023C94.3286 44.3422 83.4073 56.6131 77.2221 61.4542C73.6341 64.2556 69.7977 67.2971 68.0976 71.5144C66.1656 76.3002 67.598 81.6767 66.6651 86.4901C66.6351 86.6561 66.5433 86.8046 66.4083 86.9057C66.2733 87.0068 66.1051 87.0531 65.9373 87.0353C65.7696 87.0175 65.6148 86.9369 65.5041 86.8096C65.3933 86.6824 65.3348 86.518 65.3403 86.3494C65.3845 83.1892 65.3017 80.0317 64.7883 76.9212C64.0459 72.5052 62.3512 68.1472 59.2683 64.9152C56.7429 62.2739 53.4337 60.5213 50.7427 58.0538C46.8124 54.452 42.7746 49.807 42.3799 44.4912C42.3799 44.4912 49.9257 38.4192 54.1154 39.1782C59.0116 40.0752 63.8306 47.6293 71.4151 46.7654C76.6922 46.161 79.3666 41.883 87.401 43.2023Z" fill="#368ECD"/>
<path d="M88.0162 108.876C87.8423 107.143 87.3786 105.183 85.8413 104.367C84.9112 103.87 83.7768 103.925 82.7556 104.193C81.7344 104.46 80.7767 104.927 79.7665 105.228C77.7584 105.818 75.6139 105.749 73.6476 105.032C71.7681 104.342 70.1562 103.1 68.4036 102.112C66.651 101.124 64.6169 100.4 62.6739 100.883C59.3232 101.711 57.5789 105.752 54.2669 106.726C52.7931 107.157 51.2116 106.914 49.7157 106.577C48.2197 106.241 46.7155 105.802 45.1837 105.86C43.9804 105.904 42.7301 106.321 41.8883 107.143L41.8662 107.168C41.7261 107.305 41.5986 107.455 41.4853 107.615C40.4586 108.995 40.293 110.825 40.6104 112.497C40.9637 114.372 41.8386 116.102 42.777 117.761C43.881 119.715 45.1396 121.658 46.9667 122.961C49.2244 124.57 52.0589 123.46 54.8217 123.678C61.2607 124.186 68.1883 124.531 74.6302 124.034C78.0333 123.758 81.2211 124.139 83.9203 122.05C85.8192 120.582 87.0557 118.368 87.6519 116.044C88.248 113.72 88.2563 111.264 88.0162 108.876Z" fill="#368ECD"/>
<g opacity="0.24">
<path d="M75.8613 105.559C75.4997 106.111 75.3424 106.862 75.6929 107.425C76.0434 107.988 76.5209 108.504 76.6699 109.152C76.9101 110.168 76.2973 111.162 75.8419 112.103C74.999 113.786 74.6808 115.683 74.9284 117.548C75.1895 119.42 76.1561 121.121 77.6304 122.304C78.2845 122.809 79.1346 123.201 79.924 122.952C80.6664 122.721 81.1439 121.967 81.304 121.203C81.4641 120.438 81.3288 119.651 81.2322 118.881C80.7827 115.293 80.8758 111.656 81.5082 108.095C81.6131 107.502 81.7125 106.823 81.3371 106.351C81.0663 106.076 80.7225 105.885 80.3463 105.799C78.9111 105.321 77.3627 105.851 75.8751 105.57" fill="black"/>
</g>
<path d="M38.5932 125.381C38.5932 125.381 38.4635 123.223 41.2787 122.02H90.7517C90.7517 122.02 93.3323 123.328 93.6497 125.332L38.5932 125.381Z" fill="#263238"/>
<path d="M89.7003 30.6884L89.6203 30.7243L43.1005 30.4262C43.1005 30.4262 42.9349 30.3213 42.6892 30.1254C42.3992 29.8982 42.1876 29.5859 42.0842 29.2323C41.9807 28.8788 41.9906 28.5017 42.1123 28.154C42.2341 27.8063 42.4617 27.5055 42.7632 27.2938C43.0646 27.0821 43.4248 26.97 43.7932 26.9735L88.9468 27.3378C90.8043 27.3543 91.3894 29.8935 89.7003 30.6884Z" fill="#263238"/>
<g opacity="0.24">
<path d="M82.248 48.4351C82.3418 48.6145 81.9913 48.9871 81.3261 49.5943C80.661 50.2015 79.6701 50.9991 78.4392 52.001C76.9612 53.2221 75.3927 54.3293 73.7472 55.313C72.725 55.9049 71.6494 56.3993 70.5345 56.7896C69.9304 56.9984 69.3137 57.169 68.6881 57.3002C68.0309 57.4398 67.3636 57.5265 66.6926 57.5597C65.3329 57.6336 63.9715 57.4463 62.6823 57.0077C61.5425 56.5931 60.4595 56.0367 59.4587 55.3517C58.5313 54.7389 57.7337 54.1317 56.9747 53.5494C56.2157 52.967 55.5395 52.4067 54.9267 51.8768C52.4841 49.7599 51.198 48.2033 51.4464 47.9024C51.6948 47.6016 53.4336 48.5814 56.1384 50.2374L58.3464 51.5898C59.1385 52.07 59.9858 52.6027 60.8525 53.094C61.7124 53.5988 62.6238 54.0105 63.5711 54.3222C64.5403 54.6124 65.5527 54.732 66.5629 54.6755C68.6826 54.5651 70.7388 53.8199 72.519 52.9587C74.2992 52.0976 75.911 51.093 77.3076 50.3091C78.4128 49.6569 79.5683 49.0939 80.7631 48.6255C81.638 48.3192 82.1679 48.2612 82.248 48.4351Z" fill="black"/>
</g>
<path d="M65.3732 92.2557C65.5687 92.1779 65.7871 92.1802 65.9809 92.2622C66.1747 92.3442 66.3285 92.4993 66.4088 92.6938C66.4892 92.8883 66.4897 93.1066 66.4102 93.3015C66.3308 93.4964 66.1778 93.6522 65.9843 93.7351C65.7909 93.818 65.5726 93.8213 65.3767 93.7445C65.1808 93.6676 65.023 93.5166 64.9376 93.3243C64.8521 93.132 64.8459 92.9137 64.9202 92.7168C64.9945 92.5199 65.1433 92.3602 65.3345 92.2722" fill="#368ECD"/>
<path d="M48.7362 56.1329C48.6757 56.0833 48.6202 56.0278 48.5706 55.9673L48.1207 55.4761C47.9303 55.258 47.6791 55.0041 47.4224 54.6812L46.5447 53.5772C46.2439 53.1521 45.9044 52.694 45.5622 52.1972L45.0571 51.394C44.9715 51.256 44.8805 51.118 44.7977 50.9717L44.5548 50.5246C43.8202 49.2228 43.2448 47.8375 42.8408 46.3984C42.4349 44.9605 42.2159 43.4763 42.1895 41.9824C42.1895 41.6374 42.2088 41.3035 42.2143 40.975C42.2143 40.8122 42.2143 40.6521 42.2364 40.4948C42.2585 40.3375 42.2695 40.1829 42.2861 40.0311C42.3219 39.7275 42.344 39.4322 42.3854 39.1507C42.4268 38.8691 42.4848 38.5987 42.5317 38.3475C42.609 37.8314 42.747 37.3815 42.8436 36.9675C42.896 36.7688 42.9374 36.5811 42.9899 36.4155L43.1417 35.9546L43.3542 35.3225C43.3745 35.2473 43.4022 35.1742 43.437 35.1045C43.4256 35.1815 43.4071 35.2572 43.3818 35.3308C43.3349 35.4909 43.2741 35.7034 43.1941 35.9711L43.0561 36.4321C43.0092 36.6004 42.9705 36.7881 42.9209 36.9841C42.8325 37.3843 42.7028 37.8369 42.6449 38.3641C42.6007 38.618 42.5565 38.8857 42.5096 39.1644C42.4627 39.4432 42.4517 39.7358 42.4185 40.0394C42.4185 40.1912 42.3882 40.343 42.3716 40.5003C42.3551 40.6576 42.3716 40.8177 42.3551 40.9778C42.3551 41.3035 42.333 41.6347 42.3357 41.9769C42.3627 43.462 42.5788 44.9376 42.9788 46.3681C43.3806 47.7966 43.9485 49.1731 44.6707 50.4694C44.7507 50.6185 44.8308 50.7675 44.9081 50.9165C44.9853 51.0656 45.0819 51.1925 45.1647 51.3361L45.6615 52.1392C45.9983 52.6471 46.3322 53.1052 46.6248 53.5192L47.4859 54.6232C47.7343 54.9517 47.9799 55.2083 48.1621 55.4347L48.5927 55.9452C48.6444 56.0047 48.6923 56.0674 48.7362 56.1329Z" fill="#263238"/>
<path d="M46.1167 97.1353C46.1304 97.1035 46.147 97.073 46.1664 97.0443L46.332 96.7848C46.4065 96.6689 46.4976 96.5309 46.608 96.3653L46.7819 96.0893C46.8509 95.9982 46.9309 95.9071 47.0109 95.8133L47.5629 95.1509C47.7755 94.9218 48.0183 94.6845 48.275 94.425C48.8702 93.852 49.5027 93.319 50.1684 92.8297C51.6339 91.7257 53.5245 90.6217 55.5725 89.3273C56.6493 88.6637 57.6844 87.9346 58.6719 87.1441C59.7313 86.3003 60.6669 85.3117 61.4513 84.2075C62.8869 82.0018 63.6669 79.4339 63.7007 76.8024C63.7356 74.6576 63.3764 72.5246 62.6408 70.5096C62.1536 69.1498 61.542 67.8379 60.8137 66.5904C60.557 66.1461 60.3473 65.8093 60.2037 65.5803L60.0409 65.3208C60.005 65.2629 59.9885 65.2297 59.9885 65.2297C60.0131 65.2545 60.0344 65.2823 60.0519 65.3125L60.2286 65.5665C60.3804 65.7873 60.5984 66.1185 60.8606 66.5628C61.6114 67.8035 62.24 69.1143 62.7374 70.4765C63.4928 72.4999 63.8671 74.6456 63.8414 76.8052C63.8297 77.4278 63.779 78.0491 63.6896 78.6654C63.6002 79.31 63.4646 79.9474 63.2839 80.5726C62.9069 81.8964 62.3208 83.1514 61.5479 84.2903C60.7555 85.4065 59.8096 86.4054 58.7382 87.2573C57.7448 88.0485 56.7042 88.7784 55.6221 89.4432C53.5659 90.7266 51.6726 91.8196 50.207 92.9153C49.5415 93.3981 48.9072 93.9226 48.3081 94.4857C48.0515 94.7424 47.8058 94.9743 47.5905 95.2006L47.0385 95.8492C46.9557 95.9485 46.8757 96.0396 46.8067 96.1252L46.6273 96.3874L46.3513 96.7986L46.1747 97.0498C46.1577 97.0798 46.1383 97.1084 46.1167 97.1353Z" fill="#263238"/>
<path d="M43.5498 102.012C43.5331 102.057 43.5128 102.101 43.4891 102.142L43.2904 102.493C43.202 102.642 43.0972 102.829 42.9895 103.045C42.8819 103.26 42.7439 103.514 42.628 103.804C42.5672 103.947 42.501 104.096 42.4348 104.251C42.3685 104.405 42.3133 104.576 42.2471 104.748C42.1146 105.09 42.0097 105.465 41.8883 105.852C41.4082 107.582 41.2427 109.384 41.3998 111.173C41.4467 111.581 41.4798 111.973 41.5516 112.332C41.5819 112.511 41.6068 112.688 41.6426 112.854C41.6785 113.019 41.7172 113.179 41.753 113.331C41.8138 113.637 41.9048 113.905 41.9711 114.143C42.0373 114.38 42.1036 114.584 42.1643 114.75L42.294 115.131C42.3126 115.174 42.3247 115.219 42.3299 115.266C42.3033 115.227 42.2819 115.186 42.2664 115.142C42.225 115.04 42.1753 114.918 42.1118 114.769C42.0284 114.573 41.9556 114.372 41.8938 114.167C41.8193 113.93 41.7227 113.662 41.6537 113.356C41.615 113.204 41.5764 113.044 41.535 112.878C41.4936 112.713 41.4688 112.533 41.4329 112.354C41.3556 111.99 41.317 111.598 41.2673 111.187C41.0945 109.387 41.2611 107.571 41.7586 105.832C41.8828 105.435 41.9932 105.057 42.1339 104.714C42.2029 104.543 42.2581 104.375 42.3299 104.218L42.5341 103.768C42.6556 103.492 42.8101 103.235 42.9178 103.014C43.015 102.824 43.1228 102.64 43.2407 102.462L43.4615 102.123C43.5167 102.048 43.5443 102.01 43.5498 102.012Z" fill="#263238"/>
<path d="M77.6718 108.647L77.6166 108.686L77.4455 108.794L76.7748 109.196L76.2891 109.472C76.1069 109.575 75.9054 109.668 75.6901 109.776C75.2541 109.986 74.7738 110.254 74.2053 110.469L73.3221 110.83C73.0157 110.952 72.6817 111.048 72.345 111.164C71.6743 111.41 70.9291 111.587 70.1536 111.788C66.7483 112.586 63.2161 112.68 59.7732 112.064C58.9839 111.904 58.2331 111.766 57.5487 111.556C57.2064 111.457 56.8697 111.38 56.5551 111.28L55.6553 110.952C55.0785 110.767 54.5817 110.527 54.1373 110.339C53.9165 110.243 53.7095 110.157 53.5246 110.063L53.0223 109.801L52.3323 109.434L52.1556 109.334L52.0977 109.299C52.0977 109.299 52.1225 109.299 52.1639 109.323L52.3461 109.409L53.0471 109.751L53.5522 110C53.7399 110.088 53.9496 110.168 54.1704 110.262C54.6148 110.438 55.1116 110.673 55.6912 110.85L56.5799 111.173C56.8945 111.278 57.2313 111.352 57.5735 111.449C58.2552 111.653 59.0032 111.783 59.7815 111.94C63.2084 112.533 66.7191 112.44 70.1094 111.664C70.8822 111.465 71.6247 111.297 72.2953 111.057C72.6321 110.944 72.9633 110.852 73.2696 110.731L74.1528 110.381C74.7214 110.171 75.2044 109.911 75.6405 109.71C75.8557 109.605 76.06 109.514 76.2421 109.434L76.7334 109.158L77.4151 108.777L77.5945 108.683C77.6497 108.653 77.6718 108.644 77.6718 108.647Z" fill="#263238"/>
<path d="M80.5503 50.2319C80.5334 50.2519 80.5139 50.2696 80.4923 50.2844L80.3102 50.4334C80.1418 50.5687 79.9072 50.7591 79.6064 50.9854C78.9936 51.4712 78.1049 52.175 76.9816 53.014C75.6744 54.0147 74.3035 54.9293 72.8775 55.7519C72.0295 56.2265 71.1454 56.6335 70.2334 56.9691C69.2497 57.327 68.2235 57.5553 67.1808 57.6481C65.1536 57.7618 63.1321 57.3412 61.3186 56.4281C60.5343 56.0298 59.7773 55.5798 59.0526 55.0813C58.3792 54.6065 57.7637 54.1456 57.22 53.7013C56.116 52.8236 55.2714 52.0811 54.6753 51.5733L53.9936 50.9827L53.8197 50.8281L53.7617 50.7701C53.7617 50.7701 53.7866 50.7701 53.828 50.8143L54.0129 50.9606L54.7112 51.5291C55.3184 52.0259 56.185 52.7546 57.2835 53.6212C57.8355 54.0545 58.4454 54.5099 59.1216 54.9791C59.8438 55.4691 60.597 55.9116 61.3766 56.3039C63.172 57.1989 65.1696 57.6107 67.1726 57.499C68.2028 57.4077 69.2168 57.1832 70.1892 56.8311C71.095 56.5 71.9735 56.0985 72.8168 55.6305C74.2406 54.8228 75.6131 53.9277 76.9264 52.9505C78.0525 52.1225 78.9495 51.4325 79.576 50.9606L80.2964 50.4086L80.4868 50.2706C80.5059 50.2546 80.5273 50.2416 80.5503 50.2319Z" fill="#263238"/>
<g opacity="0.24">
<path d="M55.6582 110.966C56.9664 109.956 58.8046 110.198 60.422 110.541C62.0393 110.883 63.6677 111.432 65.3044 111.203C66.5381 111.029 67.6697 110.425 68.8924 110.16C70.1151 109.895 71.5862 110.091 72.2624 111.137C66.8578 112.878 61.034 112.818 55.6665 110.966" fill="black"/>
</g>
<path d="M101.292 103.475L95.3581 96.8208L95.2974 104.91L97.0859 110.099L79.3059 113.182L78.5525 99.153L77.2718 88.389C77.1957 87.7472 77.3343 87.0983 77.6658 86.5436C77.9973 85.9889 78.5032 85.5596 79.1045 85.3226L83.9979 83.3906L90.8979 84.6547L93.6717 85.709C94.8347 86.1519 95.8714 86.8731 96.6912 87.8094L105.037 97.3535" fill="#368ECD"/>
<path d="M94.9443 95.2201C95.2794 95.2155 95.6139 95.1915 95.9462 95.1483C96.7467 95.0261 97.4926 94.6677 98.088 94.1189C98.6835 93.5702 99.1016 92.856 99.2886 92.0681C99.3573 91.739 99.408 91.4064 99.4404 91.0718C99.4628 91.162 99.4712 91.255 99.4652 91.3478C99.4673 91.5983 99.4414 91.8482 99.3879 92.093C99.2208 92.9125 98.8001 93.6587 98.1854 94.2259C97.5707 94.7931 96.7931 95.1525 95.9628 95.2532C95.7148 95.2852 95.464 95.2908 95.2148 95.2697C95.1226 95.2678 95.0312 95.251 94.9443 95.2201Z" fill="white"/>
<path d="M95.46 104.565C95.5014 104.565 95.5125 101.761 95.4849 98.3057C95.4573 94.8502 95.3993 92.0488 95.3579 92.0488C95.3165 92.0488 95.3055 94.8502 95.3331 98.3085C95.3607 101.767 95.4186 104.565 95.46 104.565Z" fill="#263238"/>
<path d="M94.8088 106.621L84.0669 102.297C83.6423 102.126 83.2738 101.839 83.0032 101.47C82.7325 101.101 82.5704 100.664 82.5351 100.207L81.7485 89.9069C81.7485 89.9069 81.8424 85.524 79.1044 85.3115L77.5561 85.9242C75.544 86.9924 75.0472 89.9235 75.3205 92.1839C75.7096 95.3966 75.8725 99.945 76.3058 102.733C76.6646 105.015 77.9618 107.022 80.2029 107.61L93.4344 110.474L94.8088 106.621Z" fill="#368ECD"/>
<path d="M81.9031 91.4773C81.921 91.5544 81.9321 91.6329 81.9362 91.7119C81.9528 91.8803 81.9776 92.1066 82.0052 92.3909C82.0604 92.9953 82.1377 93.8454 82.2315 94.8887C82.3254 95.9319 82.4302 97.2043 82.5517 98.5953C82.5793 98.9459 82.6096 99.3019 82.64 99.6662C82.6613 100.037 82.7074 100.406 82.778 100.77C82.8529 101.139 83.0399 101.475 83.3134 101.733C83.6077 101.992 83.9425 102.201 84.3043 102.352C87.2658 103.632 89.9954 104.692 91.9771 105.435L94.3314 106.301L94.9717 106.536C95.0466 106.561 95.1195 106.591 95.1897 106.627C95.1116 106.613 95.0349 106.591 94.9606 106.563L94.312 106.354C93.76 106.166 92.932 105.887 91.944 105.526C89.9485 104.808 87.2161 103.765 84.2436 102.49C83.8676 102.332 83.5199 102.114 83.2141 101.844C82.9206 101.565 82.7201 101.203 82.64 100.806C82.5688 100.436 82.5236 100.062 82.5048 99.6855C82.4744 99.3185 82.4468 98.9624 82.4192 98.6119C82.3116 97.2319 82.2122 95.9623 82.1432 94.9025C82.0742 93.8426 82.0052 93.0063 81.961 92.4019C81.9417 92.1259 81.9279 91.8885 81.9196 91.7202C81.9071 91.6398 81.9016 91.5586 81.9031 91.4773Z" fill="#263238"/>
<path d="M75.7483 97.0776C75.7594 97.1229 75.7659 97.1691 75.7676 97.2156L75.8035 97.6131C75.8366 97.9802 75.878 98.4742 75.9305 99.0759C75.9829 99.6776 76.0657 100.426 76.1734 101.237C76.279 102.116 76.4403 102.987 76.6564 103.845C76.758 104.287 76.9354 104.708 77.1808 105.09C77.4205 105.44 77.6891 105.77 77.9839 106.075C78.4862 106.592 79.0664 107.027 79.7034 107.364C80.2972 107.666 80.9339 107.874 81.5912 107.982C81.5445 107.988 81.4972 107.988 81.4505 107.982C81.317 107.974 81.1842 107.956 81.053 107.93C80.5675 107.839 80.0973 107.681 79.6565 107.458C79.0016 107.128 78.4049 106.694 77.8901 106.172C77.5849 105.863 77.3078 105.528 77.0621 105.17C76.8043 104.778 76.6175 104.343 76.5101 103.887C76.291 103.022 76.1315 102.143 76.0326 101.256C75.9332 100.428 75.867 99.7052 75.8228 99.0869C75.7787 98.4687 75.7538 97.9664 75.74 97.6186C75.74 97.4585 75.74 97.326 75.74 97.2184C75.7353 97.1713 75.7381 97.1238 75.7483 97.0776Z" fill="#263238"/>
<path d="M80.3408 104.284C80.369 104.083 80.4355 103.889 80.5368 103.712C80.7581 103.273 81.065 102.881 81.4394 102.561C81.8137 102.241 82.2482 101.999 82.7172 101.849C82.9073 101.777 83.1099 101.742 83.3133 101.747C83.1327 101.823 82.9485 101.889 82.7613 101.946C82.3176 102.118 81.9061 102.363 81.5442 102.672C81.1831 102.981 80.8762 103.349 80.6361 103.759C80.4429 104.077 80.3629 104.292 80.3408 104.284Z" fill="#263238"/>
<path d="M82.4551 96.451C82.4785 96.4579 82.5008 96.4681 82.5213 96.4813L82.7145 96.5835C82.9637 96.7062 83.2199 96.814 83.4818 96.9064C84.4476 97.2453 85.4834 97.3345 86.493 97.1658C87.9925 96.8983 89.3321 96.0655 90.2355 94.8391C90.7755 94.1308 91.114 93.2897 91.2153 92.4048C91.2654 91.9398 91.2165 91.4695 91.0718 91.0248C90.9191 90.5708 90.6531 90.1633 90.299 89.8408C89.95 89.514 89.5103 89.3004 89.0377 89.2281C88.8138 89.188 88.5837 89.1992 88.3647 89.2608C88.1458 89.3225 87.9437 89.433 87.7736 89.5841C87.6196 89.7349 87.5305 89.9399 87.5252 90.1554C87.53 90.3697 87.6035 90.5768 87.735 90.7461C87.872 90.9096 88.0402 91.0444 88.2297 91.1424C88.4192 91.2405 88.6263 91.3 88.839 91.3174C89.5864 91.4105 90.3452 91.3146 91.0459 91.0383C91.7465 90.7619 92.3666 90.3141 92.8492 89.7359C93.2151 89.2859 93.4906 88.7696 93.6607 88.2151C93.7876 87.795 93.8563 87.3595 93.8649 86.9207C93.868 86.6435 93.8476 86.3665 93.8042 86.0927C93.7876 86.0071 93.7738 85.9354 93.7656 85.8802C93.7632 85.8554 93.7632 85.8304 93.7656 85.8057C93.8796 86.1624 93.9355 86.5352 93.9312 86.9097C93.934 87.355 93.8726 87.7984 93.749 88.2262C93.4417 89.2573 92.7784 90.1459 91.8772 90.7337C90.976 91.3216 89.8954 91.5704 88.8279 91.4361C88.6 91.4159 88.3783 91.351 88.1756 91.2449C87.9728 91.1388 87.7931 90.9936 87.6466 90.8178C87.4967 90.6249 87.4134 90.3886 87.4093 90.1444C87.4095 89.8932 87.5087 89.6523 87.6853 89.4737C87.8707 89.3081 88.0911 89.1864 88.33 89.1176C88.5689 89.0488 88.8202 89.0347 89.0653 89.0763C89.5673 89.1507 90.0344 89.377 90.4039 89.7249C90.7775 90.0625 91.0571 90.4915 91.2153 90.9696C91.3656 91.4322 91.4164 91.9213 91.3644 92.4048C91.2567 93.3089 90.9067 94.1672 90.3514 94.8888C89.5853 95.9343 88.4977 96.7001 87.2551 97.0689C86.0125 97.4378 84.6833 97.3894 83.4708 96.9312C83.1125 96.8166 82.771 96.6551 82.4551 96.451Z" fill="white"/>
<path d="M75.417 93.7046C75.4636 93.622 75.5232 93.5474 75.5936 93.4838C75.77 93.2971 75.9641 93.128 76.1732 92.9788C76.8778 92.4946 77.6974 92.2043 78.5496 92.137C79.0172 92.0843 79.49 92.1039 79.9517 92.1949C80.3269 92.2729 80.6898 92.401 81.0308 92.5758C81.2597 92.6911 81.4793 92.824 81.6877 92.9732C81.7683 93.0226 81.8409 93.0841 81.903 93.1554C81.8864 93.1775 81.5663 92.9346 80.9867 92.6669C80.2311 92.3165 79.3932 92.1828 78.5662 92.2805C77.7357 92.346 76.934 92.6142 76.2312 93.0616C75.6985 93.4176 75.4363 93.724 75.417 93.7046Z" fill="white"/>
<path d="M77.1367 86.3382C77.3986 86.5849 77.6907 86.7972 78.0061 86.9703C78.3505 87.1469 78.725 87.2573 79.1101 87.2959C79.579 87.343 80.0522 87.2767 80.4901 87.1027C80.9194 86.9197 81.2982 86.6356 81.5941 86.2747C81.8384 85.9736 82.0255 85.6303 82.1461 85.2618C82.2453 84.9158 82.3019 84.559 82.3145 84.1992C82.3413 84.2943 82.3534 84.393 82.3504 84.4918C82.355 84.7625 82.3187 85.0323 82.2427 85.2922C82.1302 85.68 81.9427 86.042 81.6907 86.3575C81.3882 86.7534 80.9862 87.062 80.5256 87.252C80.065 87.4421 79.5624 87.5067 79.0687 87.4395C78.6685 87.3941 78.2812 87.2703 77.9288 87.0751C77.6916 86.9449 77.4757 86.7793 77.2885 86.5839C77.2232 86.512 77.1718 86.4287 77.1367 86.3382Z" fill="white"/>
<path d="M86.4985 103.276C86.499 103.208 86.5064 103.139 86.5206 103.072C86.5592 102.881 86.6232 102.695 86.7111 102.52C87.062 101.877 87.632 101.382 88.3174 101.124C89.3262 100.723 90.4427 100.683 91.4776 101.01C92.0461 101.179 92.6975 101.389 93.1336 101.943C93.2433 102.085 93.3125 102.254 93.3339 102.432C93.3552 102.61 93.328 102.79 93.255 102.954C93.0885 103.273 92.8191 103.527 92.4905 103.674C92.1733 103.831 91.8259 103.918 91.4721 103.928C91.1208 103.945 90.7748 103.837 90.495 103.624C90.3659 103.514 90.2606 103.379 90.1856 103.226C90.1106 103.074 90.0675 102.908 90.0589 102.738C90.0409 102.421 90.0907 102.104 90.2052 101.808C90.6211 100.802 91.4134 99.9979 92.4132 99.567C93.0766 99.2714 93.8033 99.1462 94.5274 99.2027C94.791 99.2227 95.0509 99.2775 95.3002 99.3655C95.3002 99.3848 95.0242 99.2938 94.5219 99.2579C93.922 99.2253 93.3219 99.3155 92.7581 99.5229C92.1943 99.7303 91.6787 100.051 91.243 100.464C90.8384 100.852 90.5229 101.322 90.3184 101.844C90.2113 102.123 90.1652 102.421 90.1831 102.719C90.1911 102.87 90.23 103.018 90.2975 103.153C90.3649 103.288 90.4594 103.408 90.5751 103.506C90.8274 103.699 91.1404 103.797 91.4583 103.782C91.7901 103.773 92.116 103.692 92.4132 103.544C92.7133 103.41 92.96 103.18 93.1143 102.89C93.1764 102.749 93.1995 102.594 93.181 102.441C93.1626 102.288 93.1033 102.143 93.0094 102.021C92.8168 101.778 92.5702 101.583 92.289 101.452C92.0164 101.322 91.7329 101.215 91.4417 101.135C90.4341 100.809 89.3453 100.837 88.356 101.215C87.6855 101.457 87.1211 101.927 86.7607 102.542C86.6413 102.774 86.5531 103.021 86.4985 103.276Z" fill="white"/>
<path d="M79.3447 107.154C79.3447 107.127 79.7532 107.094 80.3742 106.878C81.1849 106.593 81.9112 106.109 82.4869 105.47C83.0625 104.832 83.4691 104.06 83.6696 103.224C83.827 102.584 83.8214 102.167 83.849 102.17C83.8684 102.265 83.873 102.363 83.8628 102.459C83.8565 102.724 83.8251 102.987 83.769 103.246C83.5901 104.109 83.1843 104.908 82.5933 105.562C82.0024 106.215 81.2478 106.699 80.4073 106.964C80.1557 107.046 79.897 107.104 79.6345 107.138C79.5392 107.157 79.4416 107.163 79.3447 107.154Z" fill="white"/>
<path d="M75.8613 99.1476C75.9022 99.1247 75.9458 99.1071 75.991 99.0952C76.0794 99.0676 76.2063 99.029 76.3747 98.9848C76.8525 98.8591 77.347 98.8088 77.8403 98.8358C78.1828 98.8617 78.5187 98.9447 78.8339 99.0814C79.2009 99.2397 79.5205 99.4908 79.7612 99.81C80.0254 100.172 80.1535 100.616 80.1228 101.063C80.105 101.301 80.0323 101.532 79.9103 101.737C79.7867 101.953 79.5914 102.119 79.3583 102.206C79.2353 102.248 79.1035 102.256 78.9761 102.231C78.8486 102.206 78.7301 102.148 78.6324 102.062C78.4667 101.88 78.3769 101.641 78.3812 101.394C78.367 100.954 78.4539 100.517 78.6351 100.116C78.887 99.545 79.3226 99.0742 79.8726 98.7787C80.4227 98.4832 81.0557 98.3799 81.6711 98.4852C81.8035 98.5058 81.9337 98.5381 82.0603 98.5818C82.1459 98.615 82.19 98.6343 82.1873 98.6398C82.1845 98.6453 82.0023 98.5818 81.6629 98.5404C81.1831 98.4824 80.6964 98.545 80.247 98.7226C79.5811 98.9898 79.0482 99.5098 78.7649 100.169C78.5963 100.552 78.5161 100.968 78.5303 101.386C78.5244 101.597 78.5994 101.802 78.74 101.96C78.8192 102.027 78.9145 102.073 79.0166 102.092C79.1187 102.112 79.2241 102.104 79.3224 102.07C79.5268 101.995 79.6986 101.85 79.8081 101.662C79.918 101.476 79.984 101.267 80.0013 101.052C80.0303 100.637 79.9142 100.226 79.6729 99.8873C79.4488 99.5835 79.1491 99.3437 78.8035 99.1918C78.5015 99.0547 78.1788 98.9688 77.8485 98.9379C77.3659 98.9019 76.8806 98.9363 76.4078 99.04C76.0518 99.109 75.8668 99.1587 75.8613 99.1476Z" fill="white"/>
<g opacity="0.3">
<path d="M91.7202 105.393C90.5721 104.745 89.4487 104.245 88.2481 103.701C87.0475 103.158 85.869 102.454 85.0824 101.394C83.6003 99.3959 83.7687 96.5117 82.2534 94.541C82.3528 95.8658 82.4512 97.1915 82.5487 98.5182C82.6398 99.7326 82.4549 100.936 83.236 101.761C83.8956 102.457 85.1818 102.989 86.0926 103.29C87.9225 103.895 89.8931 104.792 91.7202 105.393Z" fill="black"/>
</g>
<path d="M110.4 120.532C110.4 120.532 119.389 123.016 119.751 123.148C120.303 123.339 120.201 125.323 119.359 125.29C118.959 125.276 112.459 125.533 111.631 125.483C110.803 125.434 108.319 124.454 108.319 124.454L110.4 120.532Z" fill="#368ECD"/>
<path d="M114.134 123.963C114.245 123.632 114.378 123.31 114.532 122.997C114.725 122.707 114.937 122.431 115.167 122.169C114.847 122.344 114.581 122.604 114.399 122.92C114.217 123.235 114.126 123.595 114.134 123.96V123.963Z" fill="#263238"/>
<path d="M113.196 123.538C113.24 123.538 113.331 123.121 113.571 122.652C113.811 122.183 114.093 121.854 114.062 121.824C113.8 122.028 113.586 122.288 113.436 122.585C113.287 122.882 113.204 123.208 113.196 123.54V123.538Z" fill="#263238"/>
<path d="M112.332 123.303C112.376 122.981 112.446 122.664 112.542 122.354C112.683 122.061 112.846 121.779 113.03 121.512C112.745 121.704 112.526 121.978 112.401 122.298C112.276 122.618 112.252 122.969 112.332 123.303Z" fill="#263238"/>
<path d="M112.478 122.141C112.557 121.928 112.59 121.7 112.575 121.473C112.572 121.226 112.541 120.98 112.484 120.739C112.449 120.597 112.404 120.458 112.348 120.322C112.322 120.237 112.273 120.16 112.205 120.101C112.159 120.068 112.104 120.051 112.047 120.054C111.991 120.057 111.937 120.08 111.896 120.118C111.826 120.185 111.784 120.275 111.777 120.372C111.77 120.451 111.77 120.53 111.777 120.609C111.778 120.757 111.796 120.905 111.832 121.048C111.892 121.289 111.985 121.52 112.108 121.735C112.207 121.943 112.344 122.13 112.511 122.287C112.533 122.287 112.382 122.064 112.202 121.697C112.097 121.484 112.019 121.26 111.968 121.029C111.938 120.894 111.924 120.756 111.923 120.618C111.923 120.48 111.923 120.308 112.006 120.242C112.022 120.227 112.044 120.219 112.066 120.219C112.087 120.219 112.109 120.227 112.125 120.242C112.17 120.286 112.204 120.34 112.224 120.399C112.277 120.529 112.322 120.662 112.359 120.797C112.423 121.026 112.462 121.261 112.478 121.498C112.495 121.884 112.453 122.138 112.478 122.141Z" fill="#263238"/>
<path d="M112.467 122.05C112.284 121.974 112.085 121.941 111.888 121.956C111.673 121.956 111.459 121.982 111.25 122.033C111.121 122.063 110.997 122.108 110.88 122.169C110.807 122.206 110.747 122.266 110.711 122.341C110.674 122.415 110.663 122.499 110.679 122.58C110.699 122.657 110.74 122.728 110.797 122.785C110.853 122.841 110.924 122.882 111.002 122.903C111.134 122.936 111.272 122.936 111.405 122.903C111.617 122.854 111.817 122.76 111.99 122.627C112.153 122.517 112.295 122.378 112.406 122.216C112.24 122.313 112.081 122.421 111.929 122.538C111.762 122.653 111.575 122.735 111.377 122.779C111.267 122.806 111.153 122.806 111.043 122.779C110.991 122.766 110.944 122.739 110.905 122.702C110.867 122.664 110.839 122.618 110.825 122.566C110.817 122.515 110.825 122.464 110.849 122.418C110.873 122.373 110.911 122.337 110.957 122.315C111.06 122.258 111.169 122.216 111.283 122.188C111.481 122.131 111.685 122.096 111.89 122.083C112.241 122.039 112.462 122.075 112.467 122.05Z" fill="#263238"/>
<path d="M115.514 124.059C115.553 123.784 115.613 123.513 115.694 123.248C115.82 123.001 115.967 122.766 116.132 122.544C115.871 122.687 115.666 122.915 115.553 123.191C115.441 123.468 115.427 123.774 115.514 124.059Z" fill="#263238"/>
<path d="M109.244 124.476C109.353 124.545 109.469 124.6 109.591 124.642C109.918 124.765 110.251 124.869 110.591 124.951C111.718 125.197 112.871 125.306 114.024 125.276C115.371 125.26 116.585 125.199 117.466 125.163L118.506 125.108C118.634 125.106 118.761 125.093 118.887 125.069C118.76 125.049 118.632 125.043 118.503 125.05H117.463L114.024 125.116C112.881 125.146 111.739 125.053 110.615 124.84C109.754 124.666 109.255 124.446 109.244 124.476Z" fill="#263238"/>
<path d="M108.979 124.68C108.979 124.7 109.235 124.556 109.652 124.374C110.181 124.124 110.771 124.028 111.352 124.098C111.924 124.222 112.44 124.528 112.823 124.97C112.983 125.159 113.155 125.336 113.339 125.5C113.221 125.281 113.073 125.078 112.9 124.898C112.723 124.692 112.523 124.507 112.304 124.346C112.03 124.143 111.711 124.009 111.374 123.954C110.764 123.881 110.146 123.997 109.605 124.288C109.376 124.384 109.165 124.517 108.979 124.68Z" fill="#263238"/>
<path d="M100.848 118.051C100.848 118.051 92.3414 123.62 92.0378 123.847C91.5797 124.192 92.1041 125.839 92.8989 125.555C93.2743 125.42 100.412 123.433 101.179 123.134C101.946 122.836 104.013 121.164 104.013 121.164L100.848 118.051Z" fill="#368ECD"/>
<path d="M98.3225 122.456C98.2199 122.106 98.023 121.79 97.7534 121.545C97.4837 121.299 97.1516 121.132 96.7935 121.062C97.0925 121.241 97.3793 121.441 97.6518 121.658C97.8918 121.91 98.1158 122.176 98.3225 122.456Z" fill="#263238"/>
<path d="M99.0838 121.765C98.9756 121.45 98.799 121.163 98.5666 120.925C98.3341 120.686 98.0518 120.502 97.7397 120.385C97.7176 120.424 98.0902 120.662 98.4573 121.026C98.8244 121.39 99.0452 121.788 99.0838 121.765Z" fill="#263238"/>
<path d="M99.8512 121.275C99.85 120.927 99.7179 120.593 99.4813 120.339C99.2836 120.058 98.9884 119.861 98.6533 119.787C98.9093 119.987 99.1501 120.205 99.3737 120.441C99.5547 120.706 99.7143 120.984 99.8512 121.275Z" fill="#263238"/>
<path d="M99.3602 120.217C99.3822 120.217 99.2663 119.977 99.1697 119.58C99.1116 119.349 99.0774 119.113 99.0676 118.876C99.0581 118.736 99.0581 118.596 99.0676 118.456C99.0666 118.393 99.0828 118.331 99.1145 118.277C99.1265 118.258 99.1453 118.245 99.1669 118.24C99.1885 118.234 99.2113 118.238 99.2304 118.249C99.327 118.288 99.3767 118.454 99.4236 118.586C99.4642 118.717 99.4919 118.852 99.5064 118.989C99.5278 119.225 99.5204 119.464 99.4844 119.698C99.4264 120.101 99.3464 120.347 99.3684 120.355C99.4822 120.158 99.5571 119.94 99.5892 119.715C99.6422 119.473 99.6608 119.225 99.6444 118.978C99.6334 118.83 99.6065 118.684 99.5644 118.542C99.5417 118.466 99.514 118.391 99.4816 118.318C99.4448 118.228 99.376 118.154 99.2884 118.111C99.2372 118.087 99.1793 118.082 99.1248 118.097C99.0703 118.112 99.0227 118.145 98.9903 118.191C98.9447 118.268 98.9208 118.356 98.9213 118.445C98.8909 118.838 98.9359 119.234 99.0538 119.61C99.1119 119.832 99.2163 120.039 99.3602 120.217Z" fill="#263238"/>
<path d="M99.3296 120.126C99.3296 120.148 99.5393 120.049 99.8816 119.964C100.082 119.916 100.286 119.888 100.492 119.881C100.609 119.873 100.727 119.88 100.842 119.903C100.893 119.91 100.94 119.933 100.977 119.969C101.014 120.004 101.038 120.051 101.046 120.102C101.049 120.156 101.036 120.211 101.011 120.259C100.985 120.308 100.947 120.349 100.9 120.378C100.805 120.437 100.697 120.473 100.585 120.482C100.384 120.502 100.18 120.481 99.9865 120.422C99.8066 120.354 99.6221 120.3 99.4345 120.259C99.5902 120.383 99.7682 120.477 99.9589 120.535C100.164 120.613 100.383 120.646 100.602 120.631C100.738 120.624 100.87 120.582 100.986 120.51C101.054 120.468 101.11 120.409 101.147 120.338C101.184 120.267 101.202 120.187 101.198 120.107C101.188 120.025 101.152 119.948 101.095 119.888C101.038 119.829 100.962 119.789 100.881 119.776C100.751 119.753 100.62 119.747 100.489 119.759C100.274 119.774 100.062 119.813 99.8567 119.878C99.6642 119.919 99.4838 120.004 99.3296 120.126Z" fill="#263238"/>
<path d="M93.9808 125.249C93.9808 125.263 94.1243 125.163 94.1906 124.92C94.2567 124.603 94.1994 124.272 94.0305 123.996C93.9487 123.848 93.8565 123.706 93.7545 123.571C93.6715 123.456 93.5741 123.352 93.4647 123.262C93.3863 123.197 93.29 123.157 93.1887 123.148C93.1169 123.148 93.0811 123.162 93.0811 123.171C93.0811 123.179 93.2329 123.184 93.3902 123.344C93.483 123.438 93.5653 123.542 93.6358 123.654C93.7348 123.787 93.8269 123.925 93.9118 124.068C94.0643 124.315 94.1303 124.606 94.0995 124.896C94.0671 125.016 94.0275 125.134 93.9808 125.249Z" fill="#263238"/>
<path d="M97.0361 122.966C97.0475 122.817 97.0266 122.667 96.9746 122.526C96.9227 122.386 96.8411 122.258 96.7353 122.152C96.6503 122.029 96.5393 121.925 96.41 121.849C96.2808 121.774 96.1365 121.727 95.9873 121.713C96.2129 121.873 96.4243 122.052 96.6193 122.249C96.7782 122.476 96.9176 122.716 97.0361 122.966Z" fill="#263238"/>
<path d="M103.138 121.459C103.006 121.533 102.88 121.618 102.763 121.713C102.426 121.947 102.076 122.162 101.714 122.356C101.179 122.64 100.626 122.888 100.058 123.099C99.4122 123.339 98.6781 123.565 97.9274 123.786C96.3956 124.228 95.01 124.631 94.0109 124.932L92.8214 125.304C92.6745 125.343 92.5314 125.395 92.3936 125.459C92.544 125.438 92.6926 125.406 92.8379 125.362L94.033 125.028C95.0404 124.752 96.4287 124.366 97.9605 123.924C98.725 123.701 99.4509 123.469 100.097 123.22C100.671 123.002 101.23 122.742 101.767 122.442C102.127 122.238 102.472 122.007 102.799 121.752C102.92 121.664 103.033 121.566 103.138 121.459Z" fill="#263238"/>
<path d="M103.453 121.573C103.224 121.472 102.981 121.407 102.733 121.379C102.128 121.267 101.504 121.344 100.944 121.6C100.642 121.758 100.382 121.988 100.188 122.268C100.028 122.489 99.8937 122.728 99.7878 122.98C99.6771 123.204 99.5982 123.441 99.5532 123.687C99.6782 123.473 99.7888 123.252 99.8844 123.024C100.115 122.485 100.514 122.036 101.022 121.744C101.556 121.503 102.147 121.418 102.727 121.498C103.169 121.534 103.448 121.595 103.453 121.573Z" fill="#263238"/>
<path d="M118.525 104.469C118.525 104.469 121.078 105.38 121.086 108.242C121.109 113.72 110.013 119.762 110.013 119.762L95.2474 109.981L94.3228 109.605C94.3228 109.605 114.264 102.12 118.525 104.469Z" fill="#263238"/>
<path d="M102.727 114.921C102.863 114.846 102.992 114.759 103.113 114.661C103.354 114.485 103.699 114.225 104.121 113.897C104.968 113.246 106.116 112.318 107.356 111.256C108.595 110.193 109.682 109.197 110.455 108.46C110.841 108.093 111.151 107.789 111.363 107.577C111.478 107.473 111.583 107.359 111.678 107.237C111.551 107.326 111.432 107.426 111.322 107.535L110.383 108.382C109.591 109.097 108.493 110.083 107.256 111.142C106.02 112.202 104.883 113.141 104.057 113.814L103.078 114.615C102.953 114.707 102.836 114.81 102.727 114.921Z" fill="#455A64"/>
<path d="M114.358 106.517C113.392 106.415 112.425 106.699 111.669 107.309C111.694 107.35 112.221 107.005 112.978 106.79C113.734 106.575 114.358 106.564 114.358 106.517Z" fill="#455A64"/>
<path d="M113.085 105.653C112.744 105.798 112.443 106.025 112.21 106.314C111.977 106.602 111.819 106.944 111.75 107.309C111.794 107.309 111.954 106.864 112.326 106.409C112.699 105.954 113.11 105.691 113.085 105.653Z" fill="#455A64"/>
<path d="M119.337 123.008C119.337 122.991 119.16 122.955 118.956 123.124C118.715 123.348 118.564 123.652 118.531 123.979C118.483 124.301 118.529 124.63 118.663 124.926C118.768 125.149 118.884 125.254 118.898 125.243C118.862 125.121 118.816 125.001 118.763 124.884C118.666 124.601 118.638 124.298 118.68 124.001C118.713 123.706 118.834 123.427 119.028 123.201C119.185 123.038 119.34 123.033 119.337 123.008Z" fill="#263238"/>
<path d="M115.128 95.5125L109.87 108.843L87.2296 109.213L86.8101 107.988L94.7451 107.701L98.5594 95.874L115.128 95.5125Z" fill="#455A64"/>
<path d="M104.554 101.292C104.728 101.205 104.924 101.169 105.117 101.191C105.31 101.212 105.494 101.288 105.645 101.411C105.773 101.531 105.862 101.688 105.9 101.859C105.937 102.031 105.923 102.211 105.857 102.374C105.786 102.537 105.671 102.677 105.525 102.778C105.378 102.879 105.207 102.937 105.029 102.945C104.842 102.957 104.656 102.908 104.5 102.805C104.344 102.702 104.225 102.55 104.163 102.374C104.103 102.176 104.108 101.965 104.177 101.771C104.245 101.577 104.374 101.409 104.543 101.292" fill="#EBEBEB"/>
<path d="M111.41 120.43C111.41 120.43 90.5498 106.746 89.6997 106.462C88.8496 106.177 86.7796 104.825 84.7179 105.393C82.6562 105.962 80.8015 107.814 79.8769 110.519C79.3469 112.064 79.0985 114.7 78.9799 116.679C78.8217 119.045 79.5886 121.381 81.1189 123.193C81.7967 124.038 82.6971 124.678 83.7188 125.039C83.9368 125.108 84.1631 125.166 84.395 125.216C88.339 126.071 92.399 124.299 94.607 120.927L95.0927 120.187C95.0927 120.187 108.741 125.199 108.953 125.13L111.41 120.43Z" fill="#263238"/>
<path d="M85.604 116.662C85.6408 116.681 85.6786 116.697 85.7172 116.712L86.0594 116.847L87.3814 117.358L92.297 119.21C94.3836 119.988 96.8841 120.915 99.691 121.937C102.498 122.958 105.606 124.076 108.929 125.199L108.987 125.221L109.017 125.163L110.648 122.05L111.476 120.463L111.507 120.402L111.449 120.366L95.5372 110.265L90.7569 107.251L89.4597 106.439L89.1202 106.232C89.043 106.185 89.0016 106.166 89.0016 106.166L89.112 106.246L89.4432 106.464L90.7266 107.292L95.4958 110.353L111.382 120.493L111.355 120.394C111.093 120.899 110.803 121.437 110.527 121.981L108.898 125.094L108.989 125.058C105.677 123.938 102.559 122.823 99.749 121.81L92.3439 119.116L87.4008 117.3L86.0704 116.814L85.7227 116.693L85.604 116.662Z" fill="#455A64"/>
<path d="M87.7676 68.0727C88.1237 67.1094 88.9103 66.6927 89.9066 66.4526C90.4078 66.3359 90.9297 66.342 91.428 66.4703C91.9263 66.5986 92.3862 66.8453 92.7687 67.1895C93.2738 67.6504 93.6437 68.2935 94.2674 68.5695C95.2969 69.0359 96.6134 68.3542 97.5794 68.9255C97.8696 69.0965 98.0916 69.3627 98.2077 69.6788C98.3238 69.995 98.3268 70.3416 98.2162 70.6597C98.1056 70.9778 97.8883 71.2478 97.6011 71.4237C97.3139 71.5997 96.9747 71.6707 96.641 71.6248C97.3117 71.9395 97.4359 72.9496 96.975 73.5292C96.5141 74.1088 95.6612 74.2661 94.9464 74.0647C94.2418 73.8219 93.6167 73.3916 93.1386 72.8199C92.6363 72.2679 92.1947 71.6745 91.6482 71.1639C91.1236 70.631 90.4276 70.3006 89.6831 70.231C88.6812 70.1924 87.7511 70.8686 87.2294 71.7214C86.7078 72.5742 86.5063 73.5872 86.36 74.5808C86.2137 75.5744 86.1033 76.5845 85.7197 77.5119C85.6755 77.6223 85.6093 77.741 85.4961 77.7658C85.3278 77.8017 85.2064 77.6168 85.1401 77.4594C84.3849 75.6869 83.9854 73.7832 83.9643 71.8567C83.9505 70.7527 84.0775 69.6956 84.7703 68.8207C85.463 67.9457 87.0611 67.402 87.7593 68.0589" fill="#263238"/>
<path d="M85.4165 72.5245L83.8819 83.6694C83.8204 84.1195 83.8511 84.5773 83.9722 85.0152C84.0933 85.453 84.3022 85.8616 84.5862 86.2161C84.8702 86.5706 85.2234 86.8636 85.6243 87.0772C86.0251 87.2909 86.4653 87.4208 86.9179 87.4589C87.7749 87.5334 88.6276 87.2755 89.2997 86.7386C89.9717 86.2017 90.4115 85.4269 90.528 84.5747C90.6412 83.7467 90.7378 83.0374 90.7571 82.9518C90.7571 82.9518 93.6302 83.076 94.2209 80.2967C94.4969 78.9526 94.8695 76.1374 95.1703 73.5871C95.3221 72.2674 94.9721 70.9389 94.1898 69.8652C93.4076 68.7915 92.2502 68.0512 90.9475 67.7911L90.6715 67.7387C87.7321 67.3192 85.7449 69.5824 85.4165 72.5245Z" fill="#FFBE9D"/>
<path d="M90.7543 82.9132C89.4624 82.6761 88.2702 82.0603 87.3291 81.144C87.3291 81.144 87.7873 83.3189 90.6163 83.628L90.7543 82.9132Z" fill="#EB996E"/>
<path d="M93.9698 75.2927C93.9503 75.3966 93.8908 75.4886 93.804 75.549C93.7173 75.6094 93.6103 75.6334 93.5061 75.6156C93.4548 75.6099 93.4051 75.5938 93.3601 75.5685C93.3152 75.5431 93.2758 75.5089 93.2443 75.4679C93.2129 75.4269 93.19 75.38 93.1771 75.33C93.1643 75.2799 93.1616 75.2278 93.1694 75.1768C93.1882 75.0724 93.2475 74.9796 93.3343 74.9187C93.4211 74.8577 93.5285 74.8334 93.6331 74.8511C93.6845 74.8572 93.7342 74.8735 93.7792 74.8992C93.8242 74.9249 93.8636 74.9593 93.895 75.0005C93.9264 75.0417 93.9492 75.0888 93.9621 75.139C93.9749 75.1892 93.9775 75.2415 93.9698 75.2927Z" fill="#263238"/>
<path d="M94.2841 74.8346C94.2234 74.8788 93.9668 74.5945 93.539 74.5089C93.1112 74.4234 92.7524 74.5779 92.711 74.5089C92.6696 74.4399 92.7634 74.3985 92.9207 74.3268C93.1304 74.2335 93.3643 74.2093 93.5886 74.2578C93.8115 74.3004 94.0147 74.4136 94.1682 74.5807C94.2869 74.7132 94.3117 74.818 94.2841 74.8346Z" fill="#263238"/>
<path d="M89.7413 74.5972C89.7224 74.7016 89.6632 74.7943 89.5764 74.8553C89.4896 74.9163 89.3822 74.9406 89.2776 74.9229C89.2262 74.9164 89.1766 74.8998 89.1317 74.8741C89.0867 74.8483 89.0473 74.814 89.0158 74.7729C88.9842 74.7318 88.9611 74.6849 88.9478 74.6349C88.9344 74.5848 88.9312 74.5326 88.9381 74.4813C88.9589 74.3779 89.0186 74.2865 89.1049 74.2258C89.1912 74.1652 89.2975 74.1401 89.4018 74.1556C89.4534 74.1617 89.5032 74.1781 89.5483 74.2037C89.5934 74.2293 89.633 74.2637 89.6646 74.3049C89.6962 74.346 89.7193 74.3931 89.7325 74.4433C89.7457 74.4935 89.7487 74.5458 89.7413 74.5972Z" fill="#263238"/>
<path d="M90.0586 74.0756C89.9978 74.117 89.7412 73.8327 89.3134 73.7472C88.8856 73.6616 88.5268 73.8162 88.4854 73.7472C88.444 73.6782 88.5378 73.6368 88.6951 73.565C88.9052 73.4732 89.1386 73.4491 89.363 73.496C89.5858 73.5411 89.7892 73.6539 89.9454 73.8189C90.0613 73.968 90.0862 74.0563 90.0586 74.0756Z" fill="#263238"/>
<path d="M90.978 77.5561C91.2177 77.5294 91.4599 77.534 91.6984 77.5699C91.8115 77.5699 91.9192 77.5699 91.9523 77.5064C91.9874 77.3969 91.9874 77.2792 91.9523 77.1697C91.9026 76.8937 91.8502 76.5846 91.795 76.2699C91.5825 74.9948 91.4527 73.9571 91.5024 73.9488C91.5521 73.9405 91.7784 74.9672 91.9799 76.2423C92.0296 76.557 92.0793 76.8551 92.1234 77.1421C92.1666 77.2882 92.1558 77.4449 92.0931 77.5837C92.0697 77.6186 92.0386 77.6476 92.0022 77.6687C91.9659 77.6897 91.9252 77.7022 91.8833 77.7051C91.8201 77.7141 91.756 77.7141 91.6929 77.7051C91.4493 77.6855 91.2092 77.6354 90.978 77.5561Z" fill="#263238"/>
<path d="M89.6586 77.6058C89.7304 77.6058 89.6366 78.0805 89.9678 78.489C90.299 78.8975 90.7958 78.9471 90.7958 79.0134C90.7958 79.0796 90.6688 79.0796 90.459 79.0437C90.1857 78.9933 89.9387 78.8488 89.7608 78.6353C89.5923 78.4283 89.5102 78.1643 89.5317 77.8983C89.5538 77.6996 89.6283 77.5947 89.6586 77.6058Z" fill="#263238"/>
<path d="M90.5032 72.417C90.4397 72.5274 90.0229 72.3866 89.5068 72.3452C88.9907 72.3038 88.5601 72.3618 88.5132 72.2431C88.4939 72.1879 88.5878 72.0941 88.7727 72.014C89.0181 71.9172 89.2828 71.8794 89.5455 71.9036C89.8097 71.9238 90.0653 72.0071 90.2907 72.1465C90.459 72.2569 90.528 72.3673 90.5032 72.417Z" fill="#263238"/>
<path d="M94.3728 73.565C94.2789 73.6478 94.0057 73.4877 93.6496 73.4104C93.2936 73.3331 92.9817 73.3469 92.9348 73.231C92.9127 73.1758 92.979 73.0875 93.1308 73.0212C93.3285 72.9433 93.5455 72.9289 93.7518 72.9798C93.9599 73.0237 94.1485 73.133 94.29 73.2917C94.3921 73.4159 94.4169 73.5236 94.3728 73.565Z" fill="#263238"/>
<path d="M85.2315 74.6332C85.1873 74.6028 83.4292 73.6837 83.109 75.6019C82.7889 77.5201 84.7816 77.4456 84.7926 77.3904C84.8037 77.3352 85.2315 74.6332 85.2315 74.6332Z" fill="#FFBE9D"/>
<path d="M84.3291 76.565C84.3291 76.565 84.2932 76.5843 84.2325 76.6009C84.1472 76.6213 84.0574 76.6085 83.9813 76.565C83.8696 76.4665 83.7865 76.3396 83.7408 76.1977C83.6951 76.0559 83.6886 75.9044 83.7219 75.7591C83.744 75.5934 83.8034 75.4348 83.8958 75.2954C83.9219 75.2382 83.9613 75.1881 84.0108 75.1492C84.0602 75.1103 84.1183 75.0838 84.18 75.0719C84.2204 75.0685 84.2608 75.0793 84.294 75.1025C84.3273 75.1257 84.3514 75.1597 84.3622 75.1988C84.3788 75.254 84.3622 75.2927 84.3622 75.2954C84.3622 75.2982 84.4091 75.2706 84.4064 75.1905C84.4034 75.1414 84.384 75.0947 84.3512 75.0581C84.3288 75.0333 84.3016 75.0134 84.2712 74.9996C84.2408 74.9859 84.2079 74.9785 84.1745 74.978C84.0935 74.9804 84.0145 75.0034 83.9449 75.045C83.8753 75.0865 83.8176 75.1452 83.7771 75.2154C83.6674 75.3682 83.5964 75.5453 83.5701 75.7315C83.5176 76.1207 83.6556 76.5153 83.9206 76.6395C83.9697 76.6633 84.0234 76.6756 84.0779 76.6756C84.1324 76.6756 84.1862 76.6633 84.2352 76.6395C84.318 76.6119 84.3346 76.5705 84.3291 76.565Z" fill="#EB996E"/>
<path d="M95.8605 73.1399C95.2119 73.1749 94.5643 73.0556 93.9708 72.7917C93.3773 72.5278 92.8549 72.1269 92.4464 71.6219C91.8944 70.9099 91.5273 69.9797 90.7297 69.5492C90.455 69.414 90.1562 69.3347 89.8506 69.3157C89.545 69.2968 89.2388 69.3386 88.9495 69.4388C88.3736 69.6447 87.8458 69.9658 87.3983 70.3827C87.6523 71.9062 86.9761 73.4187 86.3164 74.7987C86.2596 74.9615 86.1497 75.1005 86.0045 75.1934C85.7451 75.3231 85.436 75.1189 85.2787 74.8732C85.0582 74.4615 84.9623 73.9944 85.0027 73.5291C85.0086 72.4687 85.2243 71.42 85.6375 70.4434C86.057 69.464 86.7546 68.6291 87.644 68.0422C88.7846 67.3457 90.1511 67.1191 91.4555 67.4102C92.7525 67.7119 93.9218 68.4139 94.7979 69.4167C95.2248 69.8612 95.5349 70.4045 95.7004 70.9982" fill="#263238"/>
<path d="M18.6188 118.087C18.6309 118.046 18.6476 118.007 18.6685 117.971L18.823 117.637C19.0134 117.205 19.1675 116.758 19.284 116.301C19.5876 115.114 19.6924 113.301 19.2426 111.148C19.0005 109.974 18.6815 108.817 18.2876 107.684C17.8819 106.456 17.4127 105.153 17.029 103.743C16.5959 102.272 16.3866 100.744 16.408 99.2109C16.466 97.6074 16.9407 96.0066 17.4624 94.414C17.984 92.8215 18.5222 91.2594 18.6823 89.6917C18.8632 88.1833 18.5607 86.6564 17.8184 85.3309C17.1256 84.0558 16.259 82.9683 15.6104 81.8395C15.0025 80.7942 14.5541 79.6639 14.2801 78.4861C13.8891 76.7786 13.8609 75.0081 14.1973 73.289C14.321 72.6607 14.5059 72.046 14.7493 71.4536C14.7428 71.4958 14.7327 71.5374 14.7189 71.5778L14.6085 71.9283C13.9591 74.0479 13.8896 76.3029 14.407 78.4585C14.6836 79.6228 15.133 80.7392 15.7401 81.7705C16.3887 82.8745 17.2609 83.9785 17.9647 85.2564C18.7185 86.608 19.0266 88.163 18.8451 89.7C18.6823 91.2953 18.1386 92.8657 17.6197 94.4582C17.1008 96.0507 16.6288 97.6322 16.5709 99.2082C16.5469 100.726 16.7506 102.239 17.1753 103.696C17.5534 105.098 18.0199 106.401 18.4173 107.634C18.8079 108.773 19.1223 109.937 19.3585 111.118C19.7973 113.287 19.6704 115.12 19.3585 116.309C19.2368 116.768 19.0723 117.214 18.8672 117.642C18.7954 117.78 18.7375 117.888 18.6961 117.971C18.6741 118.012 18.6482 118.051 18.6188 118.087Z" fill="#263238"/>
<path d="M16.491 82.9518C16.491 82.9518 15.169 78.729 17.5398 76.256C17.5582 76.2361 17.5817 76.2217 17.6078 76.2144C17.6339 76.2071 17.6615 76.2072 17.6875 76.2146C17.7135 76.222 17.737 76.2366 17.7553 76.2566C17.7736 76.2765 17.7859 76.3012 17.791 76.3278C17.918 77.0261 18.0753 79.1513 16.491 82.9518Z" fill="#368ECD"/>
<path d="M17.2831 77.6636C17.2786 77.9254 17.2481 78.1861 17.192 78.4419C17.1064 78.9939 17.0043 79.6094 16.8911 80.3049C16.778 81.0004 16.6814 81.6324 16.5958 82.1679C16.5735 82.4294 16.5264 82.6881 16.4551 82.9407C16.4327 82.6784 16.4411 82.4144 16.4799 82.1541C16.5241 81.6711 16.6096 81.0087 16.7283 80.28C16.847 79.5514 16.9739 78.9001 17.0788 78.4226C17.1175 78.1626 17.1861 77.9079 17.2831 77.6636Z" fill="#263238"/>
<path d="M18.042 92.9155C18.042 92.9155 18.8507 88.5629 22.102 87.4921C22.1276 87.4831 22.1552 87.4815 22.1817 87.4873C22.2082 87.4932 22.2325 87.5063 22.252 87.5252C22.2715 87.5441 22.2853 87.568 22.292 87.5944C22.2986 87.6207 22.2978 87.6483 22.2896 87.6742C22.0799 88.3421 21.2215 90.2962 18.042 92.9155Z" fill="#368ECD"/>
<path d="M21.2162 88.6099C21.09 88.8394 20.9411 89.0558 20.7719 89.2557C20.4462 89.6918 20.0598 90.1996 19.6347 90.7627L18.4921 92.2724C18.3495 92.492 18.1868 92.6981 18.0063 92.8879C18.109 92.6453 18.2396 92.4156 18.3955 92.2034C18.6715 91.7977 19.0441 91.2512 19.4995 90.6633C19.9549 90.0754 20.3661 89.5593 20.678 89.1839C20.8347 88.9725 21.0153 88.7798 21.2162 88.6099Z" fill="#263238"/>
<path d="M17.1645 103.831C17.1645 103.831 16.6732 99.4318 19.4719 97.4556C19.4939 97.4397 19.52 97.4303 19.5471 97.4283C19.5742 97.4264 19.6013 97.4321 19.6253 97.4447C19.6494 97.4573 19.6695 97.4763 19.6833 97.4997C19.6972 97.5231 19.7042 97.5499 19.7037 97.5771C19.6954 98.2836 19.4443 100.401 17.1645 103.831Z" fill="#368ECD"/>
<path d="M18.9504 98.7888C18.8979 99.0458 18.8183 99.2965 18.713 99.5368C18.5253 100.047 18.3073 100.641 18.0617 101.309L17.4186 103.081C17.3502 103.333 17.2577 103.578 17.1426 103.812C17.1718 103.551 17.2301 103.293 17.3165 103.045C17.4517 102.578 17.6615 101.941 17.9181 101.251C18.1748 100.561 18.426 99.9397 18.6164 99.4954C18.7006 99.248 18.8127 99.0109 18.9504 98.7888Z" fill="#263238"/>
<path d="M19.6125 114.816C19.6125 114.816 19.2785 110.4 22.1462 108.529C22.1686 108.513 22.1949 108.504 22.2221 108.503C22.2492 108.502 22.2762 108.508 22.3 108.521C22.3238 108.534 22.3435 108.554 22.3568 108.578C22.3701 108.602 22.3765 108.628 22.3753 108.656C22.3394 109.359 22.0137 111.465 19.6125 114.816Z" fill="#368ECD"/>
<path d="M21.5779 109.848C21.5116 110.103 21.4192 110.351 21.3019 110.588C21.0949 111.09 20.8548 111.692 20.587 112.332L19.8777 114.082C19.8054 114.325 19.7112 114.562 19.5962 114.788C19.6333 114.528 19.7009 114.274 19.7977 114.029C19.9467 113.568 20.1813 112.942 20.4628 112.26C20.7444 111.578 21.0148 110.966 21.2218 110.53C21.3151 110.29 21.4345 110.061 21.5779 109.848Z" fill="#263238"/>
<path d="M14.5922 79.2425C14.5922 79.2425 10.6702 77.1946 10.5929 73.7695C10.5917 73.7423 10.5981 73.7153 10.6114 73.6915C10.6247 73.6678 10.6443 73.6482 10.6681 73.635C10.6919 73.6218 10.719 73.6156 10.7461 73.6169C10.7733 73.6182 10.7996 73.6271 10.822 73.6425C11.4044 74.0455 13.019 75.4337 14.5922 79.2425Z" fill="#368ECD"/>
<path d="M11.4072 74.9451C11.5906 75.1321 11.7542 75.3374 11.8957 75.5578L12.9997 77.0868L14.1037 78.6131C14.2719 78.8135 14.4216 79.0287 14.5509 79.2562C14.3433 79.09 14.1578 78.898 13.9989 78.6849C13.687 78.315 13.2757 77.7851 12.8452 77.1862C12.4146 76.5873 12.0393 76.0325 11.7771 75.624C11.6283 75.4126 11.5042 75.1848 11.4072 74.9451Z" fill="#263238"/>
<path d="M18.804 88.32C18.804 88.32 14.7661 86.515 14.479 83.1009C14.4768 83.074 14.4819 83.0471 14.494 83.023C14.506 82.9989 14.5244 82.9786 14.5473 82.9644C14.5701 82.9501 14.5964 82.9424 14.6233 82.9421C14.6503 82.9419 14.6767 82.949 14.6998 82.9629C15.307 83.3189 17.0044 84.6078 18.804 88.32Z" fill="#368ECD"/>
<path d="M15.3652 84.2188C15.559 84.3949 15.7347 84.59 15.8896 84.8011L17.0875 86.2611L18.2881 87.7157C18.4673 87.9012 18.6281 88.1036 18.7683 88.3201C18.5578 88.158 18.3662 87.9729 18.197 87.7681C17.863 87.4148 17.4214 86.9125 16.955 86.3412C16.4886 85.7699 16.0801 85.2372 15.7958 84.848C15.6289 84.6552 15.4845 84.4441 15.3652 84.2188Z" fill="#263238"/>
<path d="M16.4798 98.4326C16.4798 98.4326 13.706 94.9826 15.0087 91.8086C15.0186 91.7835 15.0352 91.7617 15.0568 91.7455C15.0783 91.7292 15.104 91.7193 15.1308 91.7167C15.1577 91.7142 15.1847 91.7191 15.2089 91.7309C15.2332 91.7427 15.2536 91.761 15.2681 91.7838C15.6407 92.3937 16.5598 94.3119 16.4798 98.4326Z" fill="#368ECD"/>
<path d="M15.2824 93.219C15.3753 93.4635 15.4428 93.7169 15.4839 93.9752C15.5998 94.5079 15.7351 95.1317 15.8869 95.8217C16.0387 96.5117 16.1629 97.1327 16.2926 97.6626C16.3664 97.9141 16.4172 98.1719 16.4444 98.4326C16.3218 98.1986 16.2291 97.9501 16.1684 97.693C16.0304 97.2265 15.8676 96.589 15.713 95.8548C15.5584 95.1206 15.437 94.4748 15.3597 94.0001C15.3055 93.7433 15.2796 93.4814 15.2824 93.219Z" fill="#263238"/>
<path d="M19.2291 110.339C19.2291 110.339 15.2188 108.468 14.9925 105.046C14.9908 105.019 14.9963 104.993 15.0086 104.969C15.0208 104.945 15.0393 104.925 15.0621 104.911C15.0848 104.898 15.1109 104.89 15.1375 104.89C15.1642 104.89 15.1904 104.897 15.2133 104.91C15.815 105.289 17.4903 106.605 19.2291 110.339Z" fill="#368ECD"/>
<path d="M15.856 106.186C16.0476 106.364 16.2205 106.562 16.3721 106.776C16.7088 107.204 17.1062 107.704 17.5451 108.256L18.7208 109.732C18.8976 109.925 19.0565 110.134 19.1956 110.356C18.9902 110.195 18.8049 110.009 18.6436 109.804C18.3179 109.448 17.8846 108.937 17.4292 108.358C16.9738 107.778 16.5598 107.243 16.2838 106.848C16.1179 106.643 15.9744 106.421 15.856 106.186Z" fill="#263238"/>
<path d="M27.2134 92.9375C27.2172 92.9705 27.2172 93.0038 27.2134 93.0369C27.2134 93.1141 27.2134 93.2052 27.2134 93.3129C27.2134 93.5889 27.1858 93.9394 27.1664 94.3865C27.114 95.3304 27.0422 96.6442 26.9567 98.2201C26.6807 99.8209 25.8527 101.596 24.7487 103.318C23.9455 104.587 23.0927 105.744 22.3778 106.818C21.717 107.755 21.1221 108.737 20.5976 109.757C20.2547 110.449 19.9775 111.171 19.7696 111.915C19.6979 112.177 19.6454 112.384 19.6151 112.525C19.6029 112.598 19.5835 112.669 19.5571 112.738C19.558 112.664 19.5663 112.591 19.582 112.52C19.6013 112.376 19.6454 112.166 19.7062 111.899C19.8935 111.138 20.158 110.398 20.4955 109.691C21.0085 108.658 21.5961 107.665 22.2536 106.718C22.974 105.636 23.813 104.48 24.6134 103.219C25.7174 101.502 26.5123 99.7547 26.8214 98.1787C26.9318 96.6083 27.0229 95.2945 27.0974 94.3506C27.1333 93.9035 27.1637 93.5447 27.183 93.2797C27.183 93.1693 27.2051 93.0755 27.2134 93.0037C27.211 92.9817 27.211 92.9595 27.2134 92.9375Z" fill="#263238"/>
<path d="M24.8402 103.003C24.8402 103.003 26.5376 98.9156 24.4013 96.2384C24.3848 96.2169 24.3626 96.2004 24.3372 96.1909C24.3118 96.1813 24.2843 96.1789 24.2577 96.1841C24.231 96.1892 24.2064 96.2017 24.1864 96.22C24.1665 96.2384 24.152 96.262 24.1446 96.2881C23.9432 96.9725 23.5926 99.084 24.8402 103.003Z" fill="#368ECD"/>
<path d="M24.5172 97.6655C24.5904 97.9174 24.6358 98.1766 24.6525 98.4383C24.7132 98.9186 24.7794 99.5837 24.8319 100.321C24.8843 101.058 24.9091 101.725 24.9091 102.208C24.9261 102.471 24.9104 102.734 24.8622 102.992C24.8143 102.736 24.7911 102.475 24.7932 102.214C24.7573 101.662 24.7132 101.035 24.6663 100.332C24.6193 99.6279 24.5724 98.9903 24.5365 98.4494C24.5044 98.1894 24.4979 97.9268 24.5172 97.6655Z" fill="#263238"/>
<g opacity="0.3">
<path d="M24.8402 103.003C24.8402 103.003 26.5376 98.9156 24.4013 96.2384C24.3848 96.2169 24.3626 96.2004 24.3372 96.1909C24.3118 96.1813 24.2843 96.1789 24.2577 96.1841C24.231 96.1892 24.2064 96.2017 24.1864 96.22C24.1665 96.2384 24.152 96.262 24.1446 96.2881C23.9432 96.9725 23.5926 99.084 24.8402 103.003Z" fill="black"/>
</g>
<path d="M19.5688 112.851C19.5688 112.851 20.9294 108.642 18.5834 106.147C18.5653 106.127 18.5419 106.113 18.5161 106.105C18.4902 106.098 18.4627 106.097 18.4367 106.105C18.4108 106.112 18.3873 106.126 18.3688 106.146C18.3504 106.165 18.3377 106.19 18.3323 106.216C18.197 106.911 18.0204 109.034 19.5688 112.851Z" fill="#368ECD"/>
<path d="M18.8257 107.554C18.9195 107.8 18.9852 108.056 19.0216 108.316C19.121 108.788 19.2424 109.445 19.3556 110.176C19.4688 110.908 19.546 111.57 19.5847 112.053C19.6222 112.314 19.6277 112.578 19.6012 112.84C19.534 112.587 19.4897 112.328 19.4688 112.067C19.3887 111.515 19.2949 110.9 19.1928 110.201C19.0906 109.503 18.9913 108.874 18.9168 108.336C18.8608 108.079 18.8303 107.817 18.8257 107.554Z" fill="#263238"/>
<g opacity="0.3">
<path d="M19.5688 112.851C19.5688 112.851 20.9294 108.642 18.5834 106.147C18.5653 106.127 18.5419 106.113 18.5161 106.105C18.4902 106.098 18.4627 106.097 18.4367 106.105C18.4108 106.112 18.3873 106.126 18.3688 106.146C18.3504 106.165 18.3377 106.19 18.3323 106.216C18.197 106.911 18.0204 109.034 19.5688 112.851Z" fill="black"/>
</g>
<path d="M26.9873 98.0104C26.9873 98.0104 30.6139 95.4713 30.2469 92.0654C30.2445 92.0384 30.2347 92.0126 30.2185 91.9908C30.2023 91.9691 30.1804 91.9523 30.1552 91.9422C30.13 91.9322 30.1025 91.9294 30.0758 91.9341C30.0491 91.9388 30.0243 91.9508 30.004 91.9688C29.4796 92.4601 28.0554 94.0305 26.9873 98.0104Z" fill="#368ECD"/>
<g opacity="0.3">
<path d="M26.9873 98.0104C26.9873 98.0104 30.6139 95.4713 30.2469 92.0654C30.2445 92.0384 30.2347 92.0126 30.2185 91.9908C30.2023 91.9691 30.1804 91.9523 30.1552 91.9422C30.13 91.9322 30.1025 91.9294 30.0758 91.9341C30.0491 91.9388 30.0243 91.9508 30.004 91.9688C29.4796 92.4601 28.0554 94.0305 26.9873 98.0104Z" fill="black"/>
</g>
<path d="M29.5925 93.3379C29.5193 93.5893 29.4184 93.8318 29.2917 94.061C29.0847 94.4998 28.7838 95.096 28.4333 95.7474C28.0828 96.3987 27.7461 96.9756 27.4839 97.3841C27.3585 97.6148 27.2036 97.8282 27.0229 98.0189C27.1225 97.7767 27.2435 97.5439 27.3845 97.3233L28.287 95.6673L29.1868 94.0113C29.2985 93.7735 29.4344 93.5478 29.5925 93.3379Z" fill="#263238"/>
<path d="M21.0283 108.678C21.0283 108.678 25.3919 107.996 26.5732 104.778C26.5829 104.753 26.5854 104.725 26.5804 104.698C26.5753 104.672 26.5629 104.647 26.5446 104.627C26.5263 104.607 26.5027 104.592 26.4765 104.585C26.4504 104.577 26.4227 104.577 26.3965 104.585C25.7148 104.778 23.7359 105.576 21.0283 108.678Z" fill="#368ECD"/>
<g opacity="0.3">
<path d="M21.0283 108.678C21.0283 108.678 25.3919 107.996 26.5732 104.778C26.5829 104.753 26.5854 104.725 26.5804 104.698C26.5753 104.672 26.5629 104.647 26.5446 104.627C26.5263 104.607 26.5027 104.592 26.4765 104.585C26.4504 104.577 26.4227 104.577 26.3965 104.585C25.7148 104.778 23.7359 105.576 21.0283 108.678Z" fill="black"/>
</g>
<path d="M25.4251 105.631C25.2488 105.823 25.0527 105.996 24.84 106.147C24.4618 106.451 23.9292 106.854 23.3275 107.281C22.7258 107.709 22.1683 108.082 21.757 108.336C21.5408 108.486 21.3073 108.609 21.0615 108.703C21.2567 108.528 21.4673 108.372 21.6908 108.236L23.2336 107.149L24.771 106.045C24.9741 105.885 25.1933 105.746 25.4251 105.631Z" fill="#263238"/>
<path d="M16.8581 116.726L15.583 125.31H23.5318L22.4996 116.726H16.8581Z" fill="#455A64"/>
<path d="M22.8197 119.384C22.8197 119.431 21.3845 119.467 19.6126 119.467C17.8406 119.467 16.4082 119.431 16.4082 119.384C17.4742 119.302 18.5437 119.274 19.6126 119.301C20.6823 119.274 21.7527 119.302 22.8197 119.384Z" fill="#263238"/>
<path d="M22.977 120.06C22.977 120.104 21.4949 120.143 19.665 120.143C17.8351 120.143 16.353 120.104 16.353 120.06C16.353 120.016 17.8351 119.977 19.665 119.977C21.4949 119.977 22.977 120.021 22.977 120.06Z" fill="#263238"/>
</svg>
