<svg xmlns="http://www.w3.org/2000/svg" width="16" height="16" viewBox="0 0 16 16" fill="none">
  <path fill-rule="evenodd" clip-rule="evenodd" d="M2.95334 5.67465C2.99609 5.62477 3.04825 5.5838 3.10684 5.55409C3.16544 5.52438 3.22931 5.5065 3.29481 5.50149C3.36032 5.49647 3.42617 5.50442 3.4886 5.52486C3.55103 5.54531 3.60882 5.57786 3.65867 5.62065L8 9.34132L12.3413 5.62065C12.4426 5.53941 12.5714 5.5007 12.7006 5.51272C12.8299 5.52474 12.9494 5.58655 13.0339 5.68507C13.1184 5.78359 13.1612 5.91111 13.1534 6.04066C13.1456 6.17022 13.0877 6.29166 12.992 6.37932L8.32534 10.3793C8.23472 10.457 8.11933 10.4996 8 10.4996C7.88068 10.4996 7.76528 10.457 7.67467 10.3793L3.008 6.37932C2.90746 6.293 2.8453 6.17029 2.83517 6.03816C2.82505 5.90603 2.86779 5.77529 2.954 5.67465H2.95334Z" fill="black"/>
</svg>
