<?xml version="1.0" encoding="utf-8"?>
<!-- Generator: Adobe Illustrator 27.2.0, SVG Export Plug-In . SVG Version: 6.00 Build 0)  -->
<svg version="1.1" id="Calque_1" xmlns="http://www.w3.org/2000/svg" xmlns:xlink="http://www.w3.org/1999/xlink" x="0px" y="0px"
	 viewBox="0 0 252.7 179.5" style="enable-background:new 0 0 252.7 179.5;" xml:space="preserve">
<style type="text/css">
	.st0{display:none;}
	.st1{fill:#FFFFFF;}
</style>
<rect y="0" class="st0" width="252.7" height="179.5"/>
<polygon class="st1" points="118.9,0 66,30.1 71.8,33.4 112.5,56.8 112.5,64.6 66.4,38.5 66.4,45.4 118.7,75.7 118.7,53.3 92.1,38 
	118.9,22.4 "/>
<polygon class="st1" points="179.6,74.1 138.8,50.7 138.8,42.9 184.9,69 184.9,62.1 132.6,31.8 132.6,54.2 159.2,69.5 132.4,85.1 
	132.4,107.5 185.4,77.4 "/>
<circle class="st1" cx="143.2" cy="11.2" r="10.8"/>
<circle class="st1" cx="108.1" cy="95.6" r="10.8"/>
<path class="st1" d="M0,130.9h12.5c14.1,0,22.5,7.9,22.5,23.6s-8.5,24.1-22.1,24.1H0V130.9z M12,171.7c9.1,0,14.3-5.5,14.3-17.2
	s-5.2-16.8-14.3-16.8H8.5v34H12z"/>
<path class="st1" d="M42.6,160.6c0-11.7,8.9-18.8,18.5-18.8c10.7,0,16.6,7.1,16.6,17c0,1.4-0.1,2.8-0.4,4.2H48.6v-6h23.3l-1.6,1.9
	c0-7.1-3.3-10.7-8.9-10.7c-5.9,0-10.5,4.3-10.5,12.3c0,8.3,5,12.3,12.5,12.3c3.5-0.1,7-1.1,10-2.9l2.9,5.2
	c-4.2,2.7-9.1,4.2-14.1,4.2C51.2,179.5,42.6,172.6,42.6,160.6z"/>
<path class="st1" d="M84.8,142.7h8.5l6.9,18.5c1.3,3.6,2.4,7.2,3.6,10.8h0.3c1.2-3.6,2.2-7.2,3.5-10.8l6.9-18.5h8.1l-14,35.9h-9.6
	L84.8,142.7z"/>
<path class="st1" d="M129,154.5c0-15.6,7.6-24.6,18.6-24.6s18.6,9,18.6,24.6c0,15.8-7.6,25-18.6,25S129,170.3,129,154.5z
	 M158.6,154.5c0-11.5-4.4-18.2-11-18.2s-11,6.7-11,18.2c0,11.7,4.4,18.6,11,18.6S158.6,166.2,158.6,154.5L158.6,154.5z"/>
<path class="st1" d="M175.9,142.9h6l0.6,5.7h0.3c3.6-3.7,7.6-6.6,13.1-6.6c8.3,0,12.1,5.1,12.1,14.4v22.1h-7.3v-21.2
	c0-6.2-2.1-9.1-7.4-9.1c-3.9,0-6.5,1.9-10.2,5.7v24.6h-7.3L175.9,142.9z"/>
<path class="st1" d="M218,160.7c0-11.6,8.8-18.7,18.3-18.7c10.5,0,16.4,6.9,16.4,16.8c0,1.3-0.1,2.7-0.3,4H223v-5.3h24.8l-1.6,1.8
	c0-7.7-3.7-11.6-9.8-11.6c-6.2,0-11.4,4.6-11.4,13c0,8.8,5.5,13.1,13.2,13.1c3.7,0,7.3-1.1,10.4-3.1l2.5,4.6
	c-4.1,2.7-8.9,4.2-13.9,4.2C226.5,179.5,218,172.6,218,160.7z"/>
</svg>
