<svg width="193" height="193" viewBox="0 0 193 193" fill="none" xmlns="http://www.w3.org/2000/svg">
<g id="Developer activity-bro 1">
<g id="freepik--background-simple--inject-35">
<path id="Vector" d="M176.228 80.7164C157.415 48.4931 106.382 59.9689 95.9596 44.2973C90.6212 36.2839 84.6498 26.9697 75.9879 22.1331C67.7314 17.5011 58.1586 15.8761 49.8133 16.486C20.0102 18.6669 7.37645 45.3317 13.1008 74.6137C20.7436 113.673 55.3678 153.574 96.5 153.852C118.016 154.014 138.574 146.294 154.67 135.436L155.029 135.193C171.125 124.234 190.595 105.316 176.228 80.7164Z" fill="#093F4D"/>
<path id="Vector_2" opacity="0.7" d="M176.228 80.7164C157.415 48.4931 106.382 59.9689 95.9596 44.2973C90.6212 36.2839 84.6498 26.9697 75.9879 22.1331C67.7314 17.5011 58.1586 15.8761 49.8133 16.486C20.0102 18.6669 7.37645 45.3317 13.1008 74.6137C20.7436 113.673 55.3678 153.574 96.5 153.852C118.016 154.014 138.574 146.294 154.67 135.436L155.029 135.193C171.125 124.234 190.595 105.316 176.228 80.7164Z" fill="white"/>
</g>
<g id="freepik--Lines--inject-35">
<path id="Vector_3" d="M30.1814 83.0596H28.0892C25.8442 83.0596 23.6911 83.9514 22.1036 85.5389C20.5161 87.1264 19.6243 89.2795 19.6243 91.5246V137.976C19.6243 140.221 20.5161 142.374 22.1036 143.961C23.6911 145.549 25.8442 146.441 28.0892 146.441H56.7922C59.0373 146.441 61.1904 145.549 62.7779 143.961C64.3653 142.374 65.2572 140.221 65.2572 137.976" stroke="#368ECD" stroke-width="0.4258" stroke-linecap="round" stroke-linejoin="round" stroke-dasharray="1.7 1.7"/>
<path id="Vector_4" d="M62.918 39.2293V30.0541C62.918 28.6812 63.4625 27.3644 64.4322 26.3926C65.4019 25.4207 66.7175 24.8732 68.0904 24.8701H105.417C106.791 24.8701 108.11 25.4163 109.082 26.3885C110.054 27.3607 110.601 28.6792 110.601 30.0541" stroke="#368ECD" stroke-width="0.4258" stroke-linecap="round" stroke-linejoin="round" stroke-dasharray="1.7 1.7"/>
</g>
<g id="freepik--Window--inject-35">
<path id="Vector_5" d="M166.188 51.5389V121.042C166.188 123.314 165.286 125.493 163.68 127.1C162.074 128.707 159.895 129.61 157.623 129.611H35.3769C33.1048 129.61 30.9262 128.707 29.32 127.1C27.7138 125.493 26.8115 123.314 26.8115 121.042V51.5389C26.8115 51.3343 26.8115 51.1529 26.8385 50.9368C26.989 48.7747 27.9539 46.7501 29.5385 45.2715C31.1231 43.7929 33.2096 42.9704 35.3769 42.9697H157.623C159.793 42.9706 161.881 43.7954 163.466 45.2772C165.051 46.759 166.015 48.7874 166.161 50.9522C166.181 51.1375 166.188 51.3382 166.188 51.5389Z" fill="white" stroke="#368ECD" stroke-width="0.4258" stroke-linecap="round" stroke-linejoin="round"/>
<path id="Vector_6" d="M30.9805 54.1479H162.456V118.351C162.456 120.481 161.61 122.523 160.104 124.029C158.599 125.534 156.556 126.38 154.427 126.38H39.0131C36.8838 126.38 34.8416 125.534 33.3359 124.029C31.8302 122.523 30.9843 120.481 30.9843 118.351V54.1479H30.9805Z" fill="#368ECD"/>
<path id="Vector_7" opacity="0.2" d="M162.46 54.1479V118.351C162.471 120.469 161.641 122.504 160.152 124.01C158.663 125.515 156.637 126.368 154.52 126.38H38.9204C36.8029 126.368 34.777 125.515 33.2881 124.01C31.7991 122.504 30.969 120.469 30.9803 118.351V54.1479H162.46Z" fill="white"/>
<path id="Vector_8" d="M166.161 50.9519H26.8386C26.9891 48.7898 27.954 46.7653 29.5386 45.2867C31.1232 43.8081 33.2096 42.9855 35.3769 42.9849H157.623C159.79 42.9855 161.877 43.8081 163.461 45.2867C165.046 46.7653 166.011 48.7898 166.161 50.9519Z" fill="#093F4D" stroke="#368ECD" stroke-width="0.4258" stroke-miterlimit="10"/>
<path id="Vector_9" d="M43.9578 46.953C43.9578 47.253 43.8688 47.5463 43.7021 47.7958C43.5354 48.0453 43.2985 48.2397 43.0213 48.3545C42.7441 48.4693 42.4391 48.4994 42.1449 48.4408C41.8506 48.3823 41.5803 48.2378 41.3681 48.0257C41.156 47.8135 41.0115 47.5432 40.953 47.249C40.8944 46.9547 40.9245 46.6497 41.0393 46.3725C41.1541 46.0953 41.3486 45.8584 41.598 45.6917C41.8475 45.525 42.1408 45.436 42.4408 45.436C42.8431 45.436 43.229 45.5959 43.5135 45.8803C43.798 46.1648 43.9578 46.5507 43.9578 46.953Z" fill="#368ECD"/>
<path id="Vector_10" d="M50.3728 46.953C50.3728 47.253 50.2839 47.5463 50.1172 47.7958C49.9505 48.0453 49.7136 48.2397 49.4364 48.3545C49.1592 48.4693 48.8542 48.4994 48.5599 48.4408C48.2656 48.3823 47.9953 48.2378 47.7832 48.0257C47.571 47.8135 47.4265 47.5432 47.368 47.249C47.3095 46.9547 47.3395 46.6497 47.4543 46.3725C47.5692 46.0953 47.7636 45.8584 48.0131 45.6917C48.2625 45.525 48.5558 45.436 48.8558 45.436C49.2582 45.436 49.644 45.5959 49.9285 45.8803C50.213 46.1648 50.3728 46.5507 50.3728 46.953Z" fill="#368ECD"/>
<path id="Vector_11" d="M55.2714 48.47C56.1092 48.47 56.7884 47.7908 56.7884 46.953C56.7884 46.1152 56.1092 45.436 55.2714 45.436C54.4336 45.436 53.7544 46.1152 53.7544 46.953C53.7544 47.7908 54.4336 48.47 55.2714 48.47Z" fill="#368ECD"/>
<path id="Vector_12" d="M162.456 54.1479V118.351C162.456 120.481 161.61 122.523 160.104 124.029C158.599 125.534 156.556 126.38 154.427 126.38H39.013C37.1546 126.38 35.3538 125.735 33.9178 124.555C32.4818 123.375 31.4996 121.734 31.1386 119.911V119.888C31.0405 119.379 30.9914 118.862 30.9919 118.344V54.1479H162.456Z" stroke="#368ECD" stroke-width="0.4258" stroke-miterlimit="10"/>
<path id="Vector_13" d="M162.332 64.0761C161.77 63.76 161.171 63.5125 160.549 63.3388L159.827 60.1157H156.762L156.048 63.3388C155.423 63.5094 154.821 63.757 154.257 64.0761L151.49 62.3043L149.324 64.4621L151.065 67.2297C150.746 67.794 150.499 68.3956 150.328 69.0207L147.105 69.7348V72.7997L150.328 73.5215C150.497 74.1498 150.745 74.7541 151.065 75.3203L149.293 78.1072L151.463 80.2726L154.246 78.5009C154.809 78.8205 155.409 79.0694 156.033 79.242L156.751 82.4613H159.804L160.522 79.242C161.144 79.0677 161.743 78.8189 162.305 78.5009L162.448 78.5935V63.9989L162.332 64.0761ZM158.303 75.2701C157.519 75.2701 156.753 75.0377 156.102 74.6024C155.451 74.167 154.943 73.5483 154.643 72.8244C154.344 72.1005 154.265 71.304 154.419 70.5357C154.572 69.7673 154.949 69.0617 155.504 68.508C156.058 67.9542 156.764 67.5774 157.532 67.425C158.301 67.2726 159.097 67.3516 159.821 67.6519C160.544 67.9523 161.163 68.4605 161.597 69.1123C162.032 69.7641 162.264 70.5301 162.263 71.3136C162.263 71.8335 162.16 72.3483 161.961 72.8286C161.762 73.3088 161.471 73.7452 161.103 74.1126C160.735 74.4801 160.298 74.7714 159.818 74.97C159.337 75.1686 158.822 75.2706 158.303 75.2701Z" fill="#368ECD"/>
<path id="Vector_14" d="M107.096 67.1832V60.7215L100.302 59.2123C99.9356 57.8996 99.4174 56.634 98.7582 55.4411L99.5804 54.1479H67.5038L68.2951 55.4063C67.6277 56.594 67.1092 57.8593 66.7511 59.1737L59.9536 60.6868V67.1639L66.7511 68.6808C67.1092 70.0051 67.6277 71.2806 68.2951 72.4791L64.5624 78.3501L69.1366 82.9204L75.0038 79.1839C76.194 79.8535 77.4601 80.3783 78.775 80.7472L80.2881 87.5215H86.7343L88.2551 80.7318C89.5657 80.3611 90.8278 79.8363 92.0148 79.1685L97.8858 82.9049L102.456 78.3347L98.7466 72.4636C99.4042 71.2726 99.9222 70.0098 100.291 68.7001L107.096 67.1832ZM83.5498 72.3015C81.8985 72.3015 80.2843 71.8119 78.9112 70.8944C77.5382 69.977 76.4681 68.6731 75.8362 67.1474C75.2042 65.6218 75.0389 63.9431 75.361 62.3235C75.6832 60.7039 76.4784 59.2162 77.646 58.0486C78.8137 56.8809 80.3014 56.0858 81.9209 55.7636C83.5405 55.4414 85.2193 55.6068 86.7449 56.2387C88.2705 56.8706 89.5745 57.9408 90.4919 59.3138C91.4093 60.6868 91.899 62.301 91.899 63.9523C91.8995 65.0489 91.6839 66.1348 91.2645 67.148C90.8451 68.1612 90.2301 69.0818 89.4547 69.8572C88.6793 70.6326 87.7587 71.2476 86.7455 71.667C85.7323 72.0864 84.6464 72.302 83.5498 72.3015Z" fill="#368ECD"/>
<path id="Vector_15" d="M64.2228 111.554L64.4968 106.424L59.1816 104.926C58.9349 103.872 58.5697 102.849 58.0931 101.877L61.3046 97.3685L57.8615 93.551L53.0519 96.253C52.1326 95.6746 51.1495 95.2044 50.1222 94.8518L49.2035 89.4015L44.0774 89.166L42.5952 94.4967C41.5391 94.7335 40.5153 95.0964 39.5458 95.5775L35.0412 92.3698L31.2159 95.8091L33.9411 100.622C33.3569 101.538 32.8851 102.52 32.536 103.548L30.992 103.803V110.751L32.1192 111.068C32.353 112.125 32.7146 113.151 33.1961 114.121L30.9805 117.228L31.1271 119.888V119.911L33.4161 122.447L38.2334 119.726C39.1511 120.316 40.1376 120.792 41.1709 121.142L42.0741 126.376L42.1166 126.596L47.2426 126.867L47.3777 126.376L48.7249 121.54C49.7857 121.302 50.8146 120.94 51.7897 120.459L56.2866 123.663L60.108 120.227L57.406 115.41C57.9848 114.496 58.4502 113.515 58.7918 112.488L64.2228 111.554ZM50.6086 103.545C49.7305 102.568 48.5825 101.874 47.3097 101.549C46.037 101.225 44.6967 101.286 43.4585 101.724C42.2202 102.161 41.1396 102.957 40.3533 104.009C39.5671 105.061 39.1105 106.322 39.0413 107.634C38.9722 108.945 39.2936 110.248 39.9649 111.377C40.6362 112.506 41.6272 113.41 42.8126 113.975C43.9979 114.541 45.3244 114.742 46.6242 114.554C47.9239 114.365 49.1386 113.796 50.1145 112.917C51.4175 111.739 52.201 110.094 52.2936 108.34C52.3862 106.587 51.7803 104.868 50.6086 103.56V103.545Z" fill="#368ECD"/>
<path id="Vector_16" d="M105.224 103.907C105.422 103.113 105.527 102.298 105.536 101.479L109.222 99.5494L108.203 95.8091L104.042 96.0021C103.621 95.303 103.12 94.6553 102.549 94.0721L103.78 90.0924L100.422 88.1624L97.6116 91.2273C96.8186 91.0359 96.007 90.9323 95.1914 90.9185L93.2614 87.2322L89.5249 88.2474L89.7218 92.4123C89.0226 92.8336 88.3749 93.3349 87.7918 93.9061L83.8082 92.6748L81.8782 96.0291L84.9662 98.8353C84.7666 99.6267 84.6642 100.439 84.6613 101.256L80.9673 103.186L81.9863 106.922L86.1551 106.725C86.5683 107.428 87.0675 108.076 87.6412 108.655L86.4022 112.616L89.7642 114.546L92.5589 111.504C93.3528 111.704 94.1681 111.806 94.9868 111.809L96.9168 115.499L100.653 114.484L100.487 110.925L100.46 110.315C101.169 109.898 101.825 109.396 102.413 108.821L106.393 110.056L108.037 107.185L108.315 106.698L105.224 103.907ZM96.3957 106.177C95.4375 106.441 94.4224 106.415 93.4792 106.102C92.5359 105.788 91.707 105.202 91.0975 104.416C90.4881 103.631 90.1256 102.683 90.0559 101.691C89.9863 100.7 90.2127 99.7098 90.7065 98.8471C91.2002 97.9844 91.939 97.2878 92.8292 96.8456C93.7194 96.4034 94.7208 96.2355 95.7066 96.3633C96.6923 96.491 97.6179 96.9086 98.3659 97.5632C99.114 98.2177 99.6508 99.0796 99.9083 100.04C100.251 101.319 100.075 102.682 99.4168 103.832C98.7587 104.982 97.6728 105.825 96.3957 106.177Z" fill="#368ECD"/>
<path id="Vector_17" d="M147.962 110.485L148.811 105.351L143.615 103.263C143.497 102.169 143.247 101.093 142.87 100.059L146.611 95.894L143.584 91.648L138.427 93.8367C137.571 93.1504 136.635 92.5698 135.64 92.1074L135.339 86.5142L130.206 85.665L128.102 90.8374C127.012 90.9654 125.941 91.218 124.91 91.5901L120.733 87.8498L116.506 90.876L118.699 96.0291C118.095 96.7824 117.572 97.596 117.136 98.4571C117.078 98.5767 117.016 98.6964 116.962 98.8161L111.373 99.1249L110.52 104.251L111.361 104.591L115.715 106.347C115.834 107.436 116.084 108.506 116.46 109.535L112.712 113.727L115.742 117.973L120.895 115.773C121.749 116.465 122.683 117.051 123.678 117.518L123.968 123.084L129.098 123.933L131.198 118.799C132.289 118.68 133.363 118.429 134.394 118.05L138.562 121.791L142.808 118.761L140.616 113.604C141.314 112.747 141.904 111.807 142.372 110.805L147.962 110.485ZM133.564 110.253C132.484 111.028 131.198 111.465 129.87 111.51C128.541 111.554 127.229 111.203 126.1 110.502C124.971 109.8 124.075 108.78 123.526 107.569C122.977 106.359 122.799 105.013 123.015 103.701C123.231 102.389 123.831 101.171 124.74 100.201C125.648 99.2304 126.824 98.5511 128.118 98.2488C129.412 97.9465 130.767 98.0349 132.012 98.5028C133.256 98.9707 134.333 99.797 135.108 100.877C136.145 102.326 136.565 104.128 136.274 105.887C135.983 107.645 135.005 109.216 133.556 110.253H133.564Z" fill="#368ECD"/>
</g>
<g id="freepik--Graphics--inject-35">
<path id="Vector_18" d="M78.3888 72.4792H38.0209C35.2261 72.4792 32.9604 74.7449 32.9604 77.5397V133.429C32.9604 136.223 35.2261 138.489 38.0209 138.489H78.3888C81.1836 138.489 83.4493 136.223 83.4493 133.429V77.5397C83.4493 74.7449 81.1836 72.4792 78.3888 72.4792Z" fill="#093F4D" stroke="#368ECD" stroke-width="0.4258" stroke-miterlimit="10"/>
<path id="Vector_19" opacity="0.2" d="M78.3888 72.4792H38.0209C35.2261 72.4792 32.9604 74.7449 32.9604 77.5397V133.429C32.9604 136.223 35.2261 138.489 38.0209 138.489H78.3888C81.1836 138.489 83.4493 136.223 83.4493 133.429V77.5397C83.4493 74.7449 81.1836 72.4792 78.3888 72.4792Z" fill="black"/>
<path id="Vector_20" d="M88.1468 82.5268V138.416C88.1473 139.081 88.0168 139.739 87.7627 140.353C87.5086 140.968 87.136 141.526 86.666 141.996C86.196 142.467 85.638 142.84 85.0238 143.094C84.4096 143.349 83.7512 143.48 83.0863 143.48H42.7185C42.0539 143.48 41.396 143.348 40.7822 143.093C40.1684 142.839 39.6109 142.465 39.1413 141.995C38.6718 141.525 38.2994 140.967 38.0456 140.353C37.7917 139.738 37.6614 139.08 37.6619 138.416V82.5268C37.6619 81.1853 38.1945 79.8988 39.1427 78.9498C40.0909 78.0009 41.377 77.4673 42.7185 77.4663H83.0863C84.4285 77.4663 85.7156 77.9995 86.6646 78.9485C87.6137 79.8975 88.1468 81.1847 88.1468 82.5268Z" fill="white" stroke="#368ECD" stroke-width="0.4258" stroke-linecap="round" stroke-linejoin="round"/>
<path id="Vector_21" d="M88.1468 82.5268V85.5183H37.6619V82.5268C37.6619 81.1853 38.1945 79.8988 39.1427 78.9498C40.0909 78.0009 41.377 77.4673 42.7185 77.4663H83.0863C84.4285 77.4663 85.7156 77.9995 86.6646 78.9485C87.6137 79.8975 88.1468 81.1847 88.1468 82.5268Z" fill="#093F4D" stroke="#368ECD" stroke-width="0.4258" stroke-miterlimit="10"/>
<path id="Vector_22" d="M54.8311 88.9844H42.4097V91.0688H54.8311V88.9844Z" fill="#093F4D"/>
<path id="Vector_23" d="M54.8311 107.663H42.4097V109.747H54.8311V107.663Z" fill="#093F4D"/>
<path id="Vector_24" d="M54.8311 124.601H42.4097V126.685H54.8311V124.601Z" fill="#093F4D"/>
<path id="Vector_25" d="M77.6862 94.1453H42.4097V95.6738H77.6862V94.1453Z" fill="#368ECD"/>
<path id="Vector_26" d="M71.3249 97.0674H42.4097V98.5573H71.3249V97.0674Z" fill="#368ECD"/>
<path id="Vector_27" d="M75.1116 99.9431H42.4097V101.433H75.1116V99.9431Z" fill="#368ECD"/>
<path id="Vector_28" d="M75.1116 102.815H42.4097V104.305H75.1116V102.815Z" fill="#368ECD"/>
<path id="Vector_29" d="M77.6862 111.083H42.4097V112.612H77.6862V111.083Z" fill="#368ECD"/>
<path id="Vector_30" d="M71.3249 114.005H42.4097V115.495H71.3249V114.005Z" fill="#368ECD"/>
<path id="Vector_31" d="M75.1116 116.881H42.4097V118.371H75.1116V116.881Z" fill="#368ECD"/>
<path id="Vector_32" d="M77.6862 129.681H42.4097V131.209H77.6862V129.681Z" fill="#368ECD"/>
<path id="Vector_33" d="M71.3249 132.606H42.4097V134.096H71.3249V132.606Z" fill="#368ECD"/>
<path id="Vector_34" d="M75.1116 135.482H42.4097V136.972H75.1116V135.482Z" fill="#368ECD"/>
<path id="Vector_35" d="M145.047 38.7118V61.3006C145.047 62.0932 144.891 62.878 144.588 63.6103C144.284 64.3425 143.839 65.0077 143.279 65.568C142.718 66.1283 142.053 66.5726 141.32 66.8756C140.588 67.1786 139.803 67.3343 139.01 67.3337H86.985C86.1924 67.3343 85.4075 67.1786 84.6751 66.8756C83.9426 66.5726 83.2771 66.1283 82.7164 65.568C82.1558 65.0077 81.7111 64.3425 81.4076 63.6103C81.1042 62.878 80.948 62.0932 80.948 61.3006V38.7118C80.949 37.111 81.5854 35.5761 82.7173 34.4441C83.8493 33.3122 85.3842 32.6758 86.985 32.6748H139.01C140.611 32.6748 142.147 33.3108 143.279 34.443C144.411 35.5752 145.047 37.1107 145.047 38.7118Z" fill="white" stroke="#222221" stroke-width="0.4258" stroke-miterlimit="10"/>
<path id="Vector_36" d="M145.047 38.7118V39.2291H80.948V38.7118C80.949 37.111 81.5854 35.5761 82.7173 34.4441C83.8493 33.3122 85.3842 32.6758 86.985 32.6748H139.01C140.611 32.6748 142.147 33.3108 143.279 34.443C144.411 35.5752 145.047 37.1107 145.047 38.7118Z" fill="#093F4D" stroke="#368ECD" stroke-width="0.4258" stroke-miterlimit="10"/>
<path id="Vector_37" d="M90.3664 37.0328C90.237 37.1626 90.0719 37.2511 89.8921 37.287C89.7124 37.3229 89.526 37.3047 89.3566 37.2346C89.1872 37.1646 89.0424 37.0459 88.9405 36.8935C88.8386 36.7411 88.7842 36.5619 88.7842 36.3786C88.7842 36.1952 88.8386 36.016 88.9405 35.8636C89.0424 35.7112 89.1872 35.5925 89.3566 35.5225C89.526 35.4524 89.7124 35.4342 89.8921 35.4701C90.0719 35.506 90.237 35.5945 90.3664 35.7243C90.5387 35.8984 90.6354 36.1336 90.6354 36.3786C90.6354 36.6235 90.5387 36.8587 90.3664 37.0328Z" fill="#368ECD"/>
<path id="Vector_38" d="M94.6587 37.0328C94.5292 37.1626 94.3641 37.2511 94.1844 37.287C94.0046 37.3229 93.8182 37.3047 93.6488 37.2346C93.4794 37.1646 93.3346 37.0459 93.2327 36.8935C93.1308 36.7411 93.0764 36.5619 93.0764 36.3786C93.0764 36.1952 93.1308 36.016 93.2327 35.8636C93.3346 35.7112 93.4794 35.5925 93.6488 35.5225C93.8182 35.4524 94.0046 35.4342 94.1844 35.4701C94.3641 35.506 94.5292 35.5945 94.6587 35.7243C94.831 35.8984 94.9276 36.1336 94.9276 36.3786C94.9276 36.6235 94.831 36.8587 94.6587 37.0328Z" fill="#368ECD"/>
<path id="Vector_39" d="M98.9509 37.0328C98.8214 37.1626 98.6564 37.2511 98.4766 37.287C98.2968 37.3229 98.1105 37.3047 97.9411 37.2346C97.7716 37.1646 97.6268 37.0459 97.5249 36.8935C97.423 36.7411 97.3687 36.5619 97.3687 36.3786C97.3687 36.1952 97.423 36.016 97.5249 35.8636C97.6268 35.7112 97.7716 35.5925 97.9411 35.5225C98.1105 35.4524 98.2968 35.4342 98.4766 35.4701C98.6564 35.506 98.8214 35.5945 98.9509 35.7243C99.1232 35.8984 99.2199 36.1336 99.2199 36.3786C99.2199 36.6235 99.1232 36.8587 98.9509 37.0328Z" fill="#368ECD"/>
<path id="Vector_40" d="M105.988 43.3826H85.0356V61.4937H105.988V43.3826Z" stroke="#368ECD" stroke-width="0.4258" stroke-linecap="round" stroke-linejoin="round" stroke-dasharray="1.7 1.7"/>
<path id="Vector_41" d="M133.336 43.3826H109.222V44.6564H133.336V43.3826Z" fill="#368ECD"/>
<path id="Vector_42" d="M127.72 46.0188H109.222V47.2887H127.72V46.0188Z" fill="#368ECD"/>
<path id="Vector_43" d="M136.764 48.6436H109.222V49.9289H136.764V48.6436Z" fill="#368ECD"/>
<path id="Vector_44" d="M132.676 51.2029H109.222V52.4883H132.676V51.2029Z" fill="#368ECD"/>
<path id="Vector_45" d="M146.8 94.7747H135.007C133.615 94.7747 132.487 95.9032 132.487 97.2952V104.216C132.487 105.608 133.615 106.737 135.007 106.737H146.8C148.192 106.737 149.32 105.608 149.32 104.216V97.2952C149.32 95.9032 148.192 94.7747 146.8 94.7747Z" fill="white" stroke="#368ECD" stroke-width="0.4258" stroke-linecap="round" stroke-linejoin="round"/>
<path id="Vector_46" d="M137.918 98.3721L134.679 100.402L137.686 103.066" stroke="#368ECD" stroke-width="0.4258" stroke-linecap="round" stroke-linejoin="round"/>
<path id="Vector_47" d="M143.816 103.259L146.726 100.781L143.368 98.5806" stroke="#368ECD" stroke-width="0.4258" stroke-linecap="round" stroke-linejoin="round"/>
<path id="Vector_48" d="M139.493 104.787L141.882 97.2913" stroke="#368ECD" stroke-width="0.4258" stroke-linecap="round" stroke-linejoin="round"/>
</g>
<g id="freepik--Character--inject-35">
<path id="Vector_49" d="M114.588 170.021C114.588 170.021 103.394 173.229 101.831 173.785C100.41 174.287 96.5579 175.638 93.6667 175.217C93.3876 175.177 93.1116 175.117 92.8407 175.039C89.9109 174.167 88.5947 173.352 88.2087 171.511C87.8227 169.67 89.2818 168.311 90.6868 167.443C92.0918 166.574 99.7115 165.667 99.7115 165.667L101.553 166.208L114.588 170.021Z" fill="#093F4D"/>
<path id="Vector_50" d="M93.6667 175.217C93.3876 175.177 93.1116 175.117 92.8407 175.039C89.9109 174.167 88.5947 173.352 88.2087 171.511C87.8227 169.67 89.2818 168.311 90.6868 167.443C92.0918 166.574 99.7115 165.667 99.7115 165.667L101.553 166.208C99.8852 166.98 93.6783 167.4 92.3234 168.18C90.9686 168.96 90.3162 170.427 91.1153 172.426C91.5437 173.468 92.6863 174.491 93.6667 175.217Z" fill="white"/>
<path id="Vector_51" d="M112.905 170.477C112.905 170.477 104.498 172.654 101.163 174.048C97.8279 175.441 91.4705 176.051 89.197 173.179C86.9234 170.307 88.9345 167.829 91.2003 167.277C93.4661 166.725 98.0479 165.857 100.549 166.208" stroke="#368ECD" stroke-width="0.4258" stroke-linecap="round" stroke-linejoin="round"/>
<path id="Vector_52" d="M93.8327 175.066C93.8327 175.066 89.5558 172.72 90.9763 169.431C92.0262 167.007 97.7313 167.532 100.557 166.208" stroke="#368ECD" stroke-width="0.4258" stroke-linecap="round" stroke-linejoin="round"/>
<path id="Vector_53" d="M148.683 175.738C148.568 176.896 148.162 177.981 147.004 178.664C146.232 179.119 145.136 179.39 143.565 179.374C139.639 179.324 132.259 176.518 132.259 176.518L125.35 172.696L128.943 167.011L129.928 165.467L132.467 166.038C132.467 166.038 134.571 167.231 136.686 168.18C138.802 169.13 143.939 169.338 145.75 170.793C147.56 172.249 148.88 173.831 148.683 175.738Z" fill="#093F4D"/>
<path id="Vector_54" d="M148.683 175.738C148.568 176.896 148.162 177.981 147.004 178.664C147.338 177.526 147.27 176.307 146.811 175.213C146.039 173.48 143.526 171.951 140.222 171.697C136.918 171.442 134.39 169.898 133.066 169.207C132.031 168.67 129.85 167.497 128.943 167.011L129.928 165.467L132.468 166.038C132.468 166.038 134.571 167.231 136.687 168.18C138.802 169.13 143.939 169.338 145.75 170.793C147.56 172.249 148.88 173.831 148.683 175.738Z" fill="white"/>
<path id="Vector_55" d="M126.882 173.769C131.856 176.661 137.352 178.538 143.055 179.293C144.314 179.444 145.777 179.467 146.618 178.521C146.842 178.248 147.009 177.933 147.108 177.594C147.208 177.255 147.238 176.9 147.197 176.549C147.047 174.773 145.553 173.368 143.916 172.662C142.28 171.955 140.477 171.793 138.736 171.403C137.005 171.013 135.331 170.401 133.757 169.581C132.506 168.929 131.298 168.138 129.92 167.844C128.542 167.551 126.901 167.906 126.164 169.11" stroke="#368ECD" stroke-width="0.4258" stroke-linecap="round" stroke-linejoin="round"/>
<path id="Vector_56" d="M146.155 179.004C146.802 178.694 147.367 178.237 147.806 177.67C148.245 177.103 148.546 176.442 148.683 175.738C148.934 174.067 147.981 172.384 146.641 171.357C145.302 170.33 143.623 169.844 141.967 169.5C140.311 169.157 138.617 168.925 137.03 168.296C134.61 167.346 132.22 165.478 129.696 166.146" stroke="#368ECD" stroke-width="0.4258" stroke-linecap="round" stroke-linejoin="round"/>
<path id="Vector_57" d="M134.679 113.97L122.987 109.524L122.84 109.466C122.84 109.466 122.883 109.157 122.918 108.694C122.991 107.76 123.03 106.239 122.59 105.725C121.937 104.953 120.092 105.602 118.29 104.776C116.487 103.95 113.156 105.428 113.156 105.428C113.156 105.428 110.747 104.984 109.682 106.721C109.141 108.122 109.327 110.195 109.327 110.195L109.107 110.272C107.713 110.794 100.132 113.646 98.5302 114.792C96.7585 116.047 94.7976 128.928 94.1684 132.711C93.5392 136.493 92.4198 139.902 92.9872 141.203C93.5547 142.503 101.699 148.776 106.385 150.393C111.071 152.011 127.689 151.551 127.689 151.551C127.689 151.551 127.959 151.478 128.441 151.324C131.251 150.42 141.222 146.692 146.514 137.937C146.522 137.952 141.396 121.15 134.679 113.97ZM103.089 135.636C102.228 136.246 102.703 138.609 102.703 138.609L101.24 137.319L104.915 128.283L106.482 135.231C106.482 135.231 103.95 135.03 103.089 135.636ZM132.487 141.376C132.081 141.585 133.645 137.242 132.903 136.258C132.162 135.274 129.927 135.366 129.927 135.366L130.117 134.181L131.441 127.388L131.881 126.867C131.881 126.867 136.428 134.66 137.242 137.408C137.242 137.416 132.286 141.376 132.487 141.376Z" fill="#093F4D"/>
<path id="Vector_58" d="M112.604 85.7886L106.567 92.1962C106.567 92.1962 105.737 92.9334 106.065 94.7901C106.393 96.6468 107.165 98.2641 107.748 98.3722C108.209 98.453 108.677 98.4943 109.145 98.4957C109.145 98.4957 110.438 101.298 111.357 102.398C111.357 102.398 111.674 106.725 111.504 107.926C111.504 107.926 113.673 109.821 115.715 110.06C117.757 110.3 120.911 107.173 120.911 107.173L121.683 103.344C121.683 103.344 123.535 100.534 123.659 99.7849C123.782 99.0361 124.632 99.2291 125.049 98.8585C125.465 98.488 126.427 96.8398 126.593 95.2803C126.758 93.7209 126.762 91.9298 124.952 92.4548C123.381 92.0341 124.365 88.7145 124.365 88.7145L121.605 86.2827L112.604 85.7886Z" fill="white"/>
<path id="Vector_59" opacity="0.5" d="M122.987 109.524C122.896 109.762 122.792 109.995 122.675 110.222C121.679 112.098 117.34 115.676 117.34 115.676L116.028 111.643L115.31 115.676C113.862 115.043 109.446 111.218 109.446 111.218C109.446 111.218 109.296 110.859 109.115 110.3L109.335 110.222C109.335 110.222 109.149 108.134 109.69 106.748C110.747 105.011 113.164 105.455 113.164 105.455C113.164 105.455 116.495 103.977 118.297 104.803C120.1 105.629 121.945 104.988 122.597 105.752C123.25 106.517 122.848 109.481 122.848 109.481L122.987 109.524Z" fill="white"/>
<path id="Vector_60" opacity="0.2" d="M134.679 113.97L122.987 109.524L122.841 109.466C122.841 109.466 122.883 109.157 122.918 108.694L122.675 110.211L120.945 112.557C122.794 113.238 124.599 114.032 126.349 114.935C127.187 115.384 127.871 116.075 128.312 116.917C128.752 117.76 128.929 118.715 128.82 119.66L126.666 138.091L125.782 148.556L128.449 151.323C131.259 150.42 141.23 146.691 146.522 137.937C146.522 137.952 141.396 121.15 134.679 113.97ZM132.487 141.376C132.081 141.585 133.645 137.242 132.904 136.258C132.162 135.274 129.928 135.366 129.928 135.366L130.117 134.181L131.441 127.388L131.881 126.866C131.881 126.866 136.428 134.66 137.242 137.408C137.242 137.416 132.286 141.376 132.487 141.376Z" fill="black"/>
<path id="Vector_61" opacity="0.2" d="M107.258 136.258L105.44 130.182C105.44 130.182 102.178 119.062 99.9432 116.321L100.53 124.141C100.53 124.141 98.5999 133.483 96.8359 136.258C95.0719 139.033 94.6782 139.732 96.8359 139.732C98.9937 139.732 104.247 143.916 104.247 143.916L103.842 140.442L107.258 136.258ZM102.676 138.609L101.213 137.319L104.888 128.283L106.455 135.231C106.455 135.231 103.938 135.042 103.078 135.648C102.217 136.254 102.676 138.609 102.676 138.609Z" fill="black"/>
<path id="Vector_62" d="M111.357 102.398C111.357 102.398 111.689 105.675 111.357 107.173" stroke="#368ECD" stroke-width="0.4258" stroke-linecap="round" stroke-linejoin="round"/>
<path id="Vector_63" d="M121.246 106.733C121.25 105.679 121.372 104.629 121.609 103.602" stroke="#368ECD" stroke-width="0.4258" stroke-linecap="round" stroke-linejoin="round"/>
<path id="Vector_64" d="M122.123 88.2319C122.123 88.2319 124.107 90.7216 124.003 92.6053C123.898 94.489 123.752 96.7201 123.802 98.9048C123.852 101.09 120.293 105.668 118.463 106.073C116.634 106.478 115.059 106.582 113.889 105.413C112.72 104.243 111.55 102.618 110.029 100.534C108.509 98.4494 108.871 93.8753 108.871 93.8753" stroke="#368ECD" stroke-width="0.4258" stroke-linecap="round" stroke-linejoin="round"/>
<path id="Vector_65" d="M117.344 95.6162C117.223 96.3002 117.171 96.9947 117.19 97.689C117.15 98.2742 117.332 98.853 117.699 99.3102C117.919 99.5341 118.236 99.7155 118.278 100.024C118.277 100.163 118.238 100.299 118.166 100.418C118.094 100.537 117.992 100.635 117.869 100.7C117.621 100.825 117.383 100.967 117.155 101.124" stroke="#368ECD" stroke-width="0.4258" stroke-linecap="round" stroke-linejoin="round"/>
<path id="Vector_66" d="M114.206 101.364C114.206 101.364 114.434 102.842 116.414 103.151" stroke="#368ECD" stroke-width="0.4258" stroke-linecap="round" stroke-linejoin="round"/>
<path id="Vector_67" d="M114.41 96.7432C114.41 97.1717 114.225 97.5152 113.997 97.5152C113.769 97.5152 113.584 97.1717 113.584 96.7432C113.584 96.3147 113.769 95.9712 113.997 95.9712C114.225 95.9712 114.41 96.3186 114.41 96.7432Z" fill="#368ECD"/>
<path id="Vector_68" d="M120.32 96.9285C120.32 97.357 120.135 97.7005 119.907 97.7005C119.679 97.7005 119.494 97.3531 119.494 96.9285C119.494 96.5039 119.679 96.1565 119.907 96.1565C120.135 96.1565 120.32 96.5 120.32 96.9285Z" fill="#368ECD"/>
<path id="Vector_69" d="M119.127 95.0563C119.127 95.0563 121.057 93.1263 122.675 95.2802" stroke="#368ECD" stroke-width="0.851597" stroke-linecap="round" stroke-linejoin="round"/>
<path id="Vector_70" d="M115.063 95.0949C115.063 95.0949 113.843 93.7284 111.921 95.0949" stroke="#368ECD" stroke-width="0.851597" stroke-linecap="round" stroke-linejoin="round"/>
<path id="Vector_71" d="M111.504 104.22C111.504 104.22 112.681 107.462 115.31 108.385C117.938 109.308 121.428 104.525 121.428 104.525L121.246 103.904C121.246 103.904 118.958 106.876 116.414 106.37C113.87 105.864 111.357 102.414 111.357 102.414L111.504 104.22Z" fill="#368ECD"/>
<path id="Vector_72" d="M109.145 98.372C109.145 98.372 107.578 98.924 107.161 97.7042C106.744 96.4845 105.316 93.2691 106.567 92.196C107.818 91.1229 108.821 93.6126 108.821 93.6126" stroke="#368ECD" stroke-width="0.4258" stroke-linecap="round" stroke-linejoin="round"/>
<path id="Vector_73" d="M123.798 99.0361C123.798 99.0361 125.253 99.3295 125.67 98.1097C126.087 96.89 127.515 93.6746 126.265 92.6015C125.014 91.5284 124.01 94.0181 124.01 94.0181" stroke="#368ECD" stroke-width="0.4258" stroke-linecap="round" stroke-linejoin="round"/>
<path id="Vector_74" d="M108.821 96.7432C109.365 96.6574 109.857 96.3676 110.195 95.9326C110.402 95.5508 110.533 95.1327 110.581 94.7013C110.725 93.8804 110.797 93.0487 110.797 92.2154C110.78 91.8899 110.81 91.5636 110.886 91.2466C111.002 90.9275 111.181 90.6349 111.411 90.3858C111.955 89.745 112.615 89.2046 113.137 88.5407C113.416 88.2274 113.628 87.8605 113.761 87.4622C113.894 87.064 113.944 86.643 113.909 86.2247C115.103 87.2093 116.498 87.9204 117.997 88.3078C119.495 88.6953 121.06 88.7497 122.582 88.4674C125.342 87.927 127.986 85.5068 127.666 82.4651C127.605 81.9551 127.386 81.4769 127.04 81.0975C126.694 80.7181 126.238 80.4567 125.736 80.3498C124.373 80.0101 123.149 80.7358 121.914 81.2029C119.664 82.0521 117.46 80.593 115.186 80.3498C113.256 80.1375 110.851 80.3807 109.84 82.3145C109.84 82.3145 106.366 82.7237 104.822 85.5955C103.278 88.4674 106.2 92.4393 106.2 92.4393C106.2 92.4393 107.358 91.0188 108.875 93.8907L108.821 96.7432Z" fill="#368ECD"/>
<path id="Vector_75" d="M122.362 87.4986C122.362 87.4986 121.459 92.2078 123.817 94.489C123.817 94.489 124.335 93.0724 124.856 92.725C125.231 91.8893 125.39 90.9724 125.318 90.0589C125.246 89.1455 124.945 88.2649 124.443 87.4986C122.698 84.758 122.362 87.4986 122.362 87.4986Z" fill="#368ECD"/>
<path id="Vector_76" opacity="0.2" d="M126.662 82.1409C126.455 82.7834 126.104 83.3702 125.636 83.8565C125.167 84.3428 124.594 84.7158 123.96 84.9471C120.687 86.2827 117.51 84.8043 114.229 84.5148C111.554 84.2754 108.601 86.6918 108.412 89.4401" stroke="white" stroke-width="0.4258" stroke-linecap="round" stroke-linejoin="round"/>
<path id="Vector_77" opacity="0.2" d="M106.393 88.7144C106.433 87.6299 106.781 86.5792 107.396 85.6851C108.012 84.791 108.868 84.0905 109.867 83.6655" stroke="white" stroke-width="0.4258" stroke-linecap="round" stroke-linejoin="round"/>
<path id="Vector_78" d="M110.601 106.733C112.04 108.233 113.777 109.416 115.7 110.207C115.7 110.207 119.618 109.068 121.609 106.347" stroke="#368ECD" stroke-width="0.4258" stroke-linecap="round" stroke-linejoin="round"/>
<path id="Vector_79" d="M114.604 99.8862C116.344 99.0881 117.108 97.0305 116.31 95.2904C115.512 93.5503 113.454 92.7868 111.714 93.5849C109.974 94.383 109.21 96.4406 110.009 98.1807C110.807 99.9208 112.864 100.684 114.604 99.8862Z" stroke="#368ECD" stroke-width="0.4258" stroke-linecap="round" stroke-linejoin="round"/>
<path id="Vector_80" d="M121.321 100.191C123.221 99.9581 124.573 98.2286 124.339 96.3285C124.106 94.4284 122.376 93.0772 120.476 93.3105C118.576 93.5438 117.225 95.2733 117.458 97.1734C117.692 99.0735 119.421 100.425 121.321 100.191Z" stroke="#368ECD" stroke-width="0.4258" stroke-linecap="round" stroke-linejoin="round"/>
<path id="Vector_81" d="M111.357 105.44C111.006 105.532 110.677 105.694 110.39 105.916C110.103 106.138 109.863 106.416 109.686 106.733C109.072 107.814 109.443 111.214 109.443 111.214C109.443 111.214 112.612 114.349 115.31 115.673L116.105 111.199L117.34 115.673C117.34 115.673 121.517 112.72 122.675 110.222C122.675 110.222 123.061 107.308 122.675 106.362C122.587 106.1 122.42 105.871 122.197 105.707C121.973 105.543 121.705 105.453 121.428 105.448" stroke="#368ECD" stroke-width="0.4258" stroke-linecap="round" stroke-linejoin="round"/>
<path id="Vector_82" d="M106.393 135.37C106.393 135.37 105.154 127.071 103.506 123.686" stroke="#368ECD" stroke-width="0.4258" stroke-linecap="round" stroke-linejoin="round"/>
<path id="Vector_83" d="M99.9431 116.321C100.903 117.685 101.759 119.118 102.506 120.609" stroke="#368ECD" stroke-width="0.4258" stroke-linecap="round" stroke-linejoin="round"/>
<path id="Vector_84" d="M132.487 122.516C132.82 121.129 133.276 119.774 133.849 118.467" stroke="#368ECD" stroke-width="0.4258" stroke-linecap="round" stroke-linejoin="round"/>
<path id="Vector_85" d="M129.927 135.37C129.927 135.37 130.819 129.681 131.885 124.995" stroke="#368ECD" stroke-width="0.4258" stroke-linecap="round" stroke-linejoin="round"/>
<path id="Vector_86" d="M131.441 127.38C132.303 126.237 133.514 125.408 134.892 125.018" stroke="#368ECD" stroke-width="0.4258" stroke-linecap="round" stroke-linejoin="round"/>
<path id="Vector_87" d="M122.844 109.466C122.844 109.466 130.036 112.342 134.679 113.974C134.679 113.974 140.392 119.344 146.518 137.953C146.518 137.953 140.905 147.394 130.229 150.42" stroke="#368ECD" stroke-width="0.4258" stroke-linecap="round" stroke-linejoin="round"/>
<path id="Vector_88" d="M132.082 141.712L137.242 137.416C137.242 137.416 139.971 135.343 142.808 136.76" stroke="#368ECD" stroke-width="0.4258" stroke-linecap="round" stroke-linejoin="round"/>
<path id="Vector_89" d="M131.885 126.867C131.885 126.867 136.15 133.17 137.242 137.416" stroke="#368ECD" stroke-width="0.4258" stroke-linecap="round" stroke-linejoin="round"/>
<path id="Vector_90" d="M102.734 138.848L101.225 137.416C101.225 137.416 98.9859 137.03 96.446 138.725" stroke="#368ECD" stroke-width="0.4258" stroke-linecap="round" stroke-linejoin="round"/>
<path id="Vector_91" d="M101.225 137.416C101.225 137.416 103.101 131.24 104.95 128.079" stroke="#368ECD" stroke-width="0.4258" stroke-linecap="round" stroke-linejoin="round"/>
<path id="Vector_92" d="M109.334 110.222C109.334 110.222 98.9858 114.106 97.9707 115.24C96.9555 116.375 93.0993 138.088 92.9951 140.574C92.9063 142.797 100.966 147.788 104.961 149.892" stroke="#368ECD" stroke-width="0.4258" stroke-linecap="round" stroke-linejoin="round"/>
<path id="Vector_93" d="M117.074 117.56C117.074 117.695 117.034 117.827 116.959 117.94C116.884 118.052 116.777 118.14 116.652 118.191C116.527 118.243 116.39 118.257 116.257 118.23C116.125 118.204 116.003 118.139 115.907 118.043C115.812 117.948 115.747 117.826 115.72 117.693C115.694 117.561 115.708 117.424 115.759 117.299C115.811 117.174 115.899 117.067 116.011 116.992C116.123 116.917 116.255 116.877 116.39 116.877C116.48 116.876 116.569 116.894 116.653 116.928C116.736 116.962 116.811 117.012 116.875 117.076C116.938 117.139 116.989 117.215 117.023 117.298C117.057 117.381 117.074 117.47 117.074 117.56Z" fill="#368ECD"/>
<path id="Vector_94" d="M129.047 153.929H105.501C105.355 153.929 105.215 153.871 105.111 153.767C105.008 153.664 104.949 153.524 104.949 153.377C104.949 153.231 105.008 153.09 105.111 152.987C105.215 152.883 105.355 152.825 105.501 152.825H129.047C129.194 152.825 129.334 152.883 129.438 152.987C129.541 153.09 129.599 153.231 129.599 153.377C129.599 153.524 129.541 153.664 129.438 153.767C129.334 153.871 129.194 153.929 129.047 153.929Z" fill="#368ECD"/>
<path id="Vector_95" d="M129.874 152.084L133.027 137.262C133.076 137.032 133.073 136.794 133.018 136.565C132.963 136.337 132.858 136.124 132.71 135.941C132.562 135.759 132.375 135.612 132.163 135.511C131.95 135.41 131.718 135.358 131.483 135.359H103.962C103.729 135.359 103.498 135.41 103.288 135.51C103.077 135.61 102.892 135.755 102.744 135.935C102.596 136.115 102.49 136.326 102.434 136.552C102.377 136.778 102.372 137.014 102.418 137.242L105.247 151.571C105.316 151.923 105.504 152.24 105.778 152.471C106.053 152.702 106.398 152.832 106.756 152.841L128.291 153.335C128.659 153.343 129.019 153.222 129.307 152.994C129.596 152.766 129.797 152.444 129.874 152.084Z" fill="white" stroke="#368ECD" stroke-width="0.4258" stroke-linecap="round" stroke-linejoin="round"/>
<path id="Vector_96" d="M119.83 143.912C119.829 144.347 119.7 144.771 119.458 145.132C119.216 145.492 118.873 145.773 118.471 145.939C118.07 146.104 117.629 146.147 117.203 146.062C116.777 145.977 116.386 145.767 116.079 145.46C115.772 145.153 115.564 144.762 115.479 144.336C115.395 143.91 115.438 143.468 115.605 143.067C115.771 142.666 116.053 142.323 116.414 142.082C116.775 141.841 117.199 141.712 117.634 141.712C117.922 141.712 118.208 141.769 118.475 141.88C118.742 141.99 118.984 142.152 119.188 142.357C119.392 142.561 119.554 142.804 119.664 143.071C119.774 143.338 119.83 143.624 119.83 143.912Z" fill="#368ECD"/>
<path id="Vector_97" d="M124.149 136.775H127.419" stroke="#368ECD" stroke-width="0.4258" stroke-linecap="round" stroke-linejoin="round"/>
<path id="Vector_98" d="M108.535 136.775H120.945" stroke="#368ECD" stroke-width="0.4258" stroke-linecap="round" stroke-linejoin="round"/>
<path id="Vector_99" d="M129.928 167.821L127.419 174.406C127.419 174.406 121.019 172.793 112.824 171.114C104.251 169.358 95.2995 167.084 90.6559 158.936C90.0924 157.944 89.7141 156.77 89.9804 155.658C90.6482 152.844 94.3113 152.08 96.7238 151.798C98.2405 151.634 99.7647 151.549 101.29 151.544C102.062 151.544 104.629 151.123 105.251 151.582C106.184 152.263 107.181 152.854 108.227 153.346C109.597 153.929 129.599 152.825 129.599 152.825C129.947 152.066 130.16 151.252 130.229 150.42C133.375 148.822 140.651 147.471 143.739 148.07C148.575 149.008 151.397 151.829 150.86 154.786C150.324 157.743 139.639 165.671 129.928 167.821Z" fill="#368ECD"/>
<path id="Vector_100" d="M129.928 167.821C129.928 167.821 123.84 166.208 118.869 162.85C113.897 159.491 110.014 155.593 103.085 156.4" stroke="white" stroke-width="0.4258" stroke-linecap="round" stroke-linejoin="round"/>
<path id="Vector_101" d="M117.73 162.058C120.872 161.155 123.176 159.121 125.697 157.172C128.356 155.038 131.211 153.161 134.224 151.567" stroke="white" stroke-width="0.4258" stroke-linecap="round" stroke-linejoin="round"/>
<path id="Vector_102" d="M116.622 97.2913H117.545" stroke="#368ECD" stroke-width="0.4258" stroke-linecap="round" stroke-linejoin="round"/>
</g>
</g>
</svg>
