<svg xmlns="http://www.w3.org/2000/svg" width="200" height="200" viewBox="0 0 200 200" fill="none">
  <path
    d="M40.488 163.328C51.9358 163.328 61.216 157.97 61.216 151.36C61.216 144.75 51.9358 139.392 40.488 139.392C29.0403 139.392 19.76 144.75 19.76 151.36C19.76 157.97 29.0403 163.328 40.488 163.328Z"
    fill="#E0E0E0"/>
  <path
    d="M47.276 139.2C47.236 136.46 48.564 120.06 48.564 120.06L40.4 123.948C41.2 133.884 41.876 138.624 41.852 139.428C41.8115 139.558 41.7912 139.692 41.792 139.828C41.708 141.636 43.792 142.728 45.428 144.024C46.8062 145.166 48.2781 146.189 49.828 147.084C51.028 147.728 53.492 147.916 53.828 147.184C51.86 145.584 49.58 143.852 48.04 142.072C47.316 141.2 47.308 141.104 47.276 139.2Z"
    fill="#9E6767"/>
  <path
    d="M57.224 149.308C57.328 149.308 57.432 150.42 56.824 150.856C56.144 151.356 54.176 152.136 51.648 151.688C49.12 151.24 47.792 150.4 46.8 149.552C45.808 148.704 44.452 147.468 43.312 147.152C42.256 146.868 41.116 146.352 40.788 146.016C40.46 145.68 40.58 144.288 40.58 144.288L57.224 149.308Z"
    fill="black"/>
  <path
    d="M49.692 142.776C49.536 142.608 49.384 142.44 49.24 142.272C48.8613 141.816 48.5625 141.299 48.356 140.744C48.2486 140.511 48.1538 140.272 48.072 140.028C47.984 139.692 47.936 139.34 47.868 139C47.8386 138.833 47.7931 138.67 47.732 138.512C47.6945 138.407 47.6168 138.32 47.516 138.272C47.4539 138.26 47.3901 138.26 47.328 138.272C46.375 138.303 45.4374 138.521 44.568 138.912C44.34 139.016 44.168 139.14 44.14 139.396C44.1613 139.692 44.119 139.989 44.016 140.268C43.9941 140.32 43.9581 140.364 43.912 140.396C43.8783 140.414 43.8405 140.424 43.802 140.424C43.7635 140.424 43.7257 140.414 43.692 140.396C43.6232 140.358 43.5654 140.303 43.524 140.236C43.272 139.88 43.212 139.404 42.924 139.072C42.7642 138.898 42.5523 138.78 42.32 138.736C42.208 138.712 41.828 138.704 41.804 138.544L41.732 137.804C41.732 137.804 41.504 137.696 41.356 138.136C41.2518 138.593 41.1929 139.059 41.18 139.528C41.132 140.036 41.064 140.432 40.976 140.936C40.868 141.536 40.768 142.136 40.672 142.736C40.532 143.312 40.4767 143.904 40.508 144.496C40.5372 144.757 40.6644 144.997 40.864 145.168C41.1662 145.471 41.5214 145.717 41.912 145.892C42.44 146.148 42.992 146.356 43.536 146.584C44.8127 147.194 45.9922 147.989 47.036 148.944C48.5694 150.128 50.3904 150.884 52.312 151.132C54.84 151.3 56.664 150.588 57.212 149.748C57.3 149.164 57.376 148.548 57.132 148.116C56.332 146.692 54.4 146.116 52.872 145.256C52.2076 144.864 51.5702 144.429 50.964 143.952C50.5084 143.596 50.083 143.202 49.692 142.776Z"
    fill="#37474F"/>
  <path
    d="M48.228 146.472C48.2731 146.499 48.326 146.51 48.3782 146.503C48.4303 146.497 48.4788 146.473 48.516 146.436C49.62 145.352 51.716 144.708 52.404 144.956C52.404 144.956 52.32 144.62 51.604 144.416C51.604 144.416 49.768 144.24 47.952 145.964C47.926 145.989 47.9062 146.02 47.8941 146.054C47.882 146.088 47.8779 146.125 47.8822 146.161C47.8864 146.197 47.8989 146.231 47.9186 146.262C47.9384 146.292 47.9648 146.317 47.996 146.336L48.228 146.472Z"
    fill="#FAFAFA"/>
  <path
    d="M50.676 143.704C49.916 143.416 48.076 144.224 47.168 145.108C47.1314 145.147 47.0818 145.171 47.0286 145.175C46.9754 145.18 46.9225 145.164 46.88 145.132L46.652 144.96C46.627 144.94 46.6067 144.914 46.5929 144.885C46.579 144.856 46.5718 144.824 46.5718 144.792C46.5718 144.76 46.579 144.728 46.5929 144.699C46.6067 144.67 46.627 144.644 46.652 144.624C47.164 144.152 48.652 142.948 50.068 143.144C50.052 143.144 50.62 143.424 50.676 143.704Z"
    fill="#FAFAFA"/>
  <path
    d="M49.24 142.272C48.692 142.148 47.24 142.452 46.04 143.396C46.0166 143.414 45.9896 143.427 45.9608 143.433C45.932 143.44 45.9021 143.44 45.8732 143.434C45.8443 143.428 45.817 143.416 45.7933 143.398C45.7697 143.38 45.7501 143.358 45.736 143.332L45.632 143.124C45.6099 143.083 45.603 143.036 45.6125 142.99C45.622 142.945 45.6474 142.904 45.684 142.876C46.084 142.548 47.504 141.552 48.832 141.728C49.0137 141.87 49.1545 142.058 49.24 142.272Z"
    fill="#FAFAFA"/>
  <path
    d="M53.808 145.72C50.652 146.388 49.436 148.408 48.86 150.068C49.94 150.617 51.1087 150.971 52.312 151.112C54.84 151.28 56.664 150.568 57.212 149.728C57.3 149.144 57.376 148.528 57.132 148.096C56.496 146.952 55.116 146.356 53.808 145.72Z"
    fill="#FAFAFA"/>
  <path
    d="M34.3679 127.56L26.7679 126.484C26.8879 130.484 26.6279 135.82 26.4519 140.312C26.2389 141.291 26.1996 142.299 26.3359 143.292C26.4919 144.156 25.1359 150.32 25.5359 152.12C26.1119 154.824 30.3359 153.98 30.5119 152.348C30.6879 150.716 31.1919 147.448 31.7439 143.148C32.1879 139.468 34.3319 127.816 34.3679 127.56Z"
    fill="#9E6767"/>
  <path
    d="M31.48 153.372L28.948 147.72C28.24 147.32 27.4 146.52 26.612 146.96C26.3342 147.1 26.0771 147.278 25.848 147.488C25.26 148.072 25.204 148.916 25.048 149.676C24.892 150.436 24.332 151.132 24.212 151.92C23.984 153.404 23.924 154.344 24.32 155.708C24.716 157.072 26.044 157.844 27.368 158.232C28.476 158.556 29.884 158.26 30.5 157.316C31.264 156.128 31.428 154.968 31.48 153.372Z"
    fill="black"/>
  <path
    d="M31.448 153.32C30.428 151.944 25.5 151.452 24.12 152.688C24.12 152.508 24.156 152.312 24.18 152.108C24.3222 150.761 24.6078 149.434 25.032 148.148C25.2979 147.345 25.5025 146.522 25.644 145.688C25.752 144.828 25.88 143.044 25.936 142.436C25.952 141.836 26.0081 141.237 26.104 140.644C26.148 140.468 26.2 140.244 26.432 140.312C26.432 140.312 26.432 140.608 26.396 140.788C26.36 140.968 26.368 141.156 26.356 141.312C26.324 141.68 26.324 142.012 26.32 142.384C26.3098 142.526 26.326 142.668 26.368 142.804C26.3797 142.835 26.4006 142.862 26.428 142.88C26.532 142.924 26.524 142.68 26.532 142.632L26.696 141.716C26.6988 141.668 26.7171 141.621 26.748 141.584C26.7752 141.557 26.808 141.537 26.844 141.524C27.616 141.224 28.188 140.968 28.984 141.1C29.4274 141.166 29.8638 141.271 30.288 141.416C30.596 141.524 31.144 141.696 31.316 141.996C31.3795 142.142 31.3935 142.305 31.356 142.46C31.312 142.86 31.256 143.336 31.196 143.8C31.128 144.36 31.84 142.484 31.96 141.424C32.256 141.492 32.22 141.824 31.96 143.08C31.6496 144.658 31.4465 146.255 31.352 147.86C31.28 149.14 31.28 150.424 31.352 151.704C31.408 152.272 31.44 152.8 31.448 153.32Z"
    fill="#37474F"/>
  <path
    d="M25.788 150.216C27.3632 150.023 28.9617 150.188 30.464 150.7C30.4842 150.709 30.5064 150.712 30.5284 150.71C30.5503 150.708 30.5714 150.7 30.5898 150.688C30.6081 150.676 30.623 150.659 30.6331 150.639C30.6433 150.62 30.6484 150.598 30.648 150.576V150.14C30.6478 150.115 30.6405 150.091 30.627 150.071C30.6136 150.05 30.5944 150.034 30.572 150.024C29.0701 149.385 27.4072 149.227 25.812 149.572C25.7847 149.577 25.7597 149.591 25.7404 149.611C25.721 149.631 25.7083 149.656 25.704 149.684L25.644 150.084C25.6432 150.103 25.6466 150.121 25.6537 150.138C25.6609 150.155 25.6717 150.171 25.6854 150.183C25.6991 150.196 25.7153 150.205 25.7331 150.211C25.7508 150.217 25.7695 150.218 25.788 150.216Z"
    fill="#FAFAFA"/>
  <path
    d="M26.248 148.048C27.6654 147.846 29.1109 148.042 30.424 148.612C30.4431 148.621 30.464 148.624 30.4849 148.623C30.5058 148.621 30.526 148.615 30.5437 148.604C30.5615 148.593 30.5763 148.578 30.5868 148.559C30.5973 148.541 30.6032 148.521 30.604 148.5V148.1C30.6033 148.077 30.5957 148.054 30.5822 148.035C30.5687 148.015 30.5499 148.001 30.528 147.992C30.152 147.824 28.824 147.032 26.268 147.46C26.2417 147.463 26.217 147.474 26.1976 147.492C26.1781 147.51 26.165 147.534 26.16 147.56L26.104 147.912C26.1034 147.931 26.1067 147.949 26.1138 147.967C26.121 147.984 26.1317 148 26.1453 148.013C26.1589 148.025 26.1751 148.035 26.1928 148.041C26.2106 148.047 26.2294 148.05 26.248 148.048Z"
    fill="#FAFAFA"/>
  <path
    d="M26.64 146.068C27.9659 145.863 29.3229 146.045 30.548 146.592C30.5664 146.6 30.5865 146.603 30.6066 146.602C30.6266 146.6 30.6458 146.593 30.6626 146.582C30.6793 146.571 30.6929 146.556 30.7023 146.538C30.7116 146.52 30.7163 146.5 30.716 146.48V146.08C30.7144 146.058 30.7069 146.037 30.6942 146.018C30.6816 146 30.6642 145.985 30.644 145.976C30.296 145.812 29.044 145.052 26.644 145.484C26.6189 145.488 26.5957 145.5 26.5777 145.518C26.5597 145.536 26.5479 145.559 26.544 145.584L26.492 145.924C26.4882 145.944 26.4895 145.965 26.4957 145.984C26.5019 146.004 26.5127 146.022 26.5274 146.036C26.542 146.05 26.56 146.06 26.5796 146.066C26.5993 146.072 26.62 146.072 26.64 146.068Z"
    fill="#FAFAFA"/>
  <path
    d="M24.132 152.704C24.088 154.044 24.204 154.956 24.908 155.956C25.804 157.236 29.116 158.432 30.544 156.536C31.252 155.592 31.416 154.488 31.48 153.372C30.54 151.956 25.5 151.448 24.132 152.704Z"
    fill="#FAFAFA"/>
  <path
    d="M28.592 84.1601C27.524 92.7801 27.656 103.156 27.32 108.712C26.984 114.268 26.364 118.044 26.296 122.272C26.18 129.42 26.4 137.2 26.4 137.2C26.4 137.2 29.408 138.916 32.8 137.788C32.8 137.788 35.632 123.324 36.356 118.868C37.392 112.52 38.756 101.236 38.756 101.236L40.004 113.236C39.4499 116.211 39.3246 119.25 39.632 122.26C39.944 125.06 41.276 135.304 41.276 135.304C42.3253 135.718 43.4526 135.897 44.5785 135.828C45.7044 135.759 46.8014 135.444 47.792 134.904C47.792 134.904 49.548 115.304 49.692 112.716C49.904 109.072 50.136 81.9161 50.092 78.8081L28.592 84.1601Z"
    fill="#455A64"/>
  <path
    d="M38.748 101.22L39.704 94.8198C39.704 94.8198 44.016 93.6198 45.844 90.7158C44.644 94.2878 40.668 95.8718 40.668 95.8718L39.304 102.084L40 113.22L38.748 101.22Z"
    fill="#37474F"/>
  <path
    d="M44.896 55.2439C48.3 55.7799 49.416 56.9519 50.624 59.8359C52.68 64.7519 54.676 69.5999 54.676 69.5999L64.08 73.3599L63.252 79.3599C63.252 79.3599 56.028 77.8799 51.78 76.7559C50.58 76.4319 50.144 75.6639 49.552 74.7919C49.064 74.0799 44.4 65.3959 44.4 65.3959L44.896 55.2439Z"
    fill="#263238"/>
  <path
    d="M49.508 63.06C48.628 58.524 48.22 56.512 45.272 55.5C42.324 54.488 37.272 54.528 37.272 54.528C35.752 54.928 31.008 56.064 28.94 56.68C26.872 57.296 27.3 62.104 27.78 65.172C28.3612 68.6759 28.7299 72.2117 28.884 75.76C28.804 80.648 28.364 83.948 28.172 86.744C32.572 89.544 45.448 89.048 50.116 86.236C50.224 83.912 50.26 77.78 50.22 74.772C50.144 69.128 49.876 64.972 49.508 63.06Z"
    fill="#37474F"/>
  <path
    d="M30.36 56.1479C28.604 56.4519 26.384 56.9479 25.388 58.5479C24.668 59.7079 20.848 68.6799 20.944 72.336C22.408 76.4839 29.972 68.8719 29.972 68.8719C30.844 63.9239 31.916 58.7759 30.36 56.1479Z"
    fill="#263238"/>
  <path
    d="M46.624 36.8681C45.5106 35.6926 44.0473 34.9083 42.452 34.6321C40.8686 34.3295 39.2361 34.4063 37.688 34.8561C35.896 35.3841 33.972 36.9241 33.856 39.1201C33 39.3161 32.372 40.1921 32.16 41.2281C31.832 42.8281 32.34 44.5481 32.924 45.9961C32.924 45.9961 34.856 49.4761 35.216 50.2001C35.616 51.0441 35.932 51.7481 35.932 51.7481L35.824 49.1041C36.8735 49.0819 37.9146 48.9109 38.916 48.5961C39.9096 48.2382 40.8728 47.8008 41.796 47.2881C43.6237 46.2483 45.3522 45.0433 46.96 43.6881C47.876 42.9401 48.044 42.0881 48.088 40.9321C48.1286 40.1912 48.0199 39.4496 47.7684 38.7515C47.5169 38.0534 47.1278 37.4129 46.624 36.8681Z"
    fill="#263238"/>
  <path
    d="M38.092 39.66C37.8444 40.7757 37.239 41.78 36.368 42.52C36.56 43.5771 36.5708 44.6592 36.4 45.72C36.3601 45.9475 36.2758 46.165 36.152 46.36C36.0875 46.4559 36.0029 46.5366 35.9042 46.5967C35.8054 46.6568 35.6948 46.6947 35.58 46.708C35.272 46.708 35.148 46.536 35.056 46.308C34.922 45.9972 34.7683 45.6953 34.596 45.404C34.5214 45.2762 34.4314 45.158 34.328 45.052C33.864 44.612 32.476 44.064 31.812 45.536C31.148 47.008 32.328 49.108 33.444 49.436C35.372 50.004 35.808 48.692 35.808 48.692L36.084 55.6C37.12 56.712 41.112 58.34 42.236 59.656C42.764 58.78 43.936 57.32 42.888 55.376V53.116C43.654 53.1544 44.4219 53.1034 45.176 52.964C46.18 52.784 47.152 51.88 47.624 50.368C48.54 47.416 48.084 43.348 47.736 41.516C47.556 40.4042 47.0587 39.368 46.304 38.532C46.2683 38.4931 46.2242 38.4629 46.175 38.4437C46.1257 38.4246 46.0728 38.4171 46.0202 38.4217C45.9676 38.4264 45.9167 38.4431 45.8716 38.4705C45.8265 38.498 45.7883 38.5354 45.76 38.58C45.506 38.9165 45.1851 39.1969 44.8175 39.4034C44.4499 39.6099 44.0436 39.7381 43.624 39.78C42.424 39.94 40.476 39.628 39.008 39.152C38.9146 39.1197 38.8155 39.1075 38.7171 39.1161C38.6187 39.1247 38.5232 39.1538 38.4368 39.2018C38.3504 39.2497 38.275 39.3152 38.2156 39.3942C38.1562 39.4731 38.1141 39.5637 38.092 39.66Z"
    fill="#9E6767"/>
  <path
    d="M42.888 53.1039C41.104 52.9159 39.24 52.6119 38.244 52.0719C37.5978 51.7378 37.0606 51.2256 36.696 50.5959C36.696 50.5959 36.772 51.3079 37.716 52.2639C38.78 53.3399 42.888 53.784 42.888 53.784V53.1039Z"
    fill="#874C4C"/>
  <path
    d="M41.06 44.832C41.0569 44.9525 41.0184 45.0695 40.9493 45.1685C40.8803 45.2674 40.7837 45.3438 40.6716 45.3883C40.5595 45.4329 40.4368 45.4435 40.3187 45.4189C40.2006 45.3943 40.0923 45.3356 40.0073 45.25C39.9223 45.1645 39.8642 45.0558 39.8404 44.9376C39.8166 44.8193 39.828 44.6967 39.8732 44.5848C39.9184 44.473 39.9955 44.3769 40.0948 44.3085C40.1942 44.2401 40.3114 44.2023 40.432 44.2C40.599 44.201 40.7587 44.2681 40.8763 44.3865C40.994 44.5049 41.06 44.665 41.06 44.832Z"
    fill="#263238"/>
  <path
    d="M45.176 41.5998C45.8179 41.7059 46.4261 41.9607 46.952 42.3438C47.0472 42.1009 47.0446 41.8306 46.9446 41.5897C46.8446 41.3487 46.6552 41.1559 46.416 41.0518C46.2989 41.0037 46.1733 40.9798 46.0467 40.9815C45.9201 40.9832 45.7951 41.0105 45.6793 41.0617C45.5635 41.1128 45.4592 41.1869 45.3727 41.2794C45.2863 41.3718 45.2194 41.4808 45.176 41.5998Z"
    fill="#263238"/>
  <path
    d="M41.032 48.4519L43.232 49.0799C43.1976 49.2272 43.1338 49.3659 43.0445 49.488C42.9551 49.61 42.8421 49.7127 42.7122 49.79C42.5822 49.8673 42.438 49.9176 42.2881 49.9379C42.1382 49.9581 41.9858 49.9479 41.84 49.9079C41.5431 49.8169 41.2931 49.6144 41.1424 49.3429C40.9917 49.0713 40.9521 48.752 41.032 48.4519Z"
    fill="#874C4C"/>
  <path
    d="M41.244 48.96C41.4956 48.9793 41.7313 49.0901 41.9067 49.2714C42.0821 49.4527 42.185 49.6919 42.196 49.944C42.0762 49.9498 41.9562 49.9377 41.84 49.908C41.6367 49.8401 41.4552 49.7189 41.3145 49.5571C41.1738 49.3953 41.079 49.1988 41.04 48.988C41.107 48.9721 41.1753 48.9627 41.244 48.96Z"
    fill="#F28F8F"/>
  <path
    d="M40.708 43.112C40.0738 43.2273 39.4988 43.5579 39.08 44.048C39.018 43.9436 38.9774 43.8278 38.9608 43.7075C38.9441 43.5871 38.9516 43.4647 38.9829 43.3473C39.0142 43.23 39.0687 43.12 39.143 43.024C39.2174 42.9279 39.3102 42.8477 39.416 42.788C39.6314 42.6644 39.8864 42.6291 40.1273 42.6895C40.3683 42.7499 40.5764 42.9013 40.708 43.112Z"
    fill="#263238"/>
  <path
    d="M46.512 44.352C46.5097 44.4735 46.4716 44.5917 46.4026 44.6918C46.3335 44.7919 46.2366 44.8695 46.1238 44.9149C46.011 44.9604 45.8874 44.9716 45.7682 44.9473C45.6491 44.923 45.5397 44.8642 45.4537 44.7783C45.3678 44.6923 45.309 44.5829 45.2847 44.4638C45.2604 44.3446 45.2716 44.221 45.3171 44.1082C45.3625 43.9954 45.4401 43.8985 45.5402 43.8294C45.6403 43.7604 45.7585 43.7223 45.88 43.72C46.0477 43.72 46.2084 43.7866 46.3269 43.9051C46.4455 44.0236 46.512 44.1844 46.512 44.352Z"
    fill="#263238"/>
  <path d="M42.836 43.1721L43.236 47.7241L45.492 47.0321C44.8875 45.5732 43.9826 44.258 42.836 43.1721Z"
        fill="#874C4C"/>
  <path
    d="M42.236 59.6439C41.436 59.1559 39.884 58.0119 39.108 58.9919C38.332 59.9719 37.76 61.1159 37.192 60.9439C36.624 60.7719 34.76 58.9919 34.056 57.4559C33.701 56.6152 33.5161 55.7125 33.512 54.7999C33.512 54.7999 34.188 54.0559 34.748 53.4799C35.368 52.8399 35.472 52.6799 35.948 52.6399L36.012 54.3439C36.0642 54.682 36.183 55.0064 36.3615 55.2982C36.5401 55.59 36.7748 55.8435 37.052 56.0439C38.452 57.0559 41.24 57.4199 42.236 59.6439Z"
    fill="#263238"/>
  <path
    d="M42.236 59.6441C42.708 59.2201 43.368 58.0761 44.128 58.3001C44.888 58.5241 45.628 60.0281 45.652 59.6201C45.676 59.2121 45 57.0481 44.368 55.8521C43.884 54.9321 43.396 54.1201 42.888 54.0281V55.3641C42.888 55.3641 42.888 56.5201 42.832 57.2121C42.8022 58.055 42.5993 58.8828 42.236 59.6441Z"
    fill="#263238"/>
  <path
    d="M30.272 59.3801C31.0338 58.4262 31.5981 57.3303 31.932 56.1561C32.272 54.7881 33.352 53.5281 33.72 53.0121C34.088 52.4961 34.88 51.7321 35.484 51.0121C36.088 50.2921 36.284 50.0801 37.136 49.9361C38.336 49.7321 39.268 49.5361 39.736 49.6881C40.204 49.8401 40.188 50.1361 39.784 50.5481C39.38 50.9601 38.52 51.0641 38.256 51.1441C37.992 51.2241 37.408 51.4801 37.408 51.4801L36.3 53.1081C37.06 53.2377 37.8099 53.4208 38.544 53.6561C38.912 53.8561 39.228 54.8041 39.064 55.3321C39.064 55.3321 39.752 55.7961 39.464 56.4721C39.464 56.4721 39.884 57.0201 39.596 57.4721C39.2707 57.9251 38.8964 58.341 38.48 58.7121C38.252 58.9081 37.348 58.9561 37.348 58.9561C36.9495 59.5633 36.4734 60.1159 35.932 60.6001C35.288 61.0761 34.868 61.0441 34.164 62.0441L30.272 59.3801Z"
    fill="#9E6767"/>
  <path
    d="M37.144 53.268C37.588 53.076 37.688 52.776 38.108 52.936C38.528 53.096 38.364 53.572 38.364 53.572L37.144 53.268Z"
    fill="#874C4C"/>
  <path
    d="M39.052 55.3639C38.7746 55.1295 38.468 54.9319 38.14 54.7759C37.832 54.6239 37.2 54.3999 37.2 54.3999C37.6475 54.4377 38.0869 54.5415 38.504 54.7079C38.7175 54.7906 38.9224 54.8937 39.116 55.0159C39.1148 55.12 39.1 55.2236 39.072 55.3239L39.052 55.3639Z"
    fill="#874C4C"/>
  <path
    d="M39.112 55.9999C39.2606 56.0622 39.405 56.1343 39.544 56.2159C39.5324 56.3198 39.5083 56.4219 39.472 56.5199C39.1215 56.2018 38.7144 55.9521 38.272 55.7839C38.5593 55.8237 38.8411 55.8962 39.112 55.9999Z"
    fill="#874C4C"/>
  <path
    d="M37.2 59.2C37.4575 58.6811 37.7642 58.1882 38.116 57.728C38.2294 57.6004 38.3868 57.5204 38.5567 57.5041C38.7266 57.4878 38.8964 57.5363 39.032 57.64C39.148 57.82 38.54 57.796 38.364 57.876C37.9094 58.254 37.5166 58.7007 37.2 59.2Z"
    fill="#874C4C"/>
  <path
    d="M35.788 53.052C35.788 53.052 36.132 52.568 36.744 51.796C37.356 51.024 37.324 51.136 37.92 51.02C38.516 50.904 39.648 50.7 39.952 50.344C39.9011 50.4135 39.8449 50.479 39.784 50.54C39.384 50.94 38.52 51.056 38.256 51.136C37.992 51.216 37.408 51.472 37.408 51.472L36.268 53.148L35.788 53.052Z"
    fill="#874C4C"/>
  <path
    d="M30.272 59.3799C28.268 61.7999 22.864 67.5999 21.6 69.9319C20.736 71.5319 20.52 75.2559 21.4 76.6079C22.28 77.9599 24.804 77.4079 26.848 75.5999C28.608 74.0519 30.08 70.3279 31.36 67.6759C32.64 65.0239 34.16 62.0359 34.16 62.0359L30.272 59.3799Z"
    fill="#9E6767"/>
  <path
    d="M30.272 59.3799C30.731 58.7674 31.1327 58.114 31.472 57.4279C31.6349 57.0823 31.7687 56.7238 31.872 56.3559C31.9589 55.9813 32.0808 55.6157 32.236 55.2639C32.5729 54.5738 32.9833 53.922 33.46 53.3199C33.9141 52.704 34.4099 52.1199 34.944 51.5719C35.204 51.2919 35.448 50.9999 35.692 50.7039C35.9241 50.3861 36.2438 50.1429 36.612 50.0039C36.9844 49.905 37.3624 49.8288 37.744 49.7759C38.12 49.7119 38.496 49.6439 38.88 49.6039C39.0724 49.5799 39.2664 49.5719 39.46 49.5799C39.6645 49.5805 39.864 49.6433 40.032 49.7599C40.077 49.7949 40.112 49.8409 40.1337 49.8935C40.1555 49.9461 40.1632 50.0035 40.156 50.0599C40.1386 50.1639 40.0976 50.2624 40.036 50.3479C39.922 50.509 39.7764 50.6451 39.608 50.7479C39.2661 50.9341 38.8958 51.0625 38.512 51.1279C38.1439 51.2264 37.7862 51.3603 37.444 51.5279L37.472 51.5079L36.36 53.1319L36.328 53.0519C37.008 53.1879 37.688 53.3159 38.356 53.5199C38.4423 53.5452 38.5255 53.5801 38.604 53.6239C38.6828 53.6741 38.7508 53.7393 38.804 53.8159C38.9055 53.9622 38.985 54.1226 39.04 54.2919C39.1678 54.626 39.1969 54.9898 39.124 55.3399V55.2919C39.3103 55.4242 39.458 55.6037 39.552 55.8119C39.5987 55.9177 39.6219 56.0323 39.62 56.1479C39.6209 56.263 39.5991 56.3772 39.556 56.4839V56.4439C39.6646 56.5758 39.7377 56.7331 39.7685 56.9011C39.7993 57.0691 39.7868 57.2422 39.732 57.4039C39.5587 57.6843 39.3548 57.9446 39.124 58.1799C39.012 58.2999 38.9 58.4159 38.78 58.5319C38.6699 58.6587 38.5334 58.7597 38.38 58.8279C38.0637 58.9198 37.7372 58.9722 37.408 58.9839H37.432C37.2214 59.2932 36.9944 59.5909 36.752 59.8759C36.5209 60.1759 36.252 60.4448 35.952 60.6759C35.644 60.8959 35.296 61.0359 34.992 61.2559C34.6967 61.4806 34.4388 61.7506 34.228 62.0559C34.4186 61.7347 34.6589 61.4458 34.94 61.1999C35.24 60.9759 35.588 60.8279 35.888 60.6039C36.1888 60.3737 36.4578 60.1047 36.688 59.8039C36.9244 59.5153 37.146 59.2149 37.352 58.9039C37.6758 58.8874 37.9966 58.8337 38.308 58.7439C38.4526 58.6798 38.58 58.5825 38.68 58.4599C38.796 58.3479 38.912 58.2319 39.02 58.1119C39.2444 57.8809 39.443 57.6261 39.612 57.3519C39.6593 57.2026 39.6683 57.0438 39.6383 56.89C39.6082 56.7363 39.5401 56.5925 39.44 56.4719V56.4519C39.4763 56.3533 39.4953 56.2491 39.496 56.1439C39.4948 56.0394 39.473 55.9361 39.432 55.8399C39.3426 55.6469 39.2048 55.4802 39.032 55.3559H39.008V55.3239C39.0759 54.9921 39.0467 54.6477 38.924 54.3319C38.808 54.0199 38.644 53.6879 38.296 53.6239C37.636 53.4279 36.952 53.2999 36.296 53.1679H36.216L36.26 53.0999L37.364 51.4719C37.7115 51.3037 38.0745 51.1697 38.448 51.0719C38.8192 51.0078 39.1782 50.8864 39.512 50.7119C39.6738 50.6104 39.8105 50.4737 39.912 50.3119C40.02 50.1679 40.072 49.9759 39.912 49.8719C39.5824 49.7046 39.2051 49.6565 38.844 49.7359C38.444 49.7759 38.088 49.8359 37.712 49.8999C37.3362 49.952 36.9636 50.0255 36.596 50.1199C36.2426 50.2517 35.9353 50.4839 35.712 50.7879C35.468 51.0799 35.22 51.3759 34.96 51.6559C34.4212 52.1977 33.9226 52.7778 33.468 53.3919C32.9919 53.9873 32.5815 54.6324 32.244 55.3159C32.0843 55.663 31.9584 56.0247 31.868 56.3959C31.7651 56.7639 31.6312 57.1225 31.468 57.4679C31.1271 58.1396 30.7268 58.7795 30.272 59.3799Z"
    fill="#874C4C"/>
  <path d="M69.208 65.396L53.116 71.332L48.94 90.644L49.308 91.024L64.6 85.06L69.576 65.772L69.208 65.396Z"
        fill="#368ECD"/>
  <path opacity="0.25"
        d="M69.208 65.396L53.116 71.332L48.94 90.644L49.308 91.024L64.6 85.06L69.576 65.772L69.208 65.396Z"
        fill="white"/>
  <path d="M53.484 71.7118L49.308 91.0238L48.94 90.6438L53.116 71.3318L53.484 71.7118Z" fill="#368ECD"/>
  <path opacity="0.35" d="M53.484 71.7118L49.308 91.0238L48.94 90.6438L53.116 71.3318L53.484 71.7118Z" fill="black"/>
  <path d="M69.576 65.772L53.484 71.712L49.308 91.024L64.6 85.06L69.576 65.772Z" fill="#368ECD"/>
  <g opacity="0.2">
    <path d="M62.14 81.2001C62.296 81.5761 63.548 82.4001 65.34 82.2161L65.628 81.1001L62.14 81.2001Z" fill="black"/>
  </g>
  <g opacity="0.1">
    <path
      d="M64.76 69.7839L64.884 69.1399C64.952 68.7799 64.004 68.9799 62.768 69.5879L59.864 70.5119C58.628 71.1199 57.464 71.5719 57.388 71.9279L57.264 72.5759L64.76 69.7839Z"
      fill="black"/>
  </g>
  <path
    d="M65.68 66.8519C65.724 66.6279 65.352 66.6799 64.84 66.8239L63.912 67.1559C63.912 67.1559 64.224 66.0479 62.084 66.8439C59.344 67.8599 59.632 68.7479 59.632 68.7479C59.2543 68.9171 58.8669 69.064 58.472 69.1879C57.672 69.4599 57.584 69.6199 57.52 69.8479L57.408 70.2479L65.6 67.2359C65.6 67.2359 65.636 67.0759 65.68 66.8519Z"
    fill="#37474F"/>
  <path
    d="M64.832 68.1038C64.072 68.4598 63.756 68.6358 63.632 69.1838C63.508 69.8158 63.484 70.0758 63.484 70.0758L59.216 71.8318C59.216 71.8318 59.436 70.9038 59.488 70.5958C59.54 70.2878 58.972 70.2918 58.236 70.6478L58.4 69.8758L64.992 67.4758L64.832 68.1038Z"
    fill="#263238"/>
  <path
    d="M64.98 69.792L65.104 69.148C65.172 68.788 64.228 68.988 62.992 69.596L60.084 70.52C58.848 71.124 57.684 71.58 57.608 71.936L57.484 72.584L64.98 69.792Z"
    fill="#263238"/>
  <path
    d="M67.872 72.3998C67.872 72.3998 67.328 74.5198 67.184 75.0558C67.04 75.5918 64.412 76.8518 63.088 77.0558C60.556 77.4078 60.288 77.9638 60.912 79.7558C61.496 81.4078 63.16 82.0118 65.444 81.7078C66.1627 81.5582 66.8286 81.22 67.3734 80.7279C67.9182 80.2359 68.3222 79.6076 68.544 78.9078C69.256 76.7758 68.824 74.5078 69.1 73.2718C69.376 72.0358 68.504 71.6358 67.872 72.3998Z"
    fill="#9E6767"/>
  <path
    d="M73.852 96.0002C74.056 95.5202 74.58 95.1722 75.372 95.0762C76.245 95.017 77.1196 95.1655 77.9241 95.5097C78.7285 95.8539 79.44 96.3839 80 97.0562C80.48 97.6922 80.596 98.3122 80.4 98.7922L67.22 133.24C66.968 133.968 66.224 134.492 65.06 134.636C62.844 134.904 59.96 133.676 58.62 131.892C57.916 130.956 57.784 130.052 58.128 129.368L73.852 96.0002Z"
    fill="#455A64"/>
  <path
    d="M80 97.0559C80.96 98.3319 80.452 99.5239 78.868 99.7159C77.9997 99.7731 77.1301 99.6251 76.3296 99.2839C75.529 98.9427 74.8201 98.4179 74.26 97.7519C73.3 96.4759 73.808 95.2839 75.392 95.0919C76.2604 95.034 77.1302 95.1816 77.9308 95.5229C78.7315 95.8641 79.4404 96.3893 80 97.0559Z"
    fill="#37474F"/>
  <path
    d="M80.324 86C80.8524 85.9644 81.3817 86.0545 81.8684 86.2631C82.3552 86.4717 82.7855 86.7928 83.124 87.2C83.2535 87.3376 83.3437 87.5075 83.3852 87.6918C83.4268 87.8761 83.418 88.0682 83.36 88.248L79.096 98.248C79.0065 98.4146 78.8739 98.5541 78.7121 98.6519C78.5502 98.7497 78.3651 98.8022 78.176 98.804C77.6476 98.84 77.1182 98.75 76.6314 98.5414C76.1447 98.3328 75.7144 98.0115 75.376 97.604C75.2466 97.4656 75.1564 97.2951 75.1149 97.1101C75.0734 96.9252 75.0821 96.7325 75.14 96.552L79.404 86.552C79.4947 86.3868 79.6277 86.2486 79.7894 86.1516C79.951 86.0546 80.1355 86.0023 80.324 86Z"
    fill="#368ECD"/>
  <path opacity="0.2"
        d="M80.324 86C80.8524 85.9644 81.3817 86.0545 81.8684 86.2631C82.3552 86.4717 82.7855 86.7928 83.124 87.2C83.2535 87.3376 83.3437 87.5075 83.3852 87.6918C83.4268 87.8761 83.418 88.0682 83.36 88.248L79.096 98.248C79.0065 98.4146 78.8739 98.5541 78.7121 98.6519C78.5502 98.7497 78.3651 98.8022 78.176 98.804C77.6476 98.84 77.1182 98.75 76.6314 98.5414C76.1447 98.3328 75.7144 98.0115 75.376 97.604C75.2466 97.4656 75.1564 97.2951 75.1149 97.1101C75.0734 96.9252 75.0821 96.7325 75.14 96.552L79.404 86.552C79.4947 86.3868 79.6277 86.2486 79.7894 86.1516C79.951 86.0546 80.1355 86.0023 80.324 86Z"
        fill="black"/>
  <path opacity="0.2"
        d="M77.4401 91.1721L77.7361 91.3441L77.7801 91.3721L77.8361 91.4041L77.9001 91.4361C78.0879 91.5476 78.2815 91.6491 78.4801 91.7401C78.7194 91.8612 78.9651 91.9694 79.2161 92.0641C79.4368 92.1599 79.6625 92.244 79.8921 92.3161C80.0085 92.3581 80.1274 92.3928 80.2481 92.4201C80.3781 92.4694 80.5118 92.5082 80.6481 92.5361C80.7841 92.5761 80.9081 92.6081 81.0481 92.6361C81.1437 92.6637 81.2413 92.6838 81.3401 92.6961H81.4401L83.3481 88.2161C83.4061 88.0362 83.4148 87.8441 83.3733 87.6598C83.3318 87.4755 83.2416 87.3057 83.1121 87.1681C82.996 87.0185 82.8616 86.8842 82.7121 86.7681C81.5212 87.1329 80.2885 87.3439 79.0441 87.3961L77.4401 91.1721Z"
        fill="black"/>
  <path opacity="0.15"
        d="M77.296 99.6L63.42 134.576C63.9606 134.667 64.5108 134.684 65.056 134.628C66.22 134.484 66.964 133.96 67.216 133.232L80.368 98.8C80.164 99.284 79.64 99.6241 78.848 99.72C78.3276 99.7684 77.8028 99.7278 77.296 99.6Z"
        fill="black"/>
  <path
    d="M120.648 44.5841C120.648 44.2961 120.624 44.0121 120.6 43.7281C120.576 43.4441 120.568 43.1721 120.54 42.8961C120.54 42.7081 120.504 42.5241 120.48 42.3401C120.432 41.8601 120.364 41.3841 120.284 40.9321C120.248 40.7241 120.212 40.5321 120.172 40.3081C120.132 40.0841 120.092 39.9081 120.048 39.7281C119.928 39.2041 119.8 38.6921 119.648 38.2001C119.572 37.9681 119.5 37.7361 119.42 37.5081C119.406 37.4733 119.395 37.4371 119.388 37.4001C119.304 37.1721 119.224 36.9561 119.136 36.7441C119.048 36.5321 118.94 36.2441 118.828 36.0121C118.716 35.7801 118.672 35.6641 118.58 35.4961C118.528 35.3688 118.467 35.2457 118.396 35.1281C118.324 34.9801 118.248 34.8281 118.16 34.6841C118.144 34.6507 118.125 34.6186 118.104 34.5881C118.032 34.4601 117.956 34.3321 117.88 34.1881C117.804 34.0441 117.772 34.0241 117.724 33.9441C117.361 33.3781 116.951 32.843 116.5 32.3441L116.276 32.0881C116.212 32.0161 116.148 31.9521 116.084 31.8881C116.02 31.8241 115.924 31.7241 115.836 31.6401C115.605 31.4041 115.36 31.1837 115.1 30.9801C114.98 30.8761 114.852 30.7761 114.724 30.6841C114.596 30.5921 114.468 30.4921 114.324 30.4001C114.116 30.2521 113.904 30.1121 113.692 30.0001L113.524 29.8961L113.488 29.8681L109.528 27.5361L109.472 27.5041C107.546 26.4281 105.37 25.8764 103.164 25.9041C99.876 25.9041 96.164 26.9801 92.228 29.2481C78.716 37.0441 67.76 56.0001 67.76 71.6001C67.76 79.3801 70.484 84.8561 74.88 87.4201H74.924L78.892 89.7441L78.936 89.7721L78.992 89.8041C79.016 89.8041 79.036 89.8281 79.056 89.8361C79.2438 89.9476 79.4374 90.0491 79.636 90.1401C79.876 90.2601 80.124 90.3681 80.376 90.4641C80.5945 90.5609 80.819 90.6437 81.048 90.7121C81.1637 90.7572 81.2827 90.7933 81.404 90.8201C81.534 90.8694 81.6678 90.9081 81.804 90.9361C81.94 90.9761 82.064 91.0081 82.204 91.0361C82.3001 91.0618 82.3976 91.0818 82.496 91.0961C82.668 91.1321 82.848 91.1681 83.028 91.1881C83.0674 91.2041 83.1095 91.2123 83.152 91.2121C83.36 91.2441 83.576 91.2761 83.784 91.2961C87.428 91.6961 91.664 90.6521 96.184 88.0361C109.7 80.2361 120.656 61.2561 120.656 45.6601C120.668 45.3241 120.66 44.9561 120.648 44.5841ZM76.064 81.3841C75.5019 79.2977 75.2247 77.1448 75.24 74.9841C75.24 60.1841 86.04 41.4601 98.86 34.0681C100.732 32.9604 102.752 32.1253 104.86 31.5881C105.869 31.3337 106.904 31.1994 107.944 31.1881C108.468 31.1856 108.991 31.2257 109.508 31.3081H109.552C112.172 34.4081 112.556 39.3761 112.556 42.0281C112.556 56.8281 101.756 75.5521 88.956 82.9401C85.7 84.8201 82.556 85.8161 79.88 85.8161C79.3223 85.8195 78.7667 85.7482 78.228 85.6041C77.2277 84.3649 76.4913 82.9342 76.064 81.4001V81.3841Z"
    fill="#37474F"/>
  <path opacity="0.25"
        d="M117.148 44.6521C117.148 52.5041 114.096 61.4721 109.316 69.2641C109.092 69.6361 108.86 70.0001 108.624 70.3641C108.388 70.7281 108.224 70.9881 108.012 71.3001C107.56 71.9681 107.108 72.6241 106.632 73.2681C106.408 73.5775 106.18 73.8815 105.948 74.1801C105.696 74.5121 105.44 74.8401 105.184 75.1641C104.692 75.7841 104.18 76.3881 103.664 76.9761C103.324 77.3761 102.976 77.7561 102.628 78.1281C99.9799 81.0413 96.9146 83.5459 93.532 85.5601C92.92 85.9161 92.332 86.2361 91.716 86.5281C89.7694 87.5213 87.6596 88.1554 85.488 88.4001C85.1464 88.4349 84.8033 88.4523 84.46 88.4521C84.28 88.4521 84.112 88.4521 83.94 88.4521C83.6142 88.4397 83.2895 88.4063 82.968 88.3521C82.812 88.3281 82.656 88.3041 82.508 88.2681C82.36 88.2321 82.208 88.2041 82.06 88.1601C80.5441 87.7739 79.1966 86.9014 78.224 85.6761C78.7615 85.8189 79.3158 85.8889 79.872 85.8841C82.56 85.8841 85.692 84.8961 88.952 83.0161C101.752 75.6281 112.552 56.8841 112.552 42.1001C112.552 39.4441 112.152 34.5001 109.544 31.3801H109.504C112.844 31.9161 114.74 34.1801 115.812 36.8081C116.115 37.5518 116.358 38.3182 116.54 39.1001C116.54 39.1441 116.56 39.1841 116.568 39.2281C116.604 39.3681 116.64 39.5121 116.664 39.6561C116.688 39.8001 116.72 39.9321 116.744 40.0561C116.747 40.0921 116.747 40.1282 116.744 40.1641C116.772 40.3121 116.8 40.4601 116.824 40.6041C116.908 41.1521 116.976 41.6841 117.02 42.2041C117.02 42.3561 117.048 42.4961 117.056 42.6361C117.064 42.7761 117.056 42.8521 117.08 42.9561C117.08 43.0001 117.08 43.0441 117.08 43.0881C117.08 43.2041 117.08 43.3161 117.1 43.4281C117.102 43.4588 117.102 43.4895 117.1 43.5201C117.1 43.6641 117.1 43.7975 117.1 43.9201C117.148 44.1601 117.148 44.4001 117.148 44.6521Z"
        fill="black"/>
  <path
    d="M78.552 89.6001L74.88 87.4401C70.48 84.8681 67.76 79.3961 67.76 71.6281C67.76 64.6721 69.94 57.0441 73.548 50.0281L77.732 52.4281C74.132 59.4281 71.732 66.9721 71.732 73.9321C71.724 81.5561 74.316 86.9561 78.552 89.6001Z"
    fill="#263238"/>
  <path
    d="M113.54 29.8839L113.504 29.8559L109.544 27.5279L109.488 27.4919C107.562 26.4154 105.387 25.8637 103.18 25.8919C99.892 25.8919 96.18 26.9679 92.244 29.2359C84.756 33.5599 78.056 41.3199 73.572 50.0359L77.736 52.4839L77.644 52.6559C82.144 44.0399 88.812 36.2559 96.22 31.5719C102.924 27.3479 109.288 27.2879 113.732 29.9719L113.54 29.8839Z"
    fill="#455A64"/>
  <path opacity="0.1"
        d="M115.02 43.3962C115.02 58.1962 104.22 76.9202 91.4 84.3122C89.5289 85.4215 87.5084 86.2567 85.4 86.7922C84.3914 87.0465 83.3562 87.1808 82.316 87.1922C81.2482 87.205 80.1869 87.0234 79.184 86.6562C77.584 85.3202 76.632 83.3922 76.056 81.4082C75.4939 79.3218 75.2167 77.1689 75.232 75.0082C75.232 60.2082 86.0321 41.4842 98.8521 34.0922C100.724 32.9845 102.744 32.1494 104.852 31.6122C105.861 31.3578 106.896 31.2235 107.936 31.2122C109.004 31.1985 110.065 31.3787 111.068 31.7442C112.668 33.0762 113.62 35.0122 114.196 36.9922C114.759 39.0798 115.036 41.2341 115.02 43.3962Z"
        fill="#368ECD"/>
  <path opacity="0.3"
        d="M82.324 87.2001C83.3642 87.1887 84.3994 87.0544 85.408 86.8001C87.5163 86.2646 89.5369 85.4294 91.408 84.3201C104.208 76.9281 115.028 58.1881 115.028 43.4041C115.043 41.2433 114.766 39.0904 114.204 37.0041C113.628 35.0281 112.672 33.0961 111.088 31.7641L110.936 31.7121C110.796 31.6601 110.656 31.6161 110.508 31.5721L110.256 31.5041C110.112 31.4641 109.96 31.4361 109.812 31.4041L109.548 31.3521C112.172 34.4521 112.556 39.4161 112.556 42.0721C112.556 56.8721 101.756 75.6001 88.956 82.9881C85.696 84.8681 82.556 85.8561 79.876 85.8561C79.3199 85.8608 78.7656 85.7908 78.228 85.6481L78.252 85.6801C78.5446 86.0313 78.8672 86.3566 79.216 86.6521C80.2105 87.0205 81.2635 87.2062 82.324 87.2001Z"
        fill="white"/>
  <path
    d="M144.256 50.4519L126.18 60.8879C125.212 61.4439 124.428 60.8519 124.428 59.5599V43.8799C124.428 42.5879 125.228 41.0799 126.18 40.5279L144.256 30.0959C145.224 29.5359 146.008 30.1279 146.008 31.4199V47.1039C146 48.3999 145.224 49.8919 144.256 50.4519Z"
    fill="#FAFAFA"/>
  <path
    d="M125.484 61.2879C125.293 61.2896 125.105 61.2399 124.94 61.1439C124.492 60.8879 124.236 60.3119 124.236 59.5439V43.8799C124.236 42.5279 125.068 40.9519 126.084 40.3639L144.16 29.9279C144.353 29.7928 144.58 29.7129 144.815 29.6967C145.051 29.6805 145.286 29.7286 145.496 29.8359C145.944 30.0959 146.2 30.6719 146.2 31.4359V47.1199C146.2 48.4679 145.372 50.0479 144.352 50.6359L126.28 61.0519C126.04 61.1993 125.765 61.2807 125.484 61.2879ZM144.952 30.0879C144.739 30.095 144.532 30.1585 144.352 30.2719L126.28 40.6959C125.364 41.2239 124.62 42.6519 124.62 43.8959V59.5759C124.62 60.1839 124.808 60.6399 125.132 60.8279C125.284 60.8992 125.453 60.9282 125.621 60.9121C125.788 60.8959 125.948 60.8351 126.084 60.7359L144.16 50.2999C145.072 49.7719 145.816 48.3479 145.816 47.1199V31.4199C145.816 30.8119 145.628 30.3559 145.304 30.1679C145.197 30.108 145.075 30.0776 144.952 30.0799V30.0879Z"
    fill="#E0E0E0"/>
  <path d="M140.292 38.7002L136.604 51.9642L143.98 47.7042L140.292 38.7002Z" fill="#368ECD"/>
  <path opacity="0.3" d="M140.292 38.7002L136.604 51.9642L143.98 47.7042L140.292 38.7002Z" fill="white"/>
  <path d="M135.22 37.7881L131.528 54.8921L138.908 50.6321L135.22 37.7881Z" fill="#368ECD"/>
  <path d="M130.188 46.6362L126.5 57.7962L133.876 53.5402L130.188 46.6362Z" fill="#368ECD"/>
  <path opacity="0.3" d="M130.188 46.6362L126.5 57.7962L133.876 53.5402L130.188 46.6362Z" fill="black"/>
  <path
    d="M127.2 43.0562L126.62 43.3922C126.552 43.4282 126.5 43.3922 126.5 43.3002V42.3522C126.501 42.3074 126.512 42.2634 126.533 42.2238C126.554 42.1842 126.583 42.15 126.62 42.1242L127.2 41.7882C127.268 41.7482 127.32 41.7882 127.32 41.8802V42.8242C127.319 42.8695 127.308 42.9141 127.287 42.9543C127.267 42.9946 127.237 43.0295 127.2 43.0562Z"
    fill="#368ECD"/>
  <path opacity="0.3"
        d="M127.2 43.0562L126.62 43.3922C126.552 43.4282 126.5 43.3922 126.5 43.3002V42.3522C126.501 42.3074 126.512 42.2634 126.533 42.2238C126.554 42.1842 126.583 42.15 126.62 42.1242L127.2 41.7882C127.268 41.7482 127.32 41.7882 127.32 41.8802V42.8242C127.319 42.8695 127.308 42.9141 127.287 42.9543C127.267 42.9946 127.237 43.0295 127.2 43.0562Z"
        fill="black"/>
  <path
    d="M127.2 44.8802L126.62 45.2162C126.552 45.2562 126.5 45.2162 126.5 45.1242V44.1802C126.501 44.1349 126.512 44.0903 126.533 44.05C126.553 44.0098 126.583 43.9749 126.62 43.9482L127.2 43.6002C127.268 43.5642 127.32 43.6002 127.32 43.6922V44.6402C127.321 44.687 127.311 44.7334 127.29 44.7753C127.269 44.8171 127.238 44.8532 127.2 44.8802Z"
    fill="#368ECD"/>
  <path
    d="M127.2 46.7042L126.62 47.0402C126.552 47.0802 126.5 47.0402 126.5 46.9522V46.0002C126.5 45.9553 126.511 45.9111 126.532 45.8713C126.553 45.8316 126.583 45.7976 126.62 45.7722L127.2 45.4362C127.268 45.3962 127.32 45.4362 127.32 45.5242V46.4722C127.321 46.5178 127.31 46.5628 127.289 46.6033C127.268 46.6438 127.238 46.6784 127.2 46.7042Z"
    fill="#368ECD"/>
  <path opacity="0.3"
        d="M127.2 46.7042L126.62 47.0402C126.552 47.0802 126.5 47.0402 126.5 46.9522V46.0002C126.5 45.9553 126.511 45.9111 126.532 45.8713C126.553 45.8316 126.583 45.7976 126.62 45.7722L127.2 45.4362C127.268 45.3962 127.32 45.4362 127.32 45.5242V46.4722C127.321 46.5178 127.31 46.5628 127.289 46.6033C127.268 46.6438 127.238 46.6784 127.2 46.7042Z"
        fill="white"/>
  <path
    d="M95.772 103.108C95.8061 103.092 95.8359 103.068 95.8589 103.038C95.8819 103.008 95.8973 102.973 95.904 102.936C95.9857 102.61 96.0497 102.28 96.096 101.948C96.1426 101.634 96.1706 101.317 96.18 101C96.18 100.92 96.14 100.876 96.084 100.896L95.428 101.096C95.4218 100.654 95.3518 100.214 95.22 99.7919L95.78 98.9919C95.8035 98.961 95.8197 98.9251 95.8274 98.887C95.835 98.8489 95.8338 98.8095 95.824 98.7719C95.6608 98.3583 95.4033 97.9885 95.072 97.6919C95.032 97.6599 94.968 97.6919 94.92 97.7599L94.364 98.5599C94.0968 98.3787 93.7828 98.2786 93.46 98.2719L93.596 97.3199C93.596 97.2359 93.576 97.1799 93.524 97.1799C93.3011 97.1973 93.081 97.2403 92.868 97.3079C92.6331 97.3798 92.4054 97.4736 92.188 97.5879C92.1563 97.611 92.1297 97.6403 92.1098 97.674C92.0898 97.7077 92.077 97.7451 92.072 97.7839L91.936 98.7359C91.5437 98.9853 91.186 99.2852 90.872 99.6279L90.504 99.0959C90.472 99.0519 90.408 99.0639 90.356 99.1239C89.9231 99.6367 89.5425 100.191 89.22 100.78C89.2028 100.813 89.1938 100.849 89.1938 100.886C89.1938 100.923 89.2028 100.959 89.22 100.992L89.588 101.52C89.3397 102.018 89.1375 102.537 88.984 103.072L88.328 103.272C88.2936 103.288 88.2635 103.312 88.2399 103.342C88.2164 103.372 88.1999 103.407 88.192 103.444C88.112 103.772 88.048 104.1 88 104.432C87.9565 104.748 87.9298 105.065 87.92 105.384C87.92 105.46 87.96 105.504 88.016 105.488L88.672 105.288C88.6777 105.728 88.7478 106.164 88.88 106.584L88.32 107.384C88.2967 107.415 88.2806 107.451 88.273 107.489C88.2654 107.527 88.2664 107.566 88.276 107.604C88.4373 108.019 88.6951 108.389 89.028 108.684C89.068 108.716 89.132 108.684 89.18 108.62L89.736 107.82C90.0028 107.999 90.3148 108.099 90.636 108.108L90.504 109.06C90.504 109.14 90.524 109.2 90.576 109.196C90.7987 109.18 91.0188 109.138 91.232 109.072C91.467 108.999 91.6946 108.904 91.912 108.788C91.9443 108.766 91.9715 108.736 91.9915 108.703C92.0115 108.669 92.024 108.631 92.028 108.592L92.164 107.64C92.5562 107.392 92.9139 107.093 93.228 106.752L93.596 107.28C93.628 107.328 93.692 107.316 93.744 107.256C94.1769 106.743 94.5563 106.186 94.876 105.596C94.8938 105.563 94.9032 105.527 94.9032 105.49C94.9032 105.453 94.8938 105.416 94.876 105.384L94.508 104.856C94.7556 104.359 94.9578 103.841 95.112 103.308L95.772 103.108ZM92.4 105.54C90.688 106.872 89.512 105.184 90.424 102.696C90.672 101.974 91.11 101.333 91.692 100.84C93.404 99.5039 94.58 101.196 93.668 103.684C93.42 104.405 92.9819 105.047 92.4 105.54Z"
    fill="#E6E6E6"/>
  <path
    d="M100.768 103.312C100.781 103.297 100.79 103.279 100.796 103.259C100.801 103.24 100.803 103.22 100.8 103.2C100.786 103.009 100.759 102.819 100.72 102.632C100.683 102.462 100.631 102.296 100.564 102.136C100.564 102.108 100.52 102.108 100.492 102.136L100.048 102.536C99.9483 102.331 99.7983 102.155 99.612 102.024L99.844 101.364C99.844 101.32 99.844 101.276 99.844 101.264C99.5984 101.134 99.3205 101.079 99.044 101.104C99.016 101.104 98.984 101.14 98.968 101.184L98.736 101.844C98.4825 101.889 98.2405 101.985 98.024 102.124L97.908 101.6C97.9067 101.593 97.9037 101.587 97.8993 101.582C97.8949 101.576 97.8892 101.572 97.8827 101.57C97.8763 101.568 97.8694 101.567 97.8626 101.568C97.8558 101.569 97.8494 101.572 97.844 101.576C97.683 101.69 97.5294 101.814 97.384 101.948C97.2283 102.094 97.0814 102.249 96.944 102.412C96.9299 102.428 96.9194 102.446 96.9132 102.466C96.907 102.486 96.9052 102.507 96.908 102.528L97.024 103.052C96.8043 103.335 96.6128 103.64 96.452 103.96L96.052 103.884C96.028 103.884 95.992 103.884 95.976 103.944C95.7732 104.375 95.6151 104.825 95.504 105.288C95.504 105.332 95.504 105.368 95.532 105.372L95.932 105.452C95.8621 105.783 95.8286 106.121 95.832 106.46L95.392 106.86C95.3758 106.874 95.363 106.892 95.3547 106.913C95.3464 106.933 95.3427 106.954 95.344 106.976C95.3558 107.167 95.3825 107.357 95.424 107.544C95.461 107.714 95.5132 107.88 95.58 108.04C95.58 108.068 95.624 108.068 95.652 108.04L96.096 107.64C96.1934 107.846 96.3439 108.023 96.532 108.152L96.3 108.816C96.3 108.856 96.3 108.9 96.3 108.912C96.5456 109.042 96.8235 109.097 97.1 109.072C97.128 109.072 97.16 109.036 97.176 108.992L97.404 108.336C97.6584 108.287 97.9014 108.191 98.12 108.052L98.236 108.576C98.2357 108.584 98.2378 108.591 98.242 108.597C98.2462 108.604 98.2522 108.608 98.2593 108.611C98.2664 108.614 98.2742 108.614 98.2815 108.612C98.2888 108.61 98.2952 108.606 98.3 108.6C98.4619 108.487 98.6157 108.363 98.76 108.228C98.9157 108.084 99.0626 107.93 99.2 107.768C99.2267 107.734 99.2395 107.691 99.236 107.648L99.12 107.128C99.3388 106.843 99.5303 106.537 99.692 106.216L100.092 106.296C100.116 106.296 100.152 106.272 100.168 106.232C100.368 105.8 100.526 105.35 100.64 104.888C100.64 104.844 100.64 104.808 100.612 104.804L100.212 104.724C100.282 104.393 100.315 104.055 100.312 103.716L100.768 103.312ZM98.768 106.144C97.852 107.416 96.72 107.16 96.796 105.672C96.8385 105.082 97.0434 104.516 97.388 104.036C98.308 102.768 99.436 103.024 99.364 104.512C99.3228 105.101 99.1162 105.667 98.768 106.144Z"
    fill="#E6E6E6"/>
  <path
    d="M102.056 94.432C102.072 94.4175 102.085 94.3996 102.093 94.3795C102.102 94.3594 102.105 94.3377 102.104 94.316C102.092 94.1249 102.065 93.935 102.024 93.748C101.987 93.5783 101.935 93.4123 101.868 93.252C101.868 93.224 101.824 93.224 101.796 93.252L101.352 93.652C101.253 93.4472 101.104 93.27 100.92 93.136L101.148 92.48C101.148 92.436 101.148 92.392 101.148 92.38C100.902 92.2504 100.625 92.1949 100.348 92.22C100.32 92.22 100.288 92.256 100.272 92.3L100.044 92.956C99.7896 93.0047 99.5467 93.1011 99.328 93.24L99.212 92.716C99.2107 92.7093 99.2077 92.703 99.2033 92.6977C99.1989 92.6925 99.1932 92.6884 99.1868 92.686C99.1803 92.6836 99.1734 92.6829 99.1666 92.6839C99.1598 92.685 99.1534 92.6878 99.148 92.692C98.987 92.8062 98.8334 92.9305 98.688 93.064C98.5333 93.2094 98.3864 93.363 98.248 93.524C98.2345 93.5406 98.2247 93.5599 98.2192 93.5806C98.2137 93.6013 98.2126 93.6229 98.216 93.644L98.332 94.168C98.1097 94.4503 97.9167 94.7546 97.756 95.076L97.356 94.996C97.332 94.996 97.3 95.02 97.28 95.06C97.0765 95.4899 96.9157 95.9387 96.8 96.4C96.8 96.444 96.8 96.48 96.828 96.484L97.228 96.564C97.1581 96.8954 97.1246 97.2334 97.128 97.572L96.688 97.972C96.6718 97.9865 96.659 98.0044 96.6507 98.0245C96.6424 98.0446 96.6387 98.0663 96.64 98.088C96.6518 98.2791 96.6785 98.4691 96.72 98.656C96.757 98.8257 96.8092 98.9917 96.876 99.152C96.876 99.18 96.92 99.18 96.948 99.152L97.392 98.752C97.4921 98.9566 97.642 99.1327 97.828 99.264L97.596 99.928C97.596 99.968 97.596 100.012 97.596 100.024C97.8416 100.154 98.1195 100.209 98.396 100.184C98.424 100.184 98.456 100.148 98.472 100.104L98.704 99.448C98.9566 99.3974 99.1979 99.3012 99.416 99.164L99.532 99.688C99.5333 99.6948 99.5363 99.7011 99.5407 99.7063C99.5451 99.7116 99.5508 99.7156 99.5573 99.718C99.5637 99.7204 99.5706 99.7211 99.5774 99.7201C99.5842 99.719 99.5906 99.7162 99.596 99.712C99.7587 99.6001 99.9125 99.4757 100.056 99.34C100.212 99.1955 100.359 99.0419 100.496 98.88C100.51 98.8637 100.521 98.8446 100.527 98.8239C100.533 98.8032 100.535 98.7814 100.532 98.76L100.416 98.24C100.635 97.9546 100.826 97.6493 100.988 97.328L101.388 97.408C101.412 97.408 101.448 97.384 101.468 97.344C101.667 96.9122 101.824 96.4621 101.936 96C101.936 95.956 101.936 95.92 101.908 95.916L101.508 95.836C101.578 95.5046 101.611 95.1666 101.608 94.828L102.056 94.432ZM100.056 97.264C99.136 98.536 98.008 98.28 98.08 96.792C98.122 96.2017 98.3284 95.635 98.676 95.156C99.592 93.888 100.724 94.14 100.648 95.632C100.606 96.2198 100.403 96.7845 100.06 97.264H100.056Z"
    fill="#E6E6E6"/>
  <path
    d="M56.924 49.5399C56.856 49.5759 56.8 49.5399 56.8 49.4199V33.9599C56.7989 33.9093 56.8095 33.8592 56.831 33.8134C56.8526 33.7676 56.8844 33.7274 56.924 33.6959C56.992 33.6559 57.048 33.6959 57.048 33.8159V49.2759C57.0485 49.3264 57.0376 49.3764 57.0161 49.4221C56.9947 49.4678 56.9632 49.508 56.924 49.5399Z"
    fill="#E0E0E0"/>
  <path
    d="M73.04 40.2361L55.44 50.3921C55.372 50.4321 55.32 50.3921 55.32 50.2721C55.3187 50.2225 55.3289 50.1732 55.3497 50.1282C55.3705 50.0831 55.4014 50.0434 55.44 50.0121L73.04 39.8561C73.108 39.8161 73.16 39.8561 73.16 39.9721C73.1616 40.0224 73.1516 40.0723 73.1307 40.1181C73.1099 40.1639 73.0789 40.2043 73.04 40.2361Z"
    fill="#E0E0E0"/>
  <path d="M59.96 35.092L57.8 36.34V47.196L59.96 45.948V35.092Z" fill="#F5F5F5"/>
  <path d="M63.028 40.8521L60.868 42.1001V45.4241L63.028 44.1761V40.8521Z" fill="#EBEBEB"/>
  <path d="M66.096 28.968L63.936 30.216V43.652L66.096 42.404V28.968Z" fill="#F5F5F5"/>
  <path d="M69.164 32.564L67.004 33.812V41.88L69.164 40.632V32.564Z" fill="#E0E0E0"/>
  <path d="M72.232 33.9202L70.072 35.1682V40.1082L72.232 38.8642V33.9202Z" fill="#F5F5F5"/>
  <path
    d="M120.168 72.252V77.164L117.2 81.928C116.148 80.576 116.456 77.204 118.1 74.54C118.597 73.6231 119.306 72.8385 120.168 72.252Z"
    fill="#E0E0E0"/>
  <path
    d="M124.224 76.584C123.632 79.568 121.572 82.344 119.544 82.84C119.197 82.9466 118.828 82.9567 118.475 82.8694C118.123 82.782 117.801 82.6004 117.544 82.344L120.548 77.488L124.224 76.584Z"
    fill="#F0F0F0"/>
  <path d="M124.3 76.0682L120.764 76.9322L122.764 71.7122C124 72.1882 124.612 73.8602 124.3 76.0682Z" fill="#E0E0E0"/>
  <path d="M122.376 71.672L120.584 76.4V72C121.12 71.6714 121.759 71.5544 122.376 71.672Z" fill="#F0F0F0"/>
  <path
    d="M146.24 170.168C142.38 170.168 138.524 169.32 135.588 167.624C132.652 165.928 131.116 163.736 131.116 161.36C131.116 158.984 132.716 156.764 135.588 155.1C141.46 151.708 151.016 151.708 156.892 155.1C159.772 156.764 161.36 158.988 161.36 161.36C161.36 163.732 159.76 165.96 156.892 167.624C153.952 169.32 150.096 170.168 146.24 170.168ZM146.24 152.94C142.452 152.94 138.664 153.772 135.78 155.436C133.024 157.036 131.504 159.132 131.504 161.36C131.504 163.588 133.024 165.696 135.78 167.288C141.548 170.616 150.928 170.616 156.696 167.288C159.452 165.688 160.972 163.592 160.972 161.36C160.972 159.128 159.452 157.028 156.696 155.436C153.816 153.772 150.024 152.94 146.24 152.94Z"
    fill="#368ECD"/>
  <path d="M146.636 158.212V160.724L144.156 154V151.492L146.636 158.212Z" fill="#263238"/>
  <path d="M146.64 158.212V160.724L156.872 157.172V154.664L146.64 158.212Z" fill="#37474F"/>
  <path d="M144.156 151.472L146.64 158.212L156.872 154.664C154.064 152.212 149.2 150.988 144.156 151.472Z"
        fill="#455A64"/>
  <path d="M133.468 158.68C133.466 158.706 133.466 158.731 133.468 158.757V158.68Z" fill="#368ECD"/>
  <path
    d="M145.62 161.38L144.1 168.528C137.896 167.924 133.416 164.784 133.468 161.2V158.752C133.468 162.308 137.94 165.412 144.104 166.016L145.148 161.104L145.62 161.38Z"
    fill="#368ECD"/>
  <path opacity="0.4"
        d="M145.62 161.38L144.1 168.528C137.896 167.924 133.416 164.784 133.468 161.2V158.752C133.468 162.308 137.94 165.412 144.104 166.016L145.148 161.104L145.62 161.38Z"
        fill="black"/>
  <path
    d="M145.264 166.1V168.612C147.818 168.764 150.377 168.42 152.8 167.6C155.724 166.584 157.788 164.972 158.612 163.064C158.863 162.512 158.999 161.914 159.012 161.308C159.012 161.072 159.012 158.716 159.012 158.716C159.012 158.716 158.304 158.66 157.476 157.776L155.56 158.44L146.8 161.464L145.264 166.1Z"
    fill="#368ECD"/>
  <path opacity="0.6"
        d="M145.264 166.1V168.612C147.818 168.764 150.377 168.42 152.8 167.6C155.724 166.584 157.788 164.972 158.612 163.064C158.863 162.512 158.999 161.914 159.012 161.308C159.012 161.072 159.012 158.716 159.012 158.716C159.012 158.716 158.304 158.66 157.476 157.776L155.56 158.44L146.8 161.464L145.264 166.1Z"
        fill="white"/>
  <path d="M137.628 155.808L145.252 160.208V157.7L137.628 153.3V155.808Z" fill="#368ECD"/>
  <path opacity="0.1" d="M137.628 155.808L145.252 160.208V157.7L137.628 153.3V155.808Z" fill="black"/>
  <path
    d="M133.56 157.848C132.724 161.772 137.416 165.364 144.1 166.02L145.62 158.872L136.8 153.78C134.956 154.932 133.896 156.268 133.56 157.848Z"
    fill="#368ECD"/>
  <path opacity="0.3"
        d="M133.56 157.848C132.724 161.772 137.416 165.364 144.1 166.02L145.62 158.872L136.8 153.78C134.956 154.932 133.896 156.268 133.56 157.848Z"
        fill="black"/>
  <path
    d="M145.308 165.892L145.264 166.1C147.819 166.248 150.379 165.897 152.8 165.068C155.724 164.052 157.788 162.444 158.612 160.532C159.392 158.732 158.98 156.868 157.46 155.244L155.544 155.908L146.8 158.952L145.308 165.892Z"
    fill="#368ECD"/>
  <path opacity="0.75"
        d="M145.308 165.892L145.264 166.1C147.819 166.248 150.379 165.897 152.8 165.068C155.724 164.052 157.788 162.444 158.612 160.532C159.392 158.732 158.98 156.868 157.46 155.244L155.544 155.908L146.8 158.952L145.308 165.892Z"
        fill="white"/>
  <path d="M137.628 153.3L145.252 157.7L143.008 151.6C141.126 151.836 139.303 152.412 137.628 153.3Z" fill="#368ECD"/>
  <path d="M145.62 161.38V158.872L144.1 166.02V168.528L145.62 161.38Z" fill="#368ECD"/>
  <path opacity="0.55" d="M145.62 161.38V158.872L144.1 166.02V168.528L145.62 161.38Z" fill="black"/>
  <path d="M155.344 147.704L153.684 148.664L155.344 149.624L157.004 148.664L155.344 147.704Z" fill="#368ECD"/>
  <path opacity="0.3" d="M155.344 147.704L153.684 148.664L155.344 149.624L157.004 148.664L155.344 147.704Z"
        fill="black"/>
  <path d="M157.004 148.664V149.624L155.344 150.584V149.624L157.004 148.664Z" fill="#368ECD"/>
  <path opacity="0.4" d="M157.004 148.664V149.624L155.344 150.584V149.624L157.004 148.664Z" fill="black"/>
  <path d="M155.344 149.624V150.584L153.684 149.624V148.664L155.344 149.624Z" fill="#368ECD"/>
  <path opacity="0.55" d="M155.344 149.624V150.584L153.684 149.624V148.664L155.344 149.624Z" fill="black"/>
  <path
    d="M157.88 146.96L164.032 143.408C164.23 143.304 164.449 143.247 164.673 143.243C164.897 143.239 165.118 143.287 165.32 143.384C165.664 143.584 165.648 143.916 165.28 144.128L159.128 147.68C158.93 147.785 158.711 147.842 158.487 147.846C158.263 147.851 158.041 147.802 157.84 147.704C157.492 147.508 157.512 147.172 157.88 146.96Z"
    fill="#E0E0E0"/>
  <path d="M159.084 149.868L157.424 150.824L159.084 151.784L160.748 150.824L159.084 149.868Z" fill="#368ECD"/>
  <path opacity="0.88" d="M159.084 149.868L157.424 150.824L159.084 151.784L160.748 150.824L159.084 149.868Z"
        fill="white"/>
  <path d="M160.748 150.824V151.784L159.084 152.744V151.784L160.748 150.824Z" fill="#368ECD"/>
  <path opacity="0.75" d="M160.748 150.824V151.784L159.084 152.744V151.784L160.748 150.824Z" fill="white"/>
  <path d="M159.084 151.784V152.744L157.424 151.784V150.824L159.084 151.784Z" fill="#368ECD"/>
  <path opacity="0.6" d="M159.084 151.784V152.744L157.424 151.784V150.824L159.084 151.784Z" fill="white"/>
  <path
    d="M161.62 149.124L167.772 145.568C167.971 145.464 168.191 145.407 168.415 145.403C168.639 145.399 168.862 145.447 169.064 145.544C169.408 145.744 169.388 146.076 169.02 146.288L162.868 149.844C162.67 149.949 162.45 150.005 162.226 150.008C162.003 150.012 161.781 149.962 161.58 149.864C161.236 149.668 161.252 149.332 161.62 149.124Z"
    fill="#E0E0E0"/>
  <path d="M162.828 152.024L161.168 152.984L162.828 153.944L164.488 152.984L162.828 152.024Z" fill="#368ECD"/>
  <path opacity="0.3" d="M162.828 152.024L161.168 152.984L162.828 153.944L164.488 152.984L162.828 152.024Z"
        fill="white"/>
  <path d="M164.488 152.984V153.944L162.828 154.904V153.944L164.488 152.984Z" fill="#368ECD"/>
  <path d="M162.828 153.944V154.904L161.168 153.944V152.984L162.828 153.944Z" fill="#368ECD"/>
  <path opacity="0.1" d="M162.828 153.944V154.904L161.168 153.944V152.984L162.828 153.944Z" fill="black"/>
  <path
    d="M165.364 151.284L171.516 147.728C171.714 147.624 171.933 147.567 172.157 147.563C172.381 147.559 172.602 147.607 172.804 147.704C173.148 147.904 173.128 148.236 172.764 148.448L166.608 152C166.41 152.105 166.19 152.161 165.966 152.164C165.743 152.168 165.521 152.118 165.32 152.02C164.976 151.828 164.996 151.496 165.364 151.284Z"
    fill="#E0E0E0"/>
  <path d="M166.568 154.184L164.908 155.144L166.568 156.104L168.228 155.144L166.568 154.184Z" fill="#455A64"/>
  <path d="M168.228 155.144V156.104L166.568 157.064V156.104L168.228 155.144Z" fill="#37474F"/>
  <path d="M166.568 156.104V157.064L164.908 156.104V155.144L166.568 156.104Z" fill="#263238"/>
  <path
    d="M169.104 153.444L175.256 149.888C175.454 149.783 175.674 149.727 175.898 149.724C176.121 149.72 176.343 149.77 176.544 149.868C176.888 150.064 176.872 150.396 176.504 150.608L170.352 154.164C170.154 154.268 169.935 154.325 169.711 154.329C169.487 154.333 169.266 154.285 169.064 154.188C168.72 154 168.736 153.656 169.104 153.444Z"
    fill="#E0E0E0"/>
  <g opacity="0.3">
    <path
      d="M139.444 143.164C139.412 143.164 139.38 143.156 139.352 143.14L127.504 136.3C127.476 136.283 127.454 136.26 127.437 136.232C127.421 136.204 127.413 136.172 127.412 136.14C127.412 136.108 127.421 136.077 127.437 136.05C127.453 136.022 127.476 136 127.504 135.984L142.304 127.432C142.331 127.416 142.362 127.408 142.394 127.408C142.426 127.408 142.457 127.416 142.484 127.432L154.336 134.272C154.364 134.288 154.386 134.312 154.402 134.34C154.417 134.368 154.425 134.4 154.424 134.432C154.425 134.464 154.417 134.495 154.401 134.522C154.386 134.55 154.363 134.572 154.336 134.588L139.536 143.14C139.508 143.156 139.476 143.164 139.444 143.164ZM127.96 136.14L139.444 142.772L153.892 134.432L142.4 127.8L127.96 136.14Z"
      fill="#368ECD"/>
  </g>
  <path d="M139.444 141.272V88.3L130.556 83.168V136.14L139.444 141.272Z" fill="#368ECD"/>
  <path opacity="0.2" d="M139.444 141.272V88.3L130.556 83.168V136.14L139.444 141.272Z" fill="black"/>
  <path d="M139.444 141.272L151.292 134.432L151.296 81.46L139.444 88.3V141.272Z" fill="#368ECD"/>
  <path d="M151.296 81.4601L142.408 76.3281L130.556 83.1681L139.444 88.3001L151.296 81.4601Z" fill="#368ECD"/>
  <path opacity="0.25" d="M151.296 81.4601L142.408 76.3281L130.556 83.1681L139.444 88.3001L151.296 81.4601Z"
        fill="white"/>
  <path opacity="0.3"
        d="M151.296 81.46L139.324 88.06L135.436 85.888L130.556 83.168L135.356 86.04L139.288 88.384C139.192 89.72 139.168 135.852 139.184 137.184C139.194 138.551 139.282 139.915 139.448 141.272C139.612 139.915 139.699 138.55 139.708 137.184C139.708 135.892 139.708 89.804 139.612 88.512L151.296 81.46Z"
        fill="white"/>
  <g opacity="0.3">
    <path
      d="M117.224 156C117.192 156 117.16 155.991 117.132 155.976L105.284 149.136C105.256 149.119 105.234 149.096 105.217 149.068C105.201 149.04 105.193 149.008 105.192 148.976C105.192 148.944 105.201 148.913 105.217 148.886C105.233 148.858 105.256 148.835 105.284 148.82L120.084 140.268C120.112 140.252 120.144 140.244 120.176 140.244C120.208 140.244 120.24 140.252 120.268 140.268L132.116 147.108C132.144 147.123 132.168 147.146 132.185 147.174C132.201 147.202 132.21 147.234 132.21 147.266C132.21 147.298 132.201 147.33 132.185 147.358C132.168 147.386 132.144 147.408 132.116 147.424L117.316 155.976C117.288 155.992 117.256 156 117.224 156ZM105.74 148.976L117.224 155.6L131.672 147.26L120.188 140.628L105.74 148.976Z"
      fill="#368ECD"/>
  </g>
  <path d="M117.224 154.1V116.472L108.336 111.34V148.968L117.224 154.1Z" fill="#368ECD"/>
  <path opacity="0.1" d="M117.224 154.1V116.472L108.336 111.34V148.968L117.224 154.1Z" fill="white"/>
  <path d="M117.224 154.1L129.076 147.256V109.632L117.224 116.472V154.1Z" fill="#368ECD"/>
  <path opacity="0.3" d="M117.224 154.1L129.076 147.256V109.632L117.224 116.472V154.1Z" fill="white"/>
  <path d="M129.076 109.632L120.188 104.5L108.336 111.34L117.224 116.472L129.076 109.632Z" fill="#368ECD"/>
  <path opacity="0.55" d="M129.076 109.632L120.188 104.5L108.336 111.34L117.224 116.472L129.076 109.632Z" fill="white"/>
  <path opacity="0.3"
        d="M117.38 116.688L129.076 109.632L117.104 116.232C115.812 115.5 114.516 114.78 113.22 114.06L108.336 111.34L113.136 114.208C114.448 115.008 115.756 115.784 117.072 116.556C117.032 117.94 116.988 128.036 116.976 129.42C116.964 130.804 116.956 144.22 116.976 145.628C116.996 147.036 117.008 148.452 117.052 149.864C117.096 151.276 117.148 152.688 117.236 154.1C117.328 152.688 117.384 151.276 117.42 149.864C117.456 148.452 117.488 147.04 117.496 145.628C117.504 144.216 117.496 130.828 117.496 129.42C117.464 128.08 117.42 118.028 117.38 116.688Z"
        fill="white"/>
  <g opacity="0.3">
    <path
      d="M95.008 168.82C94.9757 168.82 94.944 168.812 94.916 168.796L83.064 161.956C83.0369 161.939 83.0147 161.915 82.9993 161.887C82.9839 161.859 82.9759 161.828 82.976 161.796C82.9754 161.764 82.9832 161.733 82.9987 161.706C83.0141 161.678 83.0367 161.656 83.064 161.64L97.864 153.088C97.8914 153.072 97.9224 153.064 97.954 153.064C97.9856 153.064 98.0166 153.072 98.044 153.088L109.896 159.928C109.924 159.944 109.946 159.968 109.962 159.996C109.977 160.024 109.985 160.056 109.984 160.088C109.985 160.119 109.977 160.15 109.961 160.178C109.946 160.205 109.923 160.228 109.896 160.244L95.096 168.796C95.0694 168.812 95.0389 168.82 95.008 168.82ZM83.52 161.796L95.008 168.428L109.456 160.088L97.968 153.456L83.52 161.796Z"
      fill="#368ECD"/>
  </g>
  <path d="M95.008 166.928L95.004 141.272L86.116 136.14L86.12 161.796L95.008 166.928Z" fill="#368ECD"/>
  <path opacity="0.45" d="M95.008 166.928L95.004 141.272L86.116 136.14L86.12 161.796L95.008 166.928Z" fill="black"/>
  <path d="M95.008 166.928L106.856 160.084L106.86 134.432L95.004 141.272L95.008 166.928Z" fill="#368ECD"/>
  <path opacity="0.3" d="M95.008 166.928L106.856 160.084L106.86 134.432L95.004 141.272L95.008 166.928Z" fill="black"/>
  <path d="M106.86 134.432L97.972 129.3L86.116 136.14L95.004 141.272L106.86 134.432Z" fill="#368ECD"/>
  <path opacity="0.15" d="M106.86 134.432L97.972 129.3L86.116 136.14L95.004 141.272L106.86 134.432Z" fill="black"/>
  <path opacity="0.3"
        d="M106.86 134.432L94.888 141.028L91 138.86L86.116 136.14L90.916 139.008L94.848 141.356C94.756 142.156 94.732 163.596 94.748 164.408C94.7566 165.255 94.845 166.098 95.012 166.928C95.1756 166.098 95.2627 165.254 95.272 164.408C95.272 163.636 95.272 142.252 95.184 141.48L106.86 134.432Z"
        fill="white"/>
  <g opacity="0.3">
    <path
      d="M161.66 130.336C161.629 130.335 161.599 130.327 161.572 130.312L149.72 123.472C149.692 123.455 149.669 123.432 149.653 123.404C149.637 123.376 149.628 123.344 149.628 123.312C149.628 123.28 149.637 123.249 149.653 123.221C149.669 123.194 149.692 123.171 149.72 123.156L164.52 114.604C164.548 114.588 164.58 114.58 164.612 114.58C164.644 114.58 164.676 114.588 164.704 114.604L176.552 121.444C176.58 121.459 176.604 121.482 176.621 121.51C176.637 121.538 176.646 121.57 176.646 121.602C176.646 121.634 176.637 121.666 176.621 121.694C176.604 121.722 176.58 121.744 176.552 121.76L161.752 130.312C161.724 130.328 161.692 130.336 161.66 130.336ZM150.176 123.312L161.66 129.944L176.108 121.6L164.624 114.968L150.176 123.312Z"
      fill="#368ECD"/>
  </g>
  <path d="M161.66 128.444V51.3681L152.772 46.2361L152.776 123.312L161.66 128.444Z" fill="#368ECD"/>
  <path opacity="0.3" d="M161.66 128.444V51.3681L152.772 46.2361L152.776 123.312L161.66 128.444Z" fill="white"/>
  <path d="M161.66 128.444L173.512 121.604V44.5281L161.66 51.3681V128.444Z" fill="#368ECD"/>
  <path opacity="0.55" d="M161.66 128.444L173.512 121.604V44.5281L161.66 51.3681V128.444Z" fill="white"/>
  <path d="M173.512 44.528L164.624 39.396L152.772 46.236L161.66 51.368L173.512 44.528Z" fill="#368ECD"/>
  <path opacity="0.75" d="M173.512 44.528L164.624 39.396L152.772 46.236L161.66 51.368L173.512 44.528Z" fill="white"/>
  <path opacity="0.3"
        d="M161.816 51.6L173.512 44.54L161.54 51.14C160.252 50.408 158.952 49.688 157.656 48.968L152.772 46.248L157.572 49.12C158.884 49.92 160.192 50.692 161.512 51.464C161.468 53.032 161.424 54.6 161.412 56.168C161.4 57.736 161.412 117.284 161.412 118.88C161.412 120.476 161.444 122.08 161.492 123.68C161.54 125.28 161.584 126.88 161.676 128.48C161.764 126.88 161.82 125.28 161.856 123.68C161.892 122.08 161.928 120.48 161.936 118.88C161.944 117.28 161.936 57.764 161.936 56.168C161.9 54.636 161.86 53.112 161.816 51.6Z"
        fill="white"/>
  <path
    d="M141.448 60.576L131.492 66.324C131.216 66.5037 130.987 66.7459 130.822 67.0308C130.657 67.3157 130.562 67.6354 130.544 67.964V76.04C130.544 76.644 130.968 76.888 131.492 76.588L135.16 74.464L136.144 76.164C136.187 76.2406 136.251 76.3031 136.329 76.3438C136.407 76.3845 136.495 76.4017 136.582 76.3932C136.67 76.3847 136.753 76.3509 136.821 76.296C136.89 76.2411 136.941 76.1674 136.968 76.084L138.124 72.756L141.448 70.84C141.724 70.6607 141.955 70.4188 142.12 70.1338C142.285 69.8489 142.381 69.5289 142.4 69.2V61.124C142.4 60.52 141.972 60.276 141.448 60.576Z"
    fill="#FAFAFA"/>
  <path
    d="M131.068 76.9319C130.944 76.9328 130.822 76.8996 130.716 76.8359C130.582 76.7521 130.474 76.6331 130.404 76.492C130.333 76.3509 130.303 76.1932 130.316 76.0359V67.964C130.334 67.5982 130.438 67.2419 130.621 66.9247C130.804 66.6075 131.06 66.3385 131.368 66.14L141.34 60.3999C141.468 60.3114 141.617 60.2584 141.773 60.2465C141.928 60.2345 142.084 60.264 142.224 60.332C142.357 60.4168 142.464 60.5359 142.534 60.6768C142.605 60.8176 142.636 60.9749 142.624 61.132V69.1999C142.606 69.5662 142.501 69.9229 142.318 70.2403C142.134 70.5576 141.877 70.8263 141.568 71.0239L138.316 72.8999L137.188 76.1559C137.146 76.2776 137.069 76.3845 136.968 76.4639C136.866 76.5433 136.744 76.5919 136.616 76.6039C136.488 76.6145 136.36 76.5889 136.246 76.5302C136.133 76.4715 136.037 76.382 135.972 76.2719L135.1 74.7559L131.616 76.7559C131.452 76.8624 131.263 76.9232 131.068 76.9319ZM141.868 60.6599C141.756 60.6669 141.648 60.7012 141.552 60.7599L131.6 66.508C131.357 66.6693 131.154 66.8846 131.008 67.1372C130.861 67.3897 130.775 67.6727 130.756 67.964V76.04C130.746 76.12 130.757 76.2012 130.787 76.276C130.817 76.3508 130.866 76.4168 130.928 76.4679C131.003 76.4971 131.084 76.5065 131.164 76.4953C131.244 76.4841 131.32 76.4527 131.384 76.4039L135.24 74.176L136.328 76.0599C136.351 76.1002 136.385 76.133 136.426 76.1543C136.467 76.1756 136.514 76.1845 136.56 76.1799C136.607 76.1755 136.651 76.1577 136.688 76.1286C136.725 76.0995 136.753 76.0604 136.768 76.0159L137.948 72.608L141.34 70.6559C141.583 70.4944 141.785 70.2789 141.931 70.0264C142.076 69.7738 142.162 69.491 142.18 69.1999V61.1239C142.19 61.0442 142.18 60.9632 142.151 60.8883C142.122 60.8135 142.074 60.7473 142.012 60.696C141.968 60.671 141.918 60.6586 141.868 60.6599Z"
    fill="#E0E0E0"/>
  <path
    d="M132.768 73.4681C132.736 73.4682 132.704 73.4598 132.676 73.4436C132.648 73.4274 132.624 73.4042 132.608 73.3761C132.596 73.3554 132.588 73.3325 132.585 73.3088C132.582 73.285 132.584 73.2609 132.59 73.2378C132.596 73.2147 132.607 73.1931 132.622 73.1743C132.637 73.1554 132.655 73.1397 132.676 73.1281L140.08 68.8521C140.101 68.8366 140.125 68.8257 140.15 68.8201C140.175 68.8144 140.201 68.8142 140.227 68.8194C140.252 68.8246 140.276 68.8351 140.297 68.8502C140.318 68.8653 140.336 68.8847 140.349 68.9071C140.362 68.9295 140.37 68.9544 140.373 68.9801C140.376 69.0059 140.373 69.0319 140.365 69.0566C140.357 69.0812 140.344 69.1039 140.326 69.1231C140.309 69.1423 140.288 69.1576 140.264 69.1681L132.856 73.4441C132.829 73.4593 132.799 73.4676 132.768 73.4681Z"
    fill="#E0E0E0"/>
  <path
    d="M132.768 71.7561C132.736 71.7562 132.704 71.7477 132.676 71.7316C132.648 71.7154 132.624 71.6921 132.608 71.6641C132.596 71.6434 132.588 71.6205 132.585 71.5967C132.582 71.573 132.584 71.5489 132.59 71.5258C132.596 71.5027 132.607 71.4811 132.622 71.4622C132.637 71.4434 132.655 71.4277 132.676 71.416L140.08 67.1401C140.123 67.1166 140.173 67.1105 140.22 67.1232C140.267 67.1359 140.307 67.1663 140.332 67.2081C140.355 67.2501 140.361 67.2996 140.349 67.3459C140.336 67.3922 140.305 67.4318 140.264 67.4561L132.856 71.7321C132.829 71.7473 132.799 71.7556 132.768 71.7561Z"
    fill="#E0E0E0"/>
  <path
    d="M132.768 70.0479C132.736 70.048 132.704 70.0396 132.676 70.0234C132.648 70.0073 132.624 69.984 132.608 69.9559C132.596 69.9352 132.588 69.9123 132.585 69.8886C132.582 69.8649 132.584 69.8407 132.59 69.8176C132.596 69.7945 132.607 69.7729 132.622 69.7541C132.637 69.7353 132.655 69.7196 132.676 69.7079L140.08 65.4319C140.101 65.4164 140.125 65.4055 140.15 65.3999C140.175 65.3943 140.201 65.394 140.227 65.3992C140.252 65.4044 140.276 65.4149 140.297 65.43C140.318 65.4451 140.336 65.4645 140.349 65.4869C140.362 65.5093 140.37 65.5342 140.373 65.56C140.376 65.5857 140.373 65.6118 140.365 65.6364C140.357 65.6611 140.344 65.6837 140.326 65.7029C140.309 65.7222 140.288 65.7375 140.264 65.7479L132.856 70.0239C132.829 70.0392 132.799 70.0474 132.768 70.0479Z"
    fill="#E0E0E0"/>
  <path
    d="M132.768 68.3359C132.736 68.336 132.705 68.328 132.677 68.3126C132.649 68.2972 132.625 68.2749 132.608 68.2479C132.596 68.2269 132.588 68.2037 132.585 68.1796C132.582 68.1556 132.583 68.1312 132.59 68.1077C132.596 68.0843 132.607 68.0624 132.622 68.0432C132.636 68.024 132.655 68.0079 132.676 67.9959L140.08 63.7199C140.123 63.6964 140.173 63.6903 140.22 63.703C140.267 63.7157 140.307 63.7461 140.332 63.7879C140.355 63.8299 140.361 63.8794 140.348 63.9257C140.336 63.9721 140.305 64.0116 140.264 64.0359L132.856 68.3119C132.829 68.3271 132.799 68.3354 132.768 68.3359Z"
    fill="#368ECD"/>
  <path
    d="M119.24 88.7441L109.284 94.4921C109.008 94.6714 108.778 94.9134 108.613 95.1984C108.449 95.4834 108.354 95.8034 108.336 96.1321V104.204C108.336 104.808 108.76 105.056 109.284 104.752L112.952 102.632L113.936 104.332C113.98 104.407 114.045 104.468 114.122 104.508C114.2 104.547 114.287 104.564 114.374 104.556C114.46 104.547 114.543 104.514 114.611 104.46C114.68 104.407 114.731 104.334 114.76 104.252L115.916 100.92L119.24 99.0041C119.516 98.8248 119.746 98.5828 119.911 98.2978C120.075 98.0128 120.17 97.6928 120.188 97.3641V89.2881C120.188 88.6841 119.764 88.4401 119.24 88.7441Z"
    fill="#FAFAFA"/>
  <path
    d="M108.86 105.096C108.737 105.096 108.615 105.065 108.508 105.004C108.375 104.919 108.268 104.8 108.198 104.659C108.127 104.518 108.096 104.361 108.108 104.204V96.132C108.126 95.7657 108.23 95.4089 108.413 95.091C108.596 94.7732 108.852 94.5034 109.16 94.304L119.116 88.556C119.241 88.4643 119.39 88.411 119.545 88.4025C119.7 88.3941 119.854 88.4309 119.989 88.5085C120.123 88.5861 120.232 88.7011 120.302 88.8395C120.372 88.9779 120.401 89.1337 120.384 89.288V97.364C120.367 97.7303 120.262 98.0871 120.078 98.4045C119.894 98.7219 119.637 98.9906 119.328 99.188L116.076 101.064L114.948 104.32C114.906 104.442 114.83 104.55 114.729 104.629C114.627 104.709 114.505 104.757 114.376 104.768C114.248 104.781 114.119 104.757 114.004 104.698C113.89 104.639 113.795 104.548 113.732 104.436L112.86 102.92L109.376 104.92C109.222 105.023 109.044 105.083 108.86 105.096ZM119.344 88.928L109.392 94.676C109.148 94.8366 108.945 95.0518 108.798 95.3045C108.652 95.5572 108.566 95.8405 108.548 96.132V104.204C108.523 104.285 108.526 104.371 108.556 104.45C108.587 104.529 108.643 104.595 108.716 104.637C108.789 104.68 108.875 104.696 108.958 104.683C109.042 104.671 109.119 104.63 109.176 104.568L113.032 102.34L114.12 104.224C114.142 104.265 114.176 104.299 114.217 104.32C114.259 104.342 114.306 104.35 114.352 104.344C114.399 104.341 114.444 104.324 114.482 104.295C114.519 104.265 114.546 104.225 114.56 104.18L115.76 100.776L119.152 98.82C119.395 98.6586 119.597 98.4432 119.743 98.1906C119.889 97.938 119.974 97.655 119.992 97.364V89.288C120.002 89.2083 119.992 89.1273 119.963 89.0525C119.933 88.9778 119.886 88.9115 119.824 88.86C119.748 88.8306 119.666 88.8215 119.585 88.8334C119.504 88.8453 119.428 88.8779 119.364 88.928H119.344Z"
    fill="#E0E0E0"/>
  <path
    d="M110.56 101.632C110.528 101.632 110.496 101.624 110.468 101.607C110.44 101.591 110.416 101.568 110.4 101.54C110.388 101.519 110.38 101.496 110.377 101.473C110.374 101.449 110.376 101.425 110.382 101.402C110.388 101.379 110.399 101.357 110.414 101.338C110.429 101.319 110.447 101.304 110.468 101.292L117.872 97.0159C117.893 97.0004 117.917 96.9895 117.942 96.9839C117.967 96.9783 117.993 96.978 118.019 96.9832C118.044 96.9884 118.068 96.9989 118.089 97.014C118.11 97.0291 118.128 97.0485 118.141 97.0709C118.154 97.0933 118.162 97.1182 118.165 97.1439C118.168 97.1697 118.165 97.1958 118.157 97.2204C118.149 97.245 118.136 97.2677 118.118 97.2869C118.101 97.3061 118.08 97.3215 118.056 97.3319L110.648 101.6C110.622 101.618 110.592 101.629 110.56 101.632Z"
    fill="#368ECD"/>
  <path
    d="M110.56 99.9241C110.528 99.9243 110.496 99.9158 110.468 99.8997C110.44 99.8835 110.416 99.8602 110.4 99.8321C110.388 99.8115 110.38 99.7886 110.377 99.7648C110.374 99.7411 110.376 99.7169 110.382 99.6939C110.388 99.6708 110.399 99.6492 110.414 99.6303C110.429 99.6115 110.447 99.5958 110.468 99.5841L117.872 95.3081C117.893 95.2927 117.917 95.2818 117.942 95.2761C117.967 95.2705 117.993 95.2703 118.019 95.2755C118.044 95.2807 118.068 95.2912 118.089 95.3063C118.11 95.3214 118.128 95.3407 118.141 95.3631C118.154 95.3855 118.162 95.4104 118.165 95.4362C118.168 95.4619 118.165 95.488 118.157 95.5126C118.149 95.5373 118.136 95.5599 118.118 95.5792C118.101 95.5984 118.08 95.6137 118.056 95.6241L110.648 99.9001C110.621 99.9154 110.591 99.9237 110.56 99.9241Z"
    fill="#E0E0E0"/>
  <path
    d="M110.56 98.212C110.528 98.2121 110.496 98.2036 110.468 98.1875C110.44 98.1713 110.416 98.148 110.4 98.12C110.388 98.0993 110.38 98.0764 110.377 98.0526C110.374 98.0289 110.376 98.0048 110.382 97.9817C110.388 97.9586 110.399 97.937 110.414 97.9181C110.429 97.8993 110.447 97.8836 110.468 97.872L117.872 93.6C117.893 93.5878 117.916 93.5799 117.94 93.5768C117.964 93.5736 117.989 93.5752 118.012 93.5815C118.036 93.5879 118.058 93.5988 118.077 93.6136C118.096 93.6284 118.112 93.6469 118.124 93.668C118.147 93.71 118.153 93.7595 118.141 93.8058C118.128 93.8522 118.097 93.8917 118.056 93.916L110.648 98.192C110.621 98.2058 110.591 98.2127 110.56 98.212Z"
    fill="#E0E0E0"/>
  <path
    d="M110.56 96.504C110.528 96.5041 110.496 96.4956 110.468 96.4795C110.44 96.4633 110.416 96.44 110.4 96.412C110.388 96.3913 110.38 96.3684 110.377 96.3447C110.374 96.3209 110.376 96.2968 110.382 96.2737C110.388 96.2506 110.399 96.229 110.414 96.2101C110.429 96.1913 110.447 96.1756 110.468 96.164L117.872 91.888C117.893 91.8725 117.917 91.8616 117.942 91.856C117.967 91.8503 117.993 91.8501 118.019 91.8553C118.044 91.8605 118.068 91.871 118.089 91.8861C118.11 91.9012 118.128 91.9206 118.141 91.943C118.154 91.9654 118.162 91.9903 118.165 92.016C118.168 92.0418 118.165 92.0678 118.157 92.0925C118.149 92.1171 118.136 92.1398 118.118 92.159C118.101 92.1782 118.08 92.1935 118.056 92.204L110.648 96.48C110.621 96.4952 110.591 96.5035 110.56 96.504Z"
    fill="#E0E0E0"/>
  <path
    d="M97.028 113.54L87.072 119.288C86.7958 119.467 86.566 119.709 86.4013 119.994C86.2365 120.279 86.1415 120.599 86.124 120.928V129C86.124 129.604 86.548 129.852 87.072 129.548L90.74 127.428L91.724 129.128C91.7686 129.203 91.8336 129.264 91.9114 129.303C91.9892 129.342 92.0765 129.359 92.1633 129.35C92.2501 129.342 92.3327 129.309 92.4015 129.256C92.4703 129.202 92.5225 129.13 92.552 129.048L93.704 125.716L97.028 123.8C97.3041 123.621 97.5339 123.379 97.6986 123.094C97.8634 122.809 97.9584 122.489 97.976 122.16V114.084C97.976 113.48 97.552 113.236 97.028 113.54Z"
    fill="#FAFAFA"/>
  <path
    d="M86.648 129.892C86.5247 129.892 86.4036 129.86 86.296 129.8C86.1633 129.715 86.056 129.596 85.9856 129.455C85.9152 129.314 85.8842 129.157 85.896 129V120.928C85.9136 120.561 86.0186 120.204 86.2023 119.886C86.386 119.568 86.643 119.299 86.952 119.1L96.904 113.352C97.0292 113.26 97.1783 113.207 97.3333 113.199C97.4882 113.19 97.6423 113.227 97.7767 113.305C97.911 113.382 98.02 113.497 98.0902 113.636C98.1604 113.774 98.1888 113.93 98.172 114.084V122.16C98.1549 122.526 98.0504 122.883 97.8674 123.2C97.6844 123.517 97.4281 123.786 97.12 123.984L93.864 125.86L92.736 129.116C92.6929 129.235 92.617 129.338 92.5173 129.416C92.4176 129.493 92.2981 129.54 92.1726 129.552C92.047 129.565 91.9206 129.541 91.808 129.484C91.6953 129.428 91.601 129.34 91.536 129.232L90.66 127.716L87.176 129.716C87.0189 129.821 86.8366 129.882 86.648 129.892ZM97.136 113.724L87.2 119.472C86.9566 119.633 86.754 119.848 86.6082 120.101C86.4624 120.354 86.3774 120.637 86.36 120.928V129C86.3496 129.08 86.3596 129.162 86.3889 129.238C86.4183 129.313 86.4661 129.38 86.528 129.432C86.6044 129.459 86.6863 129.467 86.7665 129.455C86.8466 129.443 86.9227 129.412 86.988 129.364L90.84 127.136L91.928 129.02C91.9517 129.06 91.9863 129.092 92.0278 129.113C92.0692 129.134 92.1158 129.143 92.162 129.138C92.2082 129.134 92.2521 129.116 92.2886 129.087C92.3251 129.058 92.3526 129.02 92.368 128.976L93.548 125.572L96.92 123.6C97.1635 123.439 97.3664 123.224 97.5128 122.971C97.6592 122.719 97.7452 122.435 97.764 122.144V114.084C97.7736 114.004 97.7628 113.923 97.7328 113.848C97.7027 113.773 97.6543 113.707 97.592 113.656C97.5167 113.627 97.4349 113.618 97.355 113.629C97.275 113.641 97.1995 113.674 97.136 113.724Z"
    fill="#E0E0E0"/>
  <path
    d="M88.348 126.428C88.3068 126.43 88.266 126.419 88.2325 126.394C88.1991 126.37 88.1749 126.335 88.1641 126.295C88.1534 126.256 88.1566 126.213 88.1733 126.176C88.19 126.138 88.2192 126.107 88.256 126.088L95.664 121.812C95.7059 121.788 95.7556 121.782 95.8021 121.795C95.8251 121.801 95.8467 121.812 95.8655 121.827C95.8844 121.841 95.9002 121.859 95.912 121.88C95.9238 121.901 95.9314 121.924 95.9344 121.947C95.9374 121.971 95.9357 121.995 95.9294 122.018C95.923 122.041 95.9122 122.063 95.8976 122.082C95.883 122.101 95.8647 122.116 95.844 122.128L88.44 126.4C88.4121 126.417 88.3805 126.427 88.348 126.428Z"
    fill="#E0E0E0"/>
  <path
    d="M88.348 124.72C88.3156 124.72 88.2837 124.712 88.2556 124.696C88.2275 124.679 88.2042 124.656 88.188 124.628C88.1647 124.586 88.1588 124.537 88.1715 124.49C88.1842 124.444 88.2145 124.404 88.256 124.38L95.664 120.104C95.6844 120.092 95.7071 120.084 95.7307 120.08C95.7543 120.077 95.7783 120.078 95.8014 120.084C95.8244 120.09 95.8461 120.101 95.8651 120.115C95.8841 120.13 95.9 120.148 95.912 120.168C95.9355 120.211 95.9415 120.261 95.9288 120.308C95.9162 120.355 95.8857 120.395 95.844 120.42L88.44 124.696C88.4118 124.712 88.3802 124.72 88.348 124.72Z"
    fill="#E0E0E0"/>
  <path
    d="M88.348 123.008C88.3068 123.01 88.266 122.998 88.2325 122.974C88.1991 122.95 88.1749 122.915 88.1641 122.875C88.1534 122.836 88.1566 122.793 88.1733 122.755C88.19 122.718 88.2192 122.687 88.256 122.668L95.664 118.4C95.6847 118.388 95.7076 118.381 95.7313 118.378C95.755 118.375 95.779 118.376 95.8021 118.383C95.8251 118.389 95.8467 118.4 95.8655 118.414C95.8844 118.429 95.9002 118.447 95.912 118.468C95.9238 118.489 95.9314 118.512 95.9344 118.535C95.9374 118.559 95.9357 118.583 95.9294 118.606C95.923 118.629 95.9122 118.651 95.8976 118.67C95.883 118.688 95.8647 118.704 95.844 118.716L88.44 122.984C88.4118 122.999 88.3802 123.008 88.348 123.008Z"
    fill="#368ECD"/>
  <path
    d="M88.348 121.3C88.3156 121.3 88.2837 121.292 88.2556 121.275C88.2275 121.259 88.2042 121.236 88.188 121.208C88.1647 121.166 88.1588 121.116 88.1715 121.07C88.1842 121.024 88.2145 120.984 88.256 120.96L95.664 116.684C95.7055 116.66 95.7547 116.654 95.8009 116.666C95.8472 116.678 95.8871 116.707 95.912 116.748C95.9355 116.791 95.9415 116.841 95.9288 116.888C95.9162 116.935 95.8857 116.975 95.844 117L88.44 121.276C88.4118 121.291 88.3802 121.3 88.348 121.3Z"
    fill="#E0E0E0"/>
  <path
    d="M163.676 23.6399L153.72 29.3879C153.444 29.5671 153.214 29.8091 153.049 30.0942C152.885 30.3792 152.79 30.6991 152.772 31.0279V39.1039C152.772 39.7079 153.196 39.9519 153.72 39.6479L157.388 37.5279L158.372 39.2279C158.416 39.3042 158.48 39.3663 158.558 39.4067C158.636 39.4471 158.724 39.4641 158.812 39.4557C158.899 39.4472 158.983 39.4137 159.051 39.3591C159.12 39.3045 159.172 39.2311 159.2 39.1479L160.352 35.8159L163.676 33.8999C163.952 33.7206 164.182 33.4786 164.347 33.1935C164.511 32.9085 164.606 32.5886 164.624 32.2599V24.1879C164.624 23.5999 164.2 23.3359 163.676 23.6399Z"
    fill="#FAFAFA"/>
  <path
    d="M153.296 40C153.173 39.9997 153.052 39.9681 152.944 39.908C152.811 39.8235 152.703 39.7044 152.633 39.5634C152.563 39.4225 152.532 39.265 152.544 39.108V31.028C152.561 30.6609 152.665 30.3033 152.849 29.9851C153.033 29.667 153.29 29.3977 153.6 29.2L163.552 23.452C163.677 23.3603 163.826 23.307 163.981 23.2985C164.136 23.2901 164.29 23.3269 164.425 23.4045C164.559 23.4821 164.668 23.5971 164.738 23.7355C164.808 23.8739 164.837 24.0297 164.82 24.184V32.26C164.802 32.6262 164.698 32.9831 164.515 33.3009C164.332 33.6187 164.076 33.8885 163.768 34.088L160.512 35.96L159.4 39.2C159.359 39.3218 159.284 39.4291 159.183 39.5087C159.082 39.5883 158.96 39.6367 158.832 39.648C158.704 39.6625 158.574 39.6387 158.46 39.5796C158.345 39.5205 158.25 39.4288 158.188 39.316L157.312 37.804L153.828 39.804C153.672 39.9166 153.488 39.9843 153.296 40ZM163.784 23.832L153.828 29.572C153.585 29.7333 153.383 29.9487 153.237 30.2013C153.091 30.4539 153.006 30.7369 152.988 31.028V39.104C152.964 39.1842 152.968 39.2702 152.999 39.3479C153.031 39.4256 153.087 39.4905 153.16 39.5321C153.232 39.5737 153.317 39.5897 153.4 39.5773C153.483 39.5649 153.559 39.525 153.616 39.464L157.468 37.236L158.556 39.12C158.578 39.1613 158.612 39.195 158.653 39.2165C158.695 39.2379 158.742 39.2461 158.788 39.24C158.835 39.2374 158.88 39.2207 158.917 39.1922C158.954 39.1636 158.982 39.1245 158.996 39.08L160.176 35.672L163.568 33.716C163.809 33.5535 164.01 33.3377 164.154 33.0852C164.298 32.8327 164.383 32.5503 164.4 32.26V24.188C164.425 24.1074 164.422 24.0205 164.392 23.9418C164.361 23.8631 164.305 23.7971 164.232 23.7547C164.159 23.7124 164.073 23.6961 163.99 23.7087C163.906 23.7213 163.829 23.7619 163.772 23.824L163.784 23.832Z"
    fill="#E0E0E0"/>
  <path
    d="M158.1 34.8C158.1 34.558 158.156 34.3192 158.262 34.1017C158.368 33.8841 158.522 33.6934 158.712 33.544C159.036 33.36 159.296 33.632 159.296 34.108C159.303 34.3517 159.253 34.5938 159.152 34.8156C159.051 35.0375 158.9 35.2333 158.712 35.388C158.368 35.6 158.1 35.312 158.1 34.8ZM158.172 28.616L159.256 28L159.04 32.632L158.388 33.008L158.172 28.616Z"
    fill="#368ECD"/>
</svg>
