<?xml version="1.0" encoding="utf-8"?>
<!-- Generator: Adobe Illustrator 27.2.0, SVG Export Plug-In . SVG Version: 6.00 Build 0)  -->
<svg version="1.1" id="Calque_1" xmlns="http://www.w3.org/2000/svg" xmlns:xlink="http://www.w3.org/1999/xlink" x="0px" y="0px"
	 viewBox="0 0 217 232.6" style="enable-background:new 0 0 217 232.6;" xml:space="preserve">
<style type="text/css">
	.st0{fill:#368ECD;}
	.st1{opacity:0.1;enable-background:new    ;}
	.st2{opacity:0.4;enable-background:new    ;}
	.st3{opacity:0.3;enable-background:new    ;}
	.st4{opacity:0.3;fill:#FFFFFF;enable-background:new    ;}
	.st5{opacity:0.2;enable-background:new    ;}
	.st6{fill:#455A64;}
	.st7{opacity:0.4;fill:#FFFFFF;enable-background:new    ;}
	.st8{opacity:0.5;fill:#FFFFFF;enable-background:new    ;}
	.st9{opacity:0.8;}
	.st10{fill:#FFFFFF;}
	.st11{opacity:0.7;}
	.st12{opacity:0.5;}
	.st13{opacity:0.2;}
	.st14{fill:#FFA8A7;}
	.st15{opacity:0.1;}
	.st16{fill:#37474F;}
	.st17{opacity:0.7;enable-background:new    ;}
	.st18{fill:#F28F8F;}
	.st19{fill:#AB6060;}
	.st20{fill:#263238;}
	.st21{fill:#873E3E;}
</style>
<g>
	<path class="st0" d="M121.9,163l-13.7,7.9c-2,1.1-4.2,1.7-6.5,1.7s-4.5-0.6-6.5-1.7L85,165c-0.6-0.3-1.1-0.8-1.4-1.4
		s-0.5-1.3-0.5-2v-7l-2.1,1.2v6c0,0.8,0.2,1.6,0.6,2.3c0.4,0.7,1,1.3,1.7,1.7l12.1,7c1.9,1.1,4.1,1.7,6.4,1.7c2.2,0,4.4-0.6,6.4-1.7
		l13.8-7.9c0.9-0.5,1.7-1.4,2.1-2.3c0.5-1,0.6-2.1,0.4-3.2c-0.1,0.7-0.4,1.5-0.9,2.1C123.1,162.1,122.6,162.6,121.9,163z"/>
	<path class="st1" d="M121.9,163l-13.7,7.9c-2,1.1-4.2,1.7-6.5,1.7s-4.5-0.6-6.5-1.7L85,165c-0.6-0.3-1.1-0.8-1.4-1.4
		s-0.5-1.3-0.5-2v-7l-2.1,1.2v6c0,0.8,0.2,1.6,0.6,2.3c0.4,0.7,1,1.3,1.7,1.7l12.1,7c1.9,1.1,4.1,1.7,6.4,1.7c2.2,0,4.4-0.6,6.4-1.7
		l13.8-7.9c0.9-0.5,1.7-1.4,2.1-2.3c0.5-1,0.6-2.1,0.4-3.2c-0.1,0.7-0.4,1.5-0.9,2.1C123.1,162.1,122.6,162.6,121.9,163z"/>
	<path class="st0" d="M85,165l10.2,5.9c2,1.1,4.2,1.7,6.5,1.7s4.5-0.6,6.5-1.7l13.7-7.8c0.7-0.4,1.2-0.9,1.7-1.5
		c0.4-0.6,0.7-1.3,0.9-2.1c-0.1-0.7-0.4-1.4-0.8-2c-0.4-0.6-1-1.1-1.6-1.5l-11.3-6.8c-0.7-0.4-1.2-1-1.6-1.7
		c-0.4-0.7-0.6-1.5-0.6-2.2v-5.4L83,154.6v7c0,0.7,0.2,1.4,0.5,2C83.9,164.1,84.4,164.6,85,165z"/>
	<path class="st2" d="M85,165c-0.6-0.3-1.1-0.8-1.4-1.4s-0.5-1.3-0.5-2v-7l-2.1,1.2v6c0,0.8,0.2,1.6,0.6,2.3c0.4,0.7,1,1.3,1.7,1.7
		l4.3,2.5v-1.9L85,165z"/>
	<path class="st3" d="M85,165l2.5,1.4l26.6-15.2l-3.4-2c-0.7-0.4-1.2-1-1.6-1.7c-0.4-0.7-0.6-1.5-0.6-2.2v-5.4L83,154.6v7
		c0,0.7,0.2,1.4,0.5,2C83.9,164.1,84.4,164.6,85,165z"/>
	<path class="st0" d="M38.8,179.7l-0.2-87.1c0.1-1.3,0.5-2.7,1.1-3.8c0.7-1.2,1.6-2.2,2.8-2.9l108.3-62.4c1.1-0.6,2-0.7,2.7-0.3
		l-4.1-2.4c-0.7-0.5-1.7-0.4-2.8,0.2L38.3,83.5c-1.1,0.7-2.1,1.7-2.7,2.9c-0.7,1.2-1.1,2.5-1.1,3.8l0.2,87.1c0,1.2,0.4,2,1.1,2.4
		c0.1,0,0.1,0.1,0.2,0.1l4,2.3C39.2,181.8,38.8,181,38.8,179.7z"/>
	<path class="st4" d="M149.4,20.9c-0.7-0.5-1.7-0.4-2.8,0.2L38.3,83.5c-1.3,0.8-2.3,2-3,3.3l4.2,2.4c0.7-1.4,1.7-2.5,3-3.3
		l108.3-62.4c1.1-0.6,2-0.7,2.7-0.3L149.4,20.9z"/>
	<path class="st5" d="M34.4,90.2l0.2,87.1c0,1.2,0.4,2,1.1,2.4c0.1,0,0.1,0.1,0.2,0.1l4,2.3c-0.7-0.4-1.1-1.3-1.1-2.5l-0.2-87.1
		c0-1.2,0.3-2.4,0.9-3.4l-4.2-2.4C34.8,87.8,34.4,89,34.4,90.2z"/>
	<path class="st0" d="M154.7,25.7c0-1.2-0.4-2.1-1.1-2.5h0c-0.7-0.4-1.7-0.3-2.7,0.3L42.4,85.9c-1.1,0.7-2.1,1.7-2.8,2.9
		c-0.7,1.2-1.1,2.5-1.1,3.8l0.2,87.1c0,1.2,0.4,2.1,1.1,2.5c0,0,0,0,0.1,0h0c0.7,0.4,1.7,0.3,2.7-0.3L151,119.6
		c1.1-0.7,2.1-1.7,2.7-2.9c0.7-1.2,1.1-2.5,1.1-3.8L154.7,25.7z M149.1,116.3L42.6,177.6l-0.2-85c0.1-0.7,0.3-1.3,0.6-1.9
		c0.3-0.6,0.8-1.1,1.3-1.5l106.5-61.3l0.2,85c-0.1,0.7-0.3,1.3-0.6,1.9S149.6,115.9,149.1,116.3z"/>
	<path class="st0" d="M150.8,27.9l-2.8,1.6l0.2,82.1c-0.1,0.7-0.3,1.3-0.6,1.9c-0.3,0.6-0.8,1.1-1.3,1.5L42.6,174.6v2.9l106.5-61.3
		c0.5-0.4,1-0.9,1.3-1.5s0.6-1.2,0.6-1.9L150.8,27.9z"/>
	<path class="st3" d="M150.8,27.9l-2.8,1.6l0.2,82.1c-0.1,0.7-0.3,1.3-0.6,1.9c-0.3,0.6-0.8,1.1-1.3,1.5L42.6,174.6v2.9l106.5-61.3
		c0.5-0.4,1-0.9,1.3-1.5s0.6-1.2,0.6-1.9L150.8,27.9z"/>
	<path class="st6" d="M148.3,111.5l-0.2-82.1L44.4,89.2c-0.5,0.4-1,0.9-1.3,1.5c-0.3,0.6-0.6,1.2-0.6,1.9l0.2,82.1l103.7-59.7
		c0.5-0.4,1-0.9,1.3-1.5C148,112.9,148.2,112.2,148.3,111.5z"/>
	<path class="st0" d="M55.2,184.2L55,101.8c0.1-1.3,0.4-2.5,1.1-3.6c0.6-1.1,1.5-2,2.6-2.7l102.4-59c1-0.6,1.9-0.6,2.6-0.3l-3.9-2.2
		c-0.7-0.4-1.6-0.4-2.7,0.2l-102.4,59c-1.1,0.7-2,1.6-2.6,2.7c-0.6,1.1-1,2.3-1.1,3.6l0.2,82.4c0,1.1,0.4,1.9,1,2.3l0.2,0.1l3.8,2.2
		C55.6,186.1,55.2,185.3,55.2,184.2z"/>
	<path class="st7" d="M159.8,34c-0.7-0.4-1.6-0.4-2.7,0.2l-102.4,59c-1.2,0.8-2.2,1.9-2.8,3.2l3.9,2.3c0.6-1.3,1.6-2.4,2.8-3.2
		L161,36.5c1-0.6,1.9-0.6,2.6-0.3L159.8,34z"/>
	<path class="st4" d="M51,99.5l0.2,82.4c0,1.1,0.4,1.9,1,2.3l0.2,0.1l3.8,2.2c-0.7-0.4-1.1-1.2-1.1-2.4L55,101.8
		c0-1.1,0.3-2.2,0.9-3.2l-3.9-2.3C51.4,97.3,51.1,98.4,51,99.5z"/>
	<path class="st0" d="M55,106.6l0.2,77.6c0,1.1,0.4,2,1.1,2.4l0.1,0c0.7,0.4,1.6,0.3,2.6-0.3l102.4-58.9c1.1-0.7,2-1.6,2.6-2.7
		c0.6-1.1,1-2.3,1.1-3.6l-0.2-77.7L55,106.6z"/>
	<path class="st8" d="M55,106.6l0.2,77.6c0,1.1,0.4,2,1.1,2.4l0.1,0c0.7,0.4,1.6,0.3,2.6-0.3l102.4-58.9c1.1-0.7,2-1.6,2.6-2.7
		c0.6-1.1,1-2.3,1.1-3.6l-0.2-77.7L55,106.6z"/>
	<path class="st0" d="M160.5,48.4c0.9-0.5,1.7-0.1,1.7,1c0,0.6-0.2,1.2-0.5,1.7c-0.3,0.5-0.7,1-1.2,1.3l-87.8,50.7
		c-0.9,0.5-1.7,0.1-1.7-1c0-0.6,0.2-1.2,0.5-1.7c0.3-0.5,0.7-1,1.2-1.3L160.5,48.4z"/>
	<g class="st9">
		<path class="st10" d="M160.5,48.4c0.9-0.5,1.7-0.1,1.7,1c0,0.6-0.2,1.2-0.5,1.7c-0.3,0.5-0.7,1-1.2,1.3l-87.8,50.7
			c-0.9,0.5-1.7,0.1-1.7-1c0-0.6,0.2-1.2,0.5-1.7c0.3-0.5,0.7-1,1.2-1.3L160.5,48.4z"/>
	</g>
	<path class="st0" d="M59.8,107.5C59.9,107.4,59.9,107.4,59.8,107.5c0.1,0,0.1,0,0.1,0c0.1,0,0.1,0.2,0,0.3l-0.6,1l1.9-1.1
		c0.1-0.1,0.2,0,0.2,0.1c0,0.1,0,0.1,0,0.2c0,0.1-0.1,0.1-0.1,0.1l-1.9,1.1l0.6,0.4c0.1,0,0.1,0.2,0,0.3c0,0-0.1,0.1-0.1,0.1
		c0,0,0,0-0.1,0c0,0,0,0-0.1,0l-0.8-0.6c0,0,0,0,0,0c0,0,0,0,0-0.1c0,0,0,0,0-0.1l0-0.1l0.8-1.5C59.7,107.5,59.8,107.5,59.8,107.5z"
		/>
	<path class="st0" d="M64.6,104.7C64.6,104.7,64.6,104.7,64.6,104.7c0.1,0,0.1,0,0.1,0l0.8,0.6c0,0,0,0,0,0c0,0,0,0,0,0.1
		c0,0,0,0,0,0.1l0,0.1l-0.8,1.5c0,0.1-0.1,0.1-0.1,0.1c0,0,0,0-0.1,0c0,0,0,0-0.1,0c-0.1,0-0.1-0.2,0-0.3l0.5-1l-1.9,1.1
		c-0.1,0.1-0.2,0-0.2-0.1c0-0.1,0-0.1,0-0.2c0-0.1,0.1-0.1,0.1-0.1l1.9-1.1l-0.6-0.4c-0.1,0-0.1-0.2,0-0.3
		C64.5,104.8,64.5,104.8,64.6,104.7z"/>
	<path class="st0" d="M68,102.7c0.2-0.1,0.4-0.2,0.6-0.1c0-0.1,0-0.1,0.1-0.2c0,0,0.1-0.1,0.1-0.1c0.1,0,0.2,0,0.2,0.1v0.4
		c0,0.1,0,0.1-0.1,0.2c0,0.1-0.1,0.1-0.1,0.1l-0.4,0.2c-0.1,0.1-0.2,0-0.2-0.1c0-0.1,0-0.1,0-0.2c0,0,0.1-0.1,0.1-0.1
		c-0.1,0-0.2,0-0.3,0.1c-0.2,0.1-0.4,0.3-0.5,0.5c-0.1,0.2-0.2,0.5-0.2,0.7c0,0.5,0.3,0.6,0.7,0.4c0.3-0.2,0.5-0.5,0.6-0.8
		c0-0.1,0.1-0.1,0.2-0.2c0,0,0.1,0,0.1,0c0.1,0,0.1,0.1,0.1,0.2c-0.2,0.5-0.5,0.9-0.9,1.2c-0.6,0.3-1.1,0.1-1.1-0.6
		c0-0.4,0.1-0.7,0.3-1.1C67.5,103.2,67.7,102.9,68,102.7z"/>
	<g class="st11">
		<path class="st10" d="M59.8,107.5C59.9,107.4,59.9,107.4,59.8,107.5c0.1,0,0.1,0,0.1,0c0.1,0,0.1,0.2,0,0.3l-0.6,1l1.9-1.1
			c0.1-0.1,0.2,0,0.2,0.1c0,0.1,0,0.1,0,0.2c0,0.1-0.1,0.1-0.1,0.1l-1.9,1.1l0.6,0.4c0.1,0,0.1,0.2,0,0.3c0,0-0.1,0.1-0.1,0.1
			c0,0,0,0-0.1,0c0,0,0,0-0.1,0l-0.8-0.6c0,0,0,0,0,0c0,0,0,0,0-0.1c0,0,0,0,0-0.1l0-0.1l0.8-1.5C59.7,107.5,59.8,107.5,59.8,107.5z
			"/>
		<path class="st10" d="M64.6,104.7C64.6,104.7,64.6,104.7,64.6,104.7c0.1,0,0.1,0,0.1,0l0.8,0.6c0,0,0,0,0,0c0,0,0,0,0,0.1
			c0,0,0,0,0,0.1l0,0.1l-0.8,1.5c0,0.1-0.1,0.1-0.1,0.1c0,0,0,0-0.1,0c0,0,0,0-0.1,0c-0.1,0-0.1-0.2,0-0.3l0.5-1l-1.9,1.1
			c-0.1,0.1-0.2,0-0.2-0.1c0-0.1,0-0.1,0-0.2c0-0.1,0.1-0.1,0.1-0.1l1.9-1.1l-0.6-0.4c-0.1,0-0.1-0.2,0-0.3
			C64.5,104.8,64.5,104.8,64.6,104.7z"/>
		<path class="st10" d="M68,102.7c0.2-0.1,0.4-0.2,0.6-0.1c0-0.1,0-0.1,0.1-0.2c0,0,0.1-0.1,0.1-0.1c0.1,0,0.2,0,0.2,0.1v0.4
			c0,0.1,0,0.1-0.1,0.2c0,0.1-0.1,0.1-0.1,0.1l-0.4,0.2c-0.1,0.1-0.2,0-0.2-0.1c0-0.1,0-0.1,0-0.2c0,0,0.1-0.1,0.1-0.1
			c-0.1,0-0.2,0-0.3,0.1c-0.2,0.1-0.4,0.3-0.5,0.5c-0.1,0.2-0.2,0.5-0.2,0.7c0,0.5,0.3,0.6,0.7,0.4c0.3-0.2,0.5-0.5,0.6-0.8
			c0-0.1,0.1-0.1,0.2-0.2c0,0,0.1,0,0.1,0c0.1,0,0.1,0.1,0.1,0.2c-0.2,0.5-0.5,0.9-0.9,1.2c-0.6,0.3-1.1,0.1-1.1-0.6
			c0-0.4,0.1-0.7,0.3-1.1C67.5,103.2,67.7,102.9,68,102.7z"/>
	</g>
	<g class="st12">
		<path class="st10" d="M61.4,154c-0.3,0-0.6-0.1-0.8-0.2c-0.3-0.2-0.6-0.5-0.7-0.9c-0.2-0.3-0.2-0.7-0.2-1.1l-0.1-32
			c0.1-1,0.3-1.9,0.8-2.8c0.5-0.9,1.2-1.6,2-2.1l38.4-22.2c0.3-0.2,0.7-0.4,1.1-0.4c0.4,0,0.8,0.1,1.1,0.2c0.3,0.2,0.6,0.5,0.8,0.8
			c0.2,0.4,0.2,0.7,0.2,1.1l0.1,32c-0.1,1-0.3,1.9-0.8,2.8c-0.5,0.9-1.2,1.6-2,2.1l-38.4,22.2C62.3,153.8,61.9,153.9,61.4,154z
			 M102.1,92.8c-0.4,0-0.8,0.1-1.1,0.3l-38.4,22.2c-0.8,0.5-1.4,1.1-1.8,1.9c-0.4,0.8-0.7,1.7-0.8,2.5l0.1,32c0,0.3,0,0.6,0.1,0.9
			c0.1,0.3,0.3,0.5,0.5,0.7c0.3,0.1,0.6,0.2,0.9,0.1c0.3,0,0.6-0.1,0.8-0.3l38.4-22.2c0.8-0.5,1.4-1.1,1.8-1.9
			c0.4-0.8,0.7-1.6,0.8-2.5l-0.1-32c0-0.3,0-0.6-0.1-0.9c-0.1-0.3-0.3-0.5-0.5-0.7C102.5,92.8,102.3,92.8,102.1,92.8z"/>
	</g>
	<path class="st10" d="M135.5,132.1c-0.1,0-0.2,0-0.4-0.1c-0.1-0.1-0.2-0.2-0.3-0.3c-0.1-0.1-0.1-0.3-0.1-0.4l-0.2-54.6
		c0-0.3,0.1-0.7,0.3-1s0.4-0.6,0.7-0.7l21.6-12.5c0.1-0.1,0.3-0.2,0.4-0.2s0.3,0,0.4,0.1c0.1,0.1,0.2,0.2,0.3,0.3
		c0.1,0.1,0.1,0.3,0.1,0.5l0.2,54.6c0,0.3-0.1,0.7-0.3,1s-0.4,0.6-0.7,0.7L136,132C135.9,132.1,135.7,132.1,135.5,132.1z
		 M157.3,62.7l0.1,0.2l-21.6,12.5c-0.2,0.1-0.4,0.3-0.5,0.6c-0.1,0.2-0.2,0.5-0.2,0.7l0.2,54.6c0,0.1,0,0.1,0,0.2
		c0,0.1,0.1,0.1,0.1,0.2c0.1,0,0.1,0,0.2,0s0.1,0,0.2-0.1l21.6-12.5c0.2-0.1,0.4-0.3,0.5-0.6c0.1-0.2,0.2-0.5,0.2-0.7l-0.2-54.6
		c0-0.2,0-0.3-0.1-0.3c-0.1,0-0.1,0-0.2,0c-0.1,0-0.1,0-0.2,0.1L157.3,62.7z"/>
	<path class="st0" d="M81.4,145.7c0.8-0.5,1.4-0.1,1.5,0.8l0,17c0,0.5-0.2,1-0.4,1.4c-0.3,0.4-0.6,0.8-1,1.1L61,177.9
		c-0.8,0.5-1.4,0.1-1.5-0.8l0-17c0-0.5,0.2-1,0.4-1.4c0.3-0.4,0.6-0.8,1-1.1L81.4,145.7z"/>
	<g class="st13">
		<path class="st10" d="M81.4,145.7c0.8-0.5,1.4-0.1,1.5,0.8l0,17c0,0.5-0.2,1-0.4,1.4c-0.3,0.4-0.6,0.8-1,1.1L61,177.9
			c-0.8,0.5-1.4,0.1-1.5-0.8l0-17c0-0.5,0.2-1,0.4-1.4c0.3-0.4,0.6-0.8,1-1.1L81.4,145.7z"/>
	</g>
	<path class="st10" d="M81.6,146.8C81.6,146.8,81.6,146.8,81.6,146.8c0.1,0,0.1,0,0.1,0c0,0,0,0.2,0,0.2l-10.2,14.6l10.2,2.8
		c0.1,0,0.1,0.1,0,0.2c0,0.1-0.1,0.1-0.1,0.1c0,0-0.1,0-0.1,0L71.2,162L61,176.7c0,0-0.1,0.1-0.1,0.1c0,0,0,0-0.1,0s0,0-0.1,0
		c0,0,0-0.1,0-0.1c0,0,0-0.1,0.1-0.1L71,162l-10.2-2.8c-0.1,0-0.1-0.1,0-0.2c0-0.1,0.1-0.1,0.1-0.1c0,0,0.1,0,0.1,0l10.3,2.8
		L81.5,147C81.5,146.9,81.5,146.9,81.6,146.8z"/>
	<path class="st0" d="M106.5,131.6c0.8-0.5,1.5-0.1,1.5,0.8l0,17c0,0.5-0.2,1-0.4,1.4c-0.3,0.4-0.6,0.8-1,1.1l-20.4,11.8
		c-0.8,0.5-1.5,0.1-1.5-0.8l-0.1-17c0-0.5,0.2-1,0.4-1.4c0.3-0.4,0.6-0.8,1-1.1L106.5,131.6z"/>
	<g class="st13">
		<path class="st10" d="M106.5,131.6c0.8-0.5,1.5-0.1,1.5,0.8l0,17c0,0.5-0.2,1-0.4,1.4c-0.3,0.4-0.6,0.8-1,1.1l-20.4,11.8
			c-0.8,0.5-1.5,0.1-1.5-0.8l-0.1-17c0-0.5,0.2-1,0.4-1.4c0.3-0.4,0.6-0.8,1-1.1L106.5,131.6z"/>
	</g>
	<path class="st10" d="M106.7,132.7c0,0,0.1,0,0.1,0c0,0,0,0.1,0,0.1c0,0,0,0.1-0.1,0.1l-10.2,14.6l10.2,2.8c0.1,0,0.1,0.1,0,0.2
		c0,0.1-0.1,0.1-0.1,0.1c0,0-0.1,0-0.1,0l-10.3-2.8l-10.3,14.7c0,0-0.1,0.1-0.1,0.1c0,0,0,0-0.1,0c0,0,0,0-0.1,0c0,0,0-0.2,0-0.3
		l10.2-14.6L85.8,145c-0.1,0-0.1-0.1,0-0.2c0-0.1,0.1-0.1,0.1-0.1c0,0,0.1,0,0.1,0l10.3,2.8L106.7,132.7
		C106.6,132.8,106.6,132.7,106.7,132.7z"/>
	<path class="st0" d="M131.3,117.3c0.8-0.5,1.4-0.1,1.4,0.8l0.1,17c0,0.5-0.2,1-0.4,1.4c-0.3,0.4-0.6,0.8-1,1.1l-20.4,11.8
		c-0.8,0.5-1.4,0.1-1.5-0.8l0-17c0-0.5,0.2-1,0.4-1.4c0.2-0.4,0.6-0.8,1-1.1L131.3,117.3z"/>
	<g class="st13">
		<path class="st10" d="M131.3,117.3c0.8-0.5,1.4-0.1,1.4,0.8l0.1,17c0,0.5-0.2,1-0.4,1.4c-0.3,0.4-0.6,0.8-1,1.1l-20.4,11.8
			c-0.8,0.5-1.4,0.1-1.5-0.8l0-17c0-0.5,0.2-1,0.4-1.4c0.2-0.4,0.6-0.8,1-1.1L131.3,117.3z"/>
	</g>
	<path class="st10" d="M131.4,118.4C131.4,118.4,131.5,118.4,131.4,118.4c0.1,0,0.1,0,0.1,0c0,0,0,0.2,0,0.2l-10.2,14.6l10.3,2.8
		c0.1,0,0.1,0.1,0,0.2c0,0.1-0.1,0.1-0.1,0.1c0,0-0.1,0-0.1,0l-10.4-2.8l-10.2,14.7c0,0-0.1,0.1-0.1,0.1c0,0,0,0-0.1,0
		c0,0,0,0-0.1,0c0,0,0-0.2,0-0.3l10.2-14.6l-10.2-2.8c-0.1,0-0.1-0.1,0-0.2c0-0.1,0.1-0.1,0.1-0.1c0,0,0.1,0,0.1,0l10.3,2.8
		l10.3-14.7C131.4,118.5,131.4,118.5,131.4,118.4z"/>
	<path class="st0" d="M129.3,79.4c1.3-0.8,2.4-0.2,2.4,1.4c0,0.8-0.3,1.6-0.7,2.4c-0.4,0.7-1,1.3-1.7,1.8l-20.1,11.6
		c-1.3,0.8-2.4,0.2-2.4-1.4c0-0.8,0.3-1.6,0.7-2.4c0.4-0.7,1-1.3,1.7-1.8L129.3,79.4z"/>
	<g class="st13">
		<path class="st10" d="M129.3,79.4c1.3-0.8,2.4-0.2,2.4,1.4c0,0.8-0.3,1.6-0.7,2.4c-0.4,0.7-1,1.3-1.7,1.8l-20.1,11.6
			c-1.3,0.8-2.4,0.2-2.4-1.4c0-0.8,0.3-1.6,0.7-2.4c0.4-0.7,1-1.3,1.7-1.8L129.3,79.4z"/>
	</g>
	<path class="st0" d="M129.3,87.2c1.3-0.8,2.4-0.2,2.4,1.4c0,0.8-0.3,1.6-0.7,2.4c-0.4,0.7-1,1.3-1.7,1.8l-20.1,11.6
		c-1.3,0.8-2.4,0.2-2.4-1.4c0-0.8,0.3-1.6,0.7-2.4s1-1.3,1.7-1.8L129.3,87.2z"/>
	<g class="st13">
		<path class="st10" d="M129.3,87.2c1.3-0.8,2.4-0.2,2.4,1.4c0,0.8-0.3,1.6-0.7,2.4c-0.4,0.7-1,1.3-1.7,1.8l-20.1,11.6
			c-1.3,0.8-2.4,0.2-2.4-1.4c0-0.8,0.3-1.6,0.7-2.4s1-1.3,1.7-1.8L129.3,87.2z"/>
	</g>
	<path class="st0" d="M129.3,95c1.3-0.8,2.4-0.1,2.4,1.4c0,0.8-0.3,1.6-0.7,2.4c-0.4,0.7-1,1.3-1.7,1.8l-20.1,11.6
		c-1.3,0.8-2.4,0.2-2.4-1.4c0-0.8,0.3-1.6,0.7-2.4s1-1.3,1.7-1.8L129.3,95z"/>
	<g class="st13">
		<path class="st10" d="M129.3,95c1.3-0.8,2.4-0.1,2.4,1.4c0,0.8-0.3,1.6-0.7,2.4c-0.4,0.7-1,1.3-1.7,1.8l-20.1,11.6
			c-1.3,0.8-2.4,0.2-2.4-1.4c0-0.8,0.3-1.6,0.7-2.4s1-1.3,1.7-1.8L129.3,95z"/>
	</g>
	<path class="st0" d="M164.7,38.6c0-1.2-0.4-2-1.1-2.4c-0.7-0.4-1.6-0.3-2.6,0.3L58.7,95.4c-1.1,0.7-2,1.6-2.6,2.7
		c-0.6,1.1-1,2.3-1.1,3.6v4.8l109.7-63.3V38.6z"/>
	<path class="st3" d="M164.7,38.6c0-1.2-0.4-2-1.1-2.4c-0.7-0.4-1.6-0.3-2.6,0.3L58.7,95.4c-1.1,0.7-2,1.6-2.6,2.7
		c-0.6,1.1-1,2.3-1.1,3.6v4.8l109.7-63.3V38.6z"/>
	<g class="st12">
		<path class="st10" d="M59.9,98.8c0.6-0.3,1-0.1,1,0.6c0,0.3-0.1,0.7-0.3,1c-0.2,0.3-0.4,0.6-0.7,0.7c-0.6,0.3-1,0.1-1-0.6
			c0-0.3,0.1-0.7,0.3-1C59.3,99.2,59.6,99,59.9,98.8z"/>
		<path class="st10" d="M62.6,97.2c0.6-0.3,1-0.1,1,0.6c0,0.3-0.1,0.7-0.3,1c-0.2,0.3-0.4,0.6-0.7,0.7c-0.6,0.3-1,0.1-1-0.6
			c0-0.3,0.1-0.7,0.3-1C62.1,97.6,62.3,97.4,62.6,97.2z"/>
		<path class="st10" d="M65.3,95.6c0.6-0.3,1-0.1,1,0.6c0,0.3-0.1,0.7-0.3,1c-0.2,0.3-0.4,0.6-0.7,0.7c-0.6,0.3-1,0.1-1-0.6
			c0-0.3,0.1-0.7,0.3-1C64.8,96,65.1,95.8,65.3,95.6z"/>
	</g>
	<path class="st0" d="M59.9,98.8c0.6-0.3,1-0.1,1,0.6c0,0.3-0.1,0.7-0.3,1c-0.2,0.3-0.4,0.6-0.7,0.7c-0.6,0.3-1,0.1-1-0.6
		c0-0.3,0.1-0.7,0.3-1C59.3,99.2,59.6,99,59.9,98.8z"/>
	<path class="st0" d="M62.6,97.2c0.6-0.3,1-0.1,1,0.6c0,0.3-0.1,0.7-0.3,1c-0.2,0.3-0.4,0.6-0.7,0.7c-0.6,0.3-1,0.1-1-0.6
		c0-0.3,0.1-0.7,0.3-1C62.1,97.6,62.3,97.4,62.6,97.2z"/>
	<path class="st0" d="M65.3,95.6c0.6-0.3,1-0.1,1,0.6c0,0.3-0.1,0.7-0.3,1c-0.2,0.3-0.4,0.6-0.7,0.7c-0.6,0.3-1,0.1-1-0.6
		c0-0.3,0.1-0.7,0.3-1C64.8,96,65.1,95.8,65.3,95.6z"/>
	<path class="st14" d="M175.3,77.8l0,4.9l0.9,7.7l1.3,7.5l4.4,0.5l-1.8-8l-3.4-13.2L175.3,77.8z"/>
	<path class="st0" d="M177.1,96.9c3-1.1,5,0.5,5,0.5l0.5,12.8l-5.4-3.1L177.1,96.9z"/>
	<path class="st0" d="M177.1,96.9c3-1.1,5,0.5,5,0.5l0.5,12.8l-5.4-3.1L177.1,96.9z"/>
	<path class="st3" d="M177.1,96.9c3-1.1,5,0.5,5,0.5l0.5,12.8l-5.4-3.1L177.1,96.9z"/>
	<path class="st4" d="M177.1,96.9c3-1.1,5,0.5,5,0.5l0.5,12.8l-5.4-3.1L177.1,96.9z"/>
	<path class="st0" d="M174.4,60.2c0.5-0.3,0.9-0.1,0.9,0.5l0.2,55.9c0,0.3-0.1,0.6-0.3,0.9c-0.2,0.3-0.4,0.5-0.6,0.7l-22.1,12.8
		c-0.5,0.3-0.9,0.1-0.9-0.5l-0.2-55.9c0-0.3,0.1-0.6,0.3-0.9c0.2-0.3,0.4-0.5,0.6-0.7L174.4,60.2z"/>
	<g class="st13">
		<path d="M174.4,60.2c0.5-0.3,0.9-0.1,0.9,0.5l0.2,55.9c0,0.3-0.1,0.6-0.3,0.9c-0.2,0.3-0.4,0.5-0.6,0.7l-22.1,12.8
			c-0.5,0.3-0.9,0.1-0.9-0.5l-0.2-55.9c0-0.3,0.1-0.6,0.3-0.9c0.2-0.3,0.4-0.5,0.6-0.7L174.4,60.2z"/>
	</g>
	<g class="st15">
		<path class="st10" d="M174.4,60.2c0.5-0.3,0.9-0.1,0.9,0.5l0.2,55.9c0,0.3-0.1,0.6-0.3,0.9c-0.2,0.3-0.4,0.5-0.6,0.7l-22.1,12.8
			c-0.5,0.3-0.9,0.1-0.9-0.5l-0.2-55.9c0-0.3,0.1-0.6,0.3-0.9c0.2-0.3,0.4-0.5,0.6-0.7L174.4,60.2z"/>
	</g>
	<path class="st10" d="M174.1,62.1c0.2,0,0.3,0.1,0.2,0.2l-10.6,33l10.8,20.7c0,0.1,0,0.1,0,0.2c0,0.1-0.1,0.1-0.1,0.2
		c-0.2,0.1-0.3,0.1-0.3,0l-10.6-20.4L153,128.7c0,0.1-0.1,0.2-0.2,0.3c-0.2,0-0.3-0.1-0.2-0.2l10.6-33L152.4,75c0-0.1,0-0.1,0-0.2
		c0-0.1,0.1-0.1,0.1-0.2c0.2-0.1,0.3-0.1,0.3,0l10.6,20.4l10.5-32.5C173.9,62.3,174,62.2,174.1,62.1z"/>
	<path class="st14" d="M161.3,104.1l-4.7-1.6l-3.1-11.8c-0.1-0.4,0-0.7,0.1-1.1l0.3-0.8c0.2-0.4,0.3-0.9,0.2-1.4l-0.1-1.8
		c0-0.1-0.1-0.3-0.2-0.4c-0.1-0.1-0.2-0.2-0.4-0.2c-0.1,0-0.3,0-0.3,0.1s-0.2,0.2-0.2,0.3l-0.3,1.6l-0.7,0.8l-0.6-2.1v-2.7l-1.3,2
		c-0.4,0.5-0.5,1.2-0.4,1.8l0.6,3.4l1.5,13.2c0.1,1,0.5,1.9,1.1,2.6c0.6,0.8,1.4,1.3,2.3,1.7l5,1.9L161.3,104.1z"/>
	<path class="st6" d="M171.5,175.8c-0.2,0.4-0.4,0.7-0.8,1c-0.4,0.2-0.8,0.4-1.2,0.4c-0.8,0-1.7-0.1-2.5-0.3c-1.9-0.3-3.7,0-5.5,0
		c-0.6,0-1.2-0.1-1.8-0.2c-0.6-0.1-1.2-0.5-1.6-0.9c-0.2-0.3-0.4-0.6-0.4-1c0,0.3,0,0.5,0.1,0.8c0.1,0.3,0.2,0.5,0.4,0.7
		c0.4,0.5,1,0.8,1.6,0.9c0.6,0.1,1.2,0.2,1.8,0.2c1.9,0,3.7-0.3,5.5,0c0.8,0.2,1.7,0.3,2.5,0.3c0.4,0,0.8-0.1,1.2-0.4
		c0.4-0.2,0.6-0.6,0.8-1c0.1-0.3,0.1-0.6,0.1-0.9C171.6,175.6,171.5,175.7,171.5,175.8z"/>
	<path class="st16" d="M171.5,174.3l-0.3-1.7c0-0.3-0.1-0.6-0.3-0.9c-0.1-0.1-0.2-0.2-0.3-0.3c-0.1-0.1-0.3-0.1-0.4-0.1
		c-1-0.1-2.5-0.5-3.3,0.1c-1.3,0.9-3,1.4-4.6,1.3c-0.8-0.1-1.7-0.1-2.5-0.1c-0.4,0-0.8,0.2-1.2,0.4c-0.3,0.2-0.6,0.6-0.8,1
		c-0.1,0.2-0.1,0.5,0,0.7c0.1,0.4,0.2,0.7,0.4,1c0.4,0.5,1,0.8,1.6,0.9c0.6,0.1,1.2,0.2,1.8,0.2c1.9,0,3.7-0.3,5.5,0
		c0.8,0.2,1.7,0.3,2.5,0.3c0.4,0,0.8-0.1,1.2-0.4c0.4-0.2,0.6-0.6,0.8-1c0-0.1,0.1-0.2,0.1-0.3C171.6,175.1,171.6,174.7,171.5,174.3
		z"/>
	<path class="st14" d="M166.5,169.6l-0.1,2.2c0,0.2,0.1,0.4,0.2,0.6c0.2,0.2,0.4,0.3,0.6,0.3c0.7,0.1,1.5,0.1,2.2,0
		c0.3,0,0.6-0.2,0.8-0.4c0.2-0.2,0.3-0.5,0.4-0.8l0.1-1.6L166.5,169.6z"/>
	<path class="st6" d="M180.9,168.4c0,0.3-0.1,0.6-0.3,0.9c-0.3,0.3-0.6,0.5-1.1,0.6c-0.5,0.1-1,0-1.4-0.2c-0.5-0.2-0.9-0.5-1.1-0.9
		c-0.3-0.4-0.4-0.9-0.7-1.3c-0.4-0.6-0.9-1-1.5-1.4c-0.6-0.4-1.1-0.9-1.5-1.4c-0.2-0.3-0.3-0.6-0.4-0.9c0-0.3,0-0.7,0.1-1
		c-0.1,0.1-0.1,0.2-0.1,0.2c-0.1,0.3-0.2,0.7-0.1,1c0,0.3,0.2,0.7,0.4,1c0.4,0.6,0.9,1.1,1.5,1.4c0.6,0.4,1.1,0.9,1.5,1.5
		c0.3,0.4,0.4,0.9,0.7,1.3c0.3,0.4,0.7,0.7,1.2,0.9c0.5,0.2,1,0.3,1.5,0.2c0.4-0.1,0.8-0.3,1.1-0.6c0.2-0.4,0.3-0.8,0.3-1.3
		C180.9,168.5,180.9,168.5,180.9,168.4z"/>
	<path class="st16" d="M180.3,165.6c-0.7-1.2-2.1-2-3.1-2.9c-0.6-0.5-1.3-0.8-2.1-0.9c-0.4,0-0.8,0-1.1,0.2
		c-0.3,0.2-0.6,0.5-0.8,0.8c0,0,0,0,0,0.1c-0.1,0.3-0.1,0.6-0.1,1c0,0.3,0.2,0.6,0.4,0.9c0.4,0.5,0.9,1,1.5,1.4
		c0.6,0.4,1.1,0.9,1.5,1.4c0.3,0.4,0.4,0.9,0.7,1.3c0.3,0.4,0.7,0.7,1.1,0.9c0.5,0.2,1,0.2,1.4,0.2c0.4-0.1,0.8-0.3,1.1-0.6
		c0.2-0.3,0.3-0.6,0.3-0.9c0-0.1,0-0.2,0-0.3C181,167.2,180.7,166.4,180.3,165.6z"/>
	<path class="st14" d="M177.3,164.6v2c0.5,0.2,1,0.3,1.6,0.3c0.6,0,1.1-0.2,1.6-0.5l0.2-1.8L177.3,164.6z"/>
	<path class="st6" d="M181.2,128.1c0.6,1.8-0.1,10.4-0.5,18.7c1.3,3.1,1,12,0.2,18.3c0,0-1.3,0.8-3.7,0l-3-17.4l-0.4-9.8
		c0,0-0.7,8.7-1.6,14.3c0.8,4.3,0.6,5.1-1.4,18.2c-0.7,0.3-1.5,0.5-2.2,0.5c-0.8,0-1.5-0.2-2.2-0.5c-1.1-18.5-0.7-35.3-0.5-41.3
		L181.2,128.1z"/>
	<path class="st3" d="M174.1,143.8l-0.3-8c2.1,0,4-1.5,5.4-3c-1,1.6-2.4,2.8-4.1,3.6L174.1,143.8z"/>
	<path class="st0" d="M165.6,129.5c9.2,3.9,15.2,0.4,16-1.4c-0.4-6.4,1.1-13.8,1-17c-0.1-3.2-0.5-6.7-5.4-6l-5.2,0.5l-2.6,0.6
		l-3.2,6.6L165.6,129.5z"/>
	<path class="st5" d="M165.6,129.5c9.2,3.9,15.2,0.4,16-1.4c-0.4-6.4,1.1-13.8,1-17c-0.1-3.2-0.5-6.7-5.4-6l-5.2,0.5l-2.6,0.6
		l-3.2,6.6L165.6,129.5z"/>
	<path class="st4" d="M165.6,129.5c9.2,3.9,15.2,0.4,16-1.4c-0.4-6.4,1.1-13.8,1-17c-0.1-3.2-0.5-6.7-5.4-6l-5.2,0.5l-2.6,0.6
		l-3.2,6.6L165.6,129.5z"/>
	<path class="st6" d="M177.2,102.5c0.2,0,0.4,0,0.5-0.1c0.2-0.1,0.3-0.2,0.5-0.3c0.1-0.1,0.2-0.3,0.2-0.4c0-0.2,0-0.3,0-0.5
		c0.2,0,0.3-0.1,0.4-0.2c0.1-0.1,0.2-0.2,0.3-0.4c0-0.2,0.1-0.3,0-0.5c0-0.2-0.1-0.3-0.2-0.5c0.2-0.1,0.4-0.2,0.6-0.3
		c0.2-0.1,0.3-0.3,0.4-0.5c0.1-0.2,0.2-0.4,0.2-0.7c0-0.2,0-0.5-0.1-0.7c0.2-0.1,0.5-0.2,0.7-0.4c0.2-0.2,0.3-0.4,0.4-0.6
		c0.1-0.3,0.1-0.5,0-0.8c-0.1-0.3-0.2-0.5-0.3-0.7c0.2-0.3,0.3-0.6,0.4-1c0-0.4,0-0.7-0.2-1c-0.2-0.3-0.4-0.6-0.7-0.8
		c-0.3-0.2-0.6-0.3-1-0.4c0-0.3,0-0.7-0.1-1c-0.1-0.3-0.3-0.6-0.6-0.8c-0.3-0.2-0.6-0.4-0.9-0.4s-0.7,0-1,0.1
		c-0.1-0.3-0.3-0.5-0.5-0.7c-0.2-0.2-0.5-0.3-0.8-0.4c-0.3-0.1-0.6,0-0.9,0.1c-0.3,0.1-0.6,0.3-0.8,0.5c-0.2-0.2-0.3-0.3-0.6-0.4
		c-0.2-0.1-0.4-0.1-0.7-0.1c-0.2,0-0.5,0.1-0.6,0.2c-0.2,0.1-0.4,0.3-0.5,0.5c-0.3-0.1-0.6-0.2-0.9-0.2c-0.3,0-0.6,0.1-0.9,0.3
		c-0.3,0.2-0.5,0.4-0.6,0.7c-0.1,0.3-0.2,0.6-0.2,0.9c-0.2,0.1-0.4,0.2-0.6,0.4c-0.1,0.2-0.2,0.4-0.2,0.7c0,0.2,0.1,0.5,0.3,0.7
		s0.4,0.3,0.6,0.4c0.5,2.5,1.3,4.9,2.5,7.2c0.5,1,1.2,2,2.2,2.6C174.5,103.6,176.2,103.3,177.2,102.5z"/>
	<path class="st0" d="M177.2,102.5c0.2,0,0.4,0,0.5-0.1c0.2-0.1,0.3-0.2,0.5-0.3c0.1-0.1,0.2-0.3,0.2-0.4c0-0.2,0-0.3,0-0.5
		c0.2,0,0.3-0.1,0.4-0.2c0.1-0.1,0.2-0.2,0.3-0.4c0-0.2,0.1-0.3,0-0.5c0-0.2-0.1-0.3-0.2-0.5c0.2-0.1,0.4-0.2,0.6-0.3
		c0.2-0.1,0.3-0.3,0.4-0.5c0.1-0.2,0.2-0.4,0.2-0.7c0-0.2,0-0.5-0.1-0.7c0.2-0.1,0.5-0.2,0.7-0.4c0.2-0.2,0.3-0.4,0.4-0.6
		c0.1-0.3,0.1-0.5,0-0.8c-0.1-0.3-0.2-0.5-0.3-0.7c0.2-0.3,0.3-0.6,0.4-1c0-0.4,0-0.7-0.2-1c-0.2-0.3-0.4-0.6-0.7-0.8
		c-0.3-0.2-0.6-0.3-1-0.4c0-0.3,0-0.7-0.1-1c-0.1-0.3-0.3-0.6-0.6-0.8c-0.3-0.2-0.6-0.4-0.9-0.4s-0.7,0-1,0.1
		c-0.1-0.3-0.3-0.5-0.5-0.7c-0.2-0.2-0.5-0.3-0.8-0.4c-0.3-0.1-0.6,0-0.9,0.1c-0.3,0.1-0.6,0.3-0.8,0.5c-0.2-0.2-0.3-0.3-0.6-0.4
		c-0.2-0.1-0.4-0.1-0.7-0.1c-0.2,0-0.5,0.1-0.6,0.2c-0.2,0.1-0.4,0.3-0.5,0.5c-0.3-0.1-0.6-0.2-0.9-0.2c-0.3,0-0.6,0.1-0.9,0.3
		c-0.3,0.2-0.5,0.4-0.6,0.7c-0.1,0.3-0.2,0.6-0.2,0.9c-0.2,0.1-0.4,0.2-0.6,0.4c-0.1,0.2-0.2,0.4-0.2,0.7c0,0.2,0.1,0.5,0.3,0.7
		s0.4,0.3,0.6,0.4c0.5,2.5,1.3,4.9,2.5,7.2c0.5,1,1.2,2,2.2,2.6C174.5,103.6,176.2,103.3,177.2,102.5z"/>
	<path class="st17" d="M177.2,102.5c0.2,0,0.4,0,0.5-0.1c0.2-0.1,0.3-0.2,0.5-0.3c0.1-0.1,0.2-0.3,0.2-0.4c0-0.2,0-0.3,0-0.5
		c0.2,0,0.3-0.1,0.4-0.2c0.1-0.1,0.2-0.2,0.3-0.4c0-0.2,0.1-0.3,0-0.5c0-0.2-0.1-0.3-0.2-0.5c0.2-0.1,0.4-0.2,0.6-0.3
		c0.2-0.1,0.3-0.3,0.4-0.5c0.1-0.2,0.2-0.4,0.2-0.7c0-0.2,0-0.5-0.1-0.7c0.2-0.1,0.5-0.2,0.7-0.4c0.2-0.2,0.3-0.4,0.4-0.6
		c0.1-0.3,0.1-0.5,0-0.8c-0.1-0.3-0.2-0.5-0.3-0.7c0.2-0.3,0.3-0.6,0.4-1c0-0.4,0-0.7-0.2-1c-0.2-0.3-0.4-0.6-0.7-0.8
		c-0.3-0.2-0.6-0.3-1-0.4c0-0.3,0-0.7-0.1-1c-0.1-0.3-0.3-0.6-0.6-0.8c-0.3-0.2-0.6-0.4-0.9-0.4s-0.7,0-1,0.1
		c-0.1-0.3-0.3-0.5-0.5-0.7c-0.2-0.2-0.5-0.3-0.8-0.4c-0.3-0.1-0.6,0-0.9,0.1c-0.3,0.1-0.6,0.3-0.8,0.5c-0.2-0.2-0.3-0.3-0.6-0.4
		c-0.2-0.1-0.4-0.1-0.7-0.1c-0.2,0-0.5,0.1-0.6,0.2c-0.2,0.1-0.4,0.3-0.5,0.5c-0.3-0.1-0.6-0.2-0.9-0.2c-0.3,0-0.6,0.1-0.9,0.3
		c-0.3,0.2-0.5,0.4-0.6,0.7c-0.1,0.3-0.2,0.6-0.2,0.9c-0.2,0.1-0.4,0.2-0.6,0.4c-0.1,0.2-0.2,0.4-0.2,0.7c0,0.2,0.1,0.5,0.3,0.7
		s0.4,0.3,0.6,0.4c0.5,2.5,1.3,4.9,2.5,7.2c0.5,1,1.2,2,2.2,2.6C174.5,103.6,176.2,103.3,177.2,102.5z"/>
	<path class="st18" d="M168.5,96.6l-1.1,1.9l1.2,0.4L168.5,96.6z"/>
	<path class="st14" d="M168.9,93.4c-0.7,2.6-0.8,5.3-0.3,8c0.1,0.5,0.2,0.9,0.5,1.3c0.4,0.4,0.9,0.6,1.4,0.6c0.5,0,1,0,1.5-0.1v2.4
		c1.9,0.4,3.8,0.6,5.2-0.5v-2.5c-1,0.3-2.2,0.4-3.2,0.2c-1.3-0.7-1.5-3-1.4-3.7c0.1,0.2,0.3,0.3,0.4,0.3c0.2,0.1,0.4,0.1,0.6,0
		c0.2,0,0.3-0.1,0.5-0.2s0.3-0.3,0.3-0.4c0.2-0.3,0.3-0.7,0.3-1.1c0.1-0.4,0-0.9-0.2-1.3c-0.2-0.2-0.4-0.4-0.6-0.5
		c-0.3-0.1-0.5-0.1-0.8,0c-0.5,0.2-1,0.5-1.2,1c-0.1,0.2-0.2,0.3-0.2,0.5c0,0.1-0.1,0.1-0.1,0.2c-0.1,0-0.1,0.1-0.2,0
		c-0.1,0-0.1,0-0.2-0.1c0,0-0.1-0.1-0.1-0.2c-0.1-0.7,0.1-1.4,0.4-2.1c-0.2,0-0.4-0.1-0.6-0.2c-0.2-0.1-0.3-0.3-0.5-0.4
		c-0.1-0.2-0.2-0.4-0.2-0.6c0-0.2,0-0.4,0-0.6C169.7,93.5,169.3,93.5,168.9,93.4z"/>
	<path class="st14" d="M175.3,77.8l-0.9-2l-0.4-1.9c0-0.1,0-0.2,0.1-0.4c0.1-0.1,0.2-0.2,0.3-0.2c0.1,0,0.3,0,0.4,0
		c0.1,0.1,0.2,0.2,0.3,0.3l0.4,1.1v-3l1.2,2.2c0.2,0.3,0.3,0.7,0.2,1.1l-0.2,2.2L175.3,77.8z"/>
	<path class="st0" d="M169.3,106.2c-2.9-1-8.2-2.6-8.2-2.6c-2.3,2.4-2.1,6.2-2.1,6.2l7.1,3C172.9,115,173.9,107.7,169.3,106.2z"/>
	<path class="st3" d="M169.3,106.2c-2.9-1-8.2-2.6-8.2-2.6c-2.3,2.4-2.1,6.2-2.1,6.2l7.1,3C172.9,115,173.9,107.7,169.3,106.2z"/>
	<path class="st4" d="M169.3,106.2c-2.9-1-8.2-2.6-8.2-2.6c-2.3,2.4-2.1,6.2-2.1,6.2l7.1,3C172.9,115,173.9,107.7,169.3,106.2z"/>
	<path class="st0" d="M109.8,93.5c1.5-0.9,2.8-0.2,2.8,1.6l0.1,32.8c0,1-0.3,1.9-0.8,2.7s-1.2,1.5-2,2.1l-39.3,22.7
		c-1.5,0.9-2.8,0.2-2.8-1.6l-0.1-32.8c0.1-1,0.3-1.9,0.8-2.7c0.5-0.8,1.2-1.5,2-2.1L109.8,93.5z"/>
	<g class="st9">
		<path class="st10" d="M109.8,93.5c1.5-0.9,2.8-0.2,2.8,1.6l0.1,32.8c0,1-0.3,1.9-0.8,2.7s-1.2,1.5-2,2.1l-39.3,22.7
			c-1.5,0.9-2.8,0.2-2.8-1.6l-0.1-32.8c0.1-1,0.3-1.9,0.8-2.7c0.5-0.8,1.2-1.5,2-2.1L109.8,93.5z"/>
	</g>
	<path class="st10" d="M110.1,95.6c0,0,0.1,0,0.1,0s0.1,0,0.1,0c0.1,0.1,0.1,0.3-0.1,0.5l-19.6,28l19.7,5.3c0.1,0,0.1,0.2,0.1,0.4
		c0,0.1-0.1,0.2-0.2,0.3c0,0-0.1,0-0.2,0l-19.8-5.4L70.5,153c0,0.1-0.1,0.1-0.2,0.2c0,0-0.1,0-0.1,0c0,0-0.1,0-0.1,0
		c-0.1-0.1-0.1-0.3,0.1-0.5l19.6-28l-19.7-5.3c-0.1,0-0.1-0.2-0.1-0.4c0-0.1,0.1-0.2,0.2-0.3c0,0,0.1,0,0.1,0c0,0,0.1,0,0.1,0
		l19.8,5.4L110,95.8C110,95.7,110.1,95.7,110.1,95.6z"/>
	<path class="st19" d="M110.7,117l2,4.3l-3.6,10.9l-7.9,5.1l2.8,6.7l8.1-7.9c1-0.9,1.6-2.2,1.8-3.5l1.5-11.4l-1.7-6.5l-1-1l0,4.1
		l-1-1.4c-0.1-0.1-0.2-0.2-0.4-0.2c-0.2,0-0.3,0-0.4,0.1c-0.1,0.1-0.2,0.2-0.3,0.3S110.6,116.8,110.7,117z"/>
	<path class="st16" d="M100.8,136.2l6.5-3.3c3.8,1,3.9,5,3.9,5l-6.7,6.1L100.8,136.2z"/>
	<path class="st20" d="M94,210.1c-0.2,0.4-0.5,0.8-0.8,1c-0.4,0.2-0.8,0.4-1.2,0.4c-0.9,0-1.8-0.1-2.6-0.3c-1.9-0.4-3.8,0-5.8-0.1
		c-0.6,0-1.2,0-1.9-0.2c-0.6-0.1-1.2-0.5-1.6-1c-0.2-0.3-0.4-0.6-0.5-1c0,0.3,0,0.6,0.1,0.8c0.1,0.3,0.2,0.5,0.4,0.7
		c0.4,0.5,1,0.8,1.6,0.9c0.6,0.1,1.3,0.2,1.9,0.2c1.9,0,3.8-0.3,5.8,0c0.9,0.2,1.7,0.3,2.6,0.3c0.4,0,0.9-0.1,1.2-0.4
		c0.4-0.2,0.7-0.6,0.8-1c0.1-0.3,0.1-0.6,0.1-0.9C94,209.8,94,209.9,94,210.1z"/>
	<path class="st0" d="M93.9,208.4c-0.1-0.6-0.2-1.2-0.4-1.8c0-0.3-0.1-0.6-0.3-0.9c-0.1-0.1-0.2-0.3-0.3-0.3
		c-0.1-0.1-0.3-0.1-0.5-0.1c-1.1-0.1-2.6-0.5-3.5,0.1c-1.4,1-3.1,1.4-4.8,1.4c-0.9-0.1-1.8-0.1-2.6-0.1c-0.4,0-0.9,0.2-1.2,0.4
		c-0.4,0.3-0.6,0.6-0.8,1c-0.1,0.2-0.1,0.5,0,0.8c0.1,0.4,0.2,0.7,0.5,1c0.4,0.5,1,0.8,1.6,1c0.6,0.1,1.3,0.2,1.9,0.2
		c1.9,0,3.8-0.3,5.8,0.1c0.9,0.2,1.7,0.3,2.6,0.3c0.4,0,0.9-0.1,1.2-0.4c0.4-0.2,0.7-0.6,0.8-1c0-0.1,0.1-0.2,0.1-0.3
		C94.1,209.3,94,208.9,93.9,208.4z"/>
	<path class="st14" d="M88.7,203.5l-0.1,2.3c0,0.2,0.1,0.5,0.2,0.6c0.2,0.2,0.4,0.3,0.6,0.3c0.8,0.1,1.6,0.1,2.3,0
		c0.3,0,0.6-0.2,0.8-0.4c0.2-0.2,0.3-0.5,0.4-0.8l0.1-1.7L88.7,203.5z"/>
	<path class="st2" d="M88.7,203.5l-0.1,2.3c0,0.2,0.1,0.5,0.2,0.6c0.2,0.2,0.4,0.3,0.6,0.3c0.8,0.1,1.6,0.1,2.3,0
		c0.3,0,0.6-0.2,0.8-0.4c0.2-0.2,0.3-0.5,0.4-0.8l0.1-1.7L88.7,203.5z"/>
	<path class="st20" d="M103.8,202.3c0,0.3-0.1,0.7-0.3,1c-0.3,0.3-0.7,0.6-1.1,0.6c-0.5,0.1-1,0-1.5-0.2c-0.5-0.2-0.9-0.5-1.2-0.9
		c-0.3-0.4-0.5-0.9-0.7-1.3c-0.4-0.6-0.9-1.1-1.5-1.5c-0.6-0.4-1.1-0.9-1.5-1.5c-0.2-0.3-0.3-0.6-0.4-0.9c-0.1-0.3,0-0.7,0.1-1
		c-0.1,0.1-0.1,0.2-0.1,0.2c-0.1,0.3-0.2,0.7-0.1,1.1c0,0.4,0.2,0.7,0.4,1c0.4,0.6,1,1.1,1.6,1.5c0.6,0.4,1.1,0.9,1.5,1.5
		c0.3,0.4,0.5,1,0.7,1.4c0.3,0.4,0.7,0.8,1.2,1s1,0.3,1.5,0.2c0.4-0.1,0.8-0.3,1.1-0.6c0.3-0.4,0.4-0.9,0.3-1.3
		C103.8,202.4,103.8,202.4,103.8,202.3z"/>
	<path class="st0" d="M103.1,199.4c-0.7-1.2-2.1-2.1-3.3-3c-0.6-0.5-1.4-0.9-2.2-1c-0.4,0-0.8,0-1.2,0.2c-0.4,0.2-0.7,0.5-0.8,0.8
		c0,0,0,0,0,0.1c-0.1,0.3-0.1,0.7-0.1,1c0.1,0.3,0.2,0.7,0.4,0.9c0.4,0.6,0.9,1.1,1.5,1.5c0.6,0.4,1.1,0.9,1.5,1.4
		c0.3,0.4,0.4,0.9,0.7,1.3c0.3,0.4,0.7,0.8,1.2,0.9c0.5,0.2,1,0.3,1.5,0.2c0.4-0.1,0.8-0.3,1.1-0.6c0.2-0.3,0.3-0.6,0.3-1
		c0-0.1,0-0.2,0-0.3C103.8,201.1,103.5,200.2,103.1,199.4z"/>
	<path class="st14" d="M100.1,198.4v2.1c0.5,0.2,1.1,0.4,1.6,0.3c0.6,0,1.1-0.2,1.6-0.5l0.2-1.9L100.1,198.4z"/>
	<path class="st2" d="M100.1,198.4v2.1c0.5,0.2,1.1,0.4,1.6,0.3c0.6,0,1.1-0.2,1.6-0.5l0.2-1.9L100.1,198.4z"/>
	<path class="st16" d="M104.1,160.3c0.6,1.9,0.4,11.8,0.1,20.4c0.6,4.2,0.6,13.2-0.2,19.8c-0.8,0.4-1.7,0.6-2.6,0.6
		c-0.9,0-1.8-0.1-2.6-0.5l-1.8-19.9l-0.4-10.2c0,0-0.8,9.1-1.7,14.9c0.3,4.3-0.4,12.4-1,21.1c0,0-3.4,2-6.7-0.2
		c-1.2-19.3,0.7-38.8,1.1-45.1L104.1,160.3z"/>
	<path class="st3" d="M96.7,176.7l-0.3-8.3c2.2,0,4.2-1.6,5.7-3.2c-1,1.7-2.5,3-4.3,3.8L96.7,176.7z"/>
	<path class="st6" d="M87.8,145.4v16.3c9.6,4,15.8,0.4,16.7-1.5c-0.4-6.6,1.1-14.4,1-17.7c-0.1-3.3-0.5-7-5.6-6.3l-5.4,0.5l-2.8,0.7
		L87.8,145.4z"/>
	<path class="st19" d="M82.7,144.6l-1.8,1.9l-10.2-4c0-0.9-0.1-1.9-0.2-2.8c-0.1-0.3-0.2-0.5-0.5-0.5c-0.2,0-0.5,0.3-0.5,0.9
		c0,0.1,0,0.7,0,0.9c0,0.1,0,0.2-0.1,0.2c0,0.1-0.1,0.1-0.2,0.1c-0.1,0-0.2,0-0.2,0c-0.1,0-0.1-0.1-0.2-0.1
		c-0.2-0.2-0.4-0.5-0.6-0.7l-0.2-0.5c-0.1-0.5-0.2-1-0.2-1.4c-0.4,0.2-0.8,0.5-1.1,0.9c-0.3,0.4-0.4,0.8-0.5,1.3
		c-0.2,0.7-0.2,1.5-0.1,2.3c0.3,1.1,1.3,1.5,2.9,2.1c3.2,2.3,7.7,4.9,10.2,6.3c0.5,0.3,1.1,0.4,1.7,0.4c0.6,0,1.2-0.2,1.7-0.5
		l3.9-2.6L82.7,144.6z"/>
	<path class="st21" d="M79.8,148.8c0.2-0.9,0.6-1.7,1.1-2.3l-0.9-0.3C79.4,146.6,79.3,147.9,79.8,148.8z"/>
	<path class="st16" d="M82.3,144.6l5.2-5.1c1.1-1.1,2.6-1.8,4.2-2h0.1c2.2,4.8-0.7,7.1-0.7,7.1l-4.8,4.4
		C84.5,148,83,146.5,82.3,144.6z"/>
	<path class="st20" d="M99.6,133.3c1.8-1.6,2.9-3.7,3.2-6.1c0.1-0.6,0-1.3-0.2-1.9c-0.3-0.6-1.1-1.2-1.7-1.1c0-0.4-0.1-0.8-0.3-1.2
		c-0.2-0.4-0.5-0.7-0.8-0.9c-0.6-0.3-1.3-0.4-1.9-0.4c-0.7,0-1.3,0.1-2,0.1c-1.1,0-3.4-0.3-4.4-0.8c0,0.6,0.2,1.2,0.5,1.7
		c-0.7-0.1-1.3-0.7-1.8-1.2c0,0.9,0.4,1.8,1.1,2.4c-0.9-0.1-1.1,1.5,0.5,1.5C92.5,132.5,97.3,135.2,99.6,133.3z"/>
	<path class="st21" d="M91.2,128.4l-0.9,1.5l0.9,0.3C91.2,129.6,91.2,129,91.2,128.4z"/>
	<path class="st19" d="M91.8,125.6c-0.3,0.9-0.5,1.8-0.6,2.8c0,0.6,0,1.2,0,1.8c0,0.8,0.1,1.7,0.3,2.5c0.1,0.5,0.2,0.9,0.5,1.3
		c0.4,0.4,0.9,0.6,1.4,0.6c0.5,0,1,0,1.5-0.1v2.5c1.9,0.4,3.4,0.6,4.9-0.5l-0.2-3.2c-0.9,0.1-1.8,0-2.6-0.4
		c-1.3-0.7-1.6-1.8-1.5-2.4c0.1,0.1,0.3,0.3,0.4,0.3c0.2,0.1,0.4,0.1,0.6,0c0.2,0,0.3-0.1,0.5-0.2s0.3-0.3,0.4-0.4
		c0.2-0.3,0.3-0.7,0.3-1.1c0.1-0.4,0-0.9-0.2-1.3c-0.2-0.2-0.4-0.4-0.7-0.5c-0.3-0.1-0.5-0.1-0.8,0c-0.3,0.1-0.5,0.2-0.7,0.4
		c-0.2,0.2-0.4,0.4-0.5,0.6c-0.1,0.1-0.2,0.3-0.2,0.5c0,0.1-0.1,0.1-0.1,0.2c-0.1,0-0.1,0.1-0.2,0c-0.1,0-0.1,0-0.2-0.1
		c0,0-0.1-0.1-0.1-0.2c-0.1-0.7,0.1-1.4,0.4-2.1c-0.2,0.1-0.5,0.2-0.7,0.2c-0.1,0-0.2,0-0.4-0.1c-0.1-0.1-0.2-0.1-0.3-0.2
		c-0.1-0.1-0.1-0.2-0.1-0.3s0-0.2,0.1-0.4c-0.2,0-0.4,0.1-0.6,0C92.2,125.8,92,125.7,91.8,125.6z"/>
	<path class="st21" d="M109.1,132.1c0.4,0,0.9,0.1,1.2,0.4s0.6,0.6,0.8,1c-0.1-2.3-1.5-2-1.9-1.8L109.1,132.1z"/>
</g>
</svg>
